/* XPM */
static char * SimVP_48_xpm[] = {
"48 48 855 2",
"  	c None",
". 	c #68680E",
"+ 	c #ABAB19",
"@ 	c #000000",
"# 	c #C4C41C",
"$ 	c #F5F523",
"% 	c #FFFF24",
"& 	c #F1F123",
"* 	c #A1A117",
"= 	c #F1F122",
"- 	c #FFFF25",
"; 	c #FEFE24",
"> 	c #F3F323",
", 	c #959514",
"' 	c #898912",
") 	c #FFFF26",
"! 	c #FEFE25",
"~ 	c #B4B419",
"{ 	c #135E23",
"] 	c #041C0A",
"^ 	c #28240B",
"/ 	c #E2E21F",
"( 	c #BDBD1B",
"_ 	c #06230D",
": 	c #24AD42",
"< 	c #2BCC4D",
"[ 	c #2BCE4E",
"} 	c #0B3615",
"| 	c #18150C",
"1 	c #D6D51F",
"2 	c #E3E321",
"3 	c #4D4D0A",
"4 	c #0B3814",
"5 	c #1C8733",
"6 	c #2AC84C",
"7 	c #29C54B",
"8 	c #2AC34B",
"9 	c #29C34A",
"0 	c #2ACB4D",
"a 	c #136028",
"b 	c #1A170E",
"c 	c #A0A11B",
"d 	c #F7F723",
"e 	c #838312",
"f 	c #191802",
"g 	c #0F4D1D",
"h 	c #197B2E",
"i 	c #0F491B",
"j 	c #17702A",
"k 	c #28BE48",
"l 	c #29C44A",
"m 	c #2AC34A",
"n 	c #2AC44B",
"o 	c #29C74B",
"p 	c #197D2F",
"q 	c #090006",
"r 	c #7B7A14",
"s 	c #D5D51E",
"t 	c #333307",
"u 	c #000501",
"v 	c #1D8B35",
"w 	c #29C24A",
"x 	c #29C44B",
"y 	c #27B946",
"z 	c #0E481B",
"A 	c #19772D",
"B 	c #28C048",
"C 	c #29C34B",
"D 	c #21A13D",
"E 	c #000002",
"F 	c #404022",
"G 	c #000201",
"H 	c #082A10",
"I 	c #2ACA4D",
"J 	c #2AC64B",
"K 	c #2AC44A",
"L 	c #2CD350",
"M 	c #125921",
"N 	c #000100",
"O 	c #040002",
"P 	c #12451D",
"Q 	c #26BB46",
"R 	c #2BCB4D",
"S 	c #26B344",
"T 	c #061D0A",
"U 	c #1F1722",
"V 	c #146425",
"W 	c #2BCC4E",
"X 	c #1B8331",
"Y 	c #0A0A0A",
"Z 	c #17381E",
"` 	c #2AC94C",
" .	c #2DD351",
"..	c #166A28",
"+.	c #020C04",
"@.	c #18772D",
"#.	c #071A0B",
"$.	c #102315",
"%.	c #28C148",
"&.	c #25AD42",
"*.	c #AF2223",
"=.	c #C42627",
"-.	c #671314",
";.	c #0D070B",
">.	c #0B1D0F",
",.	c #26B443",
"'.	c #25B244",
").	c #0D4017",
"!.	c #06220C",
"~.	c #22A33E",
"{.	c #29C149",
"].	c #1C3722",
"^.	c #151515",
"/.	c #23A840",
"(.	c #29C54A",
"_.	c #17732B",
":.	c #A11F20",
"<.	c #E92E2F",
"[.	c #F43031",
"}.	c #F33031",
"|.	c #F73132",
"1.	c #E82D2E",
"2.	c #BC2525",
"3.	c #210007",
"4.	c #050800",
"5.	c #0A0709",
"6.	c #0A160C",
"7.	c #1A8A31",
"8.	c #197C2F",
"9.	c #000401",
"0.	c #156727",
"a.	c #2AC94D",
"b.	c #2AC74C",
"c.	c #2AC54B",
"d.	c #24BA44",
"e.	c #296135",
"f.	c #2A2429",
"g.	c #228C39",
"h.	c #2BCF4F",
"i.	c #219D3B",
"j.	c #022710",
"k.	c #0E0900",
"l.	c #8E8E14",
"m.	c #CBCB1D",
"n.	c #6E6E0F",
"o.	c #761617",
"p.	c #EB2E2F",
"q.	c #F02F30",
"r.	c #EF2F30",
"s.	c #F03031",
"t.	c #EF3031",
"u.	c #FC3233",
"v.	c #4B0110",
"w.	c #534E0B",
"x.	c #EAEA21",
"y.	c #E4E420",
"z.	c #71710F",
"A.	c #040305",
"B.	c #3F4440",
"C.	c #090A09",
"D.	c #051D0A",
"E.	c #25B143",
"F.	c #27BF48",
"G.	c #268D3D",
"H.	c #20161E",
"I.	c #17722B",
"J.	c #2CCE4E",
"K.	c #2CD04F",
"L.	c #115620",
"M.	c #000302",
"N.	c #2F2E05",
"O.	c #DBDB1F",
"P.	c #F6F623",
"Q.	c #777710",
"R.	c #A42121",
"S.	c #FC3132",
"T.	c #F02E30",
"U.	c #BE2426",
"V.	c #341C08",
"W.	c #AAB017",
"X.	c #FFFF27",
"Y.	c #FAFA24",
"Z.	c #A4A417",
"`.	c #3B3B08",
" +	c #1E9236",
".+	c #2BCA4C",
"++	c #29C64B",
"@+	c #208837",
"#+	c #11090F",
"$+	c #1D5A2A",
"%+	c #0B3515",
"&+	c #040100",
"*+	c #595A0C",
"=+	c #FCFC24",
"-+	c #FDFD24",
";+	c #FDFD25",
">+	c #949414",
",+	c #000B04",
"'+	c #030001",
")+	c #5E0D14",
"!+	c #982021",
"~+	c #DA2A2B",
"{+	c #FF3334",
"]+	c #C42327",
"^+	c #641413",
"/+	c #616E0C",
"(+	c #E5E821",
"_+	c #8D8A0B",
":+	c #0F193A",
"<+	c #192D6F",
"[+	c #121F4D",
"}+	c #1B7E36",
"|+	c #28C940",
"1+	c #2BCB4C",
"2+	c #001603",
"3+	c #3A3439",
"4+	c #000004",
"5+	c #A0A016",
"6+	c #B2B219",
"7+	c #1E8F36",
"8+	c #0C4B1C",
"9+	c #0B0808",
"0+	c #130307",
"a+	c #320A0B",
"b+	c #251C09",
"c+	c #D6D81F",
"d+	c #D3D31C",
"e+	c #232000",
"f+	c #1C337A",
"g+	c #345EE7",
"h+	c #345DE4",
"i+	c #335BDF",
"j+	c #325BDA",
"k+	c #1F4581",
"l+	c #1C7F38",
"m+	c #26BE3F",
"n+	c #2ACB4C",
"o+	c #2AC74B",
"p+	c #26B745",
"q+	c #092D11",
"r+	c #2F2D07",
"s+	c #FFFF23",
"t+	c #FDFD23",
"u+	c #E2E221",
"v+	c #1F9739",
"w+	c #22A13D",
"x+	c #219F3C",
"y+	c #156426",
"z+	c #0F1211",
"A+	c #2D2D2B",
"B+	c #5E5E0A",
"C+	c #E8E822",
"D+	c #F3F324",
"E+	c #FEFE23",
"F+	c #959414",
"G+	c #00031F",
"H+	c #2C51CB",
"I+	c #3660EB",
"J+	c #335CE3",
"K+	c #345DE3",
"L+	c #3458EA",
"M+	c #2A4BBC",
"N+	c #104127",
"O+	c #26B243",
"P+	c #1C8C34",
"Q+	c #082B10",
"R+	c #062310",
"S+	c #2A2912",
"T+	c #E7E721",
"U+	c #D9D820",
"V+	c #292805",
"W+	c #229F3C",
"X+	c #219C3B",
"Y+	c #24A63F",
"Z+	c #146625",
"`+	c #06082B",
" @	c #09164B",
".@	c #4D4B0D",
"+@	c #7C7C14",
"@@	c #BEBE1A",
"#@	c #A9A813",
"$@	c #414108",
"%@	c #0B2074",
"&@	c #3158D6",
"*@	c #355FE8",
"=@	c #355EE5",
"-@	c #345EE6",
";@	c #3660EC",
">@	c #1F3A8F",
",@	c #00000B",
"'@	c #000600",
")@	c #0F4519",
"!@	c #27BB46",
"~@	c #104E22",
"{@	c #2B2314",
"]@	c #C3C31C",
"^@	c #898511",
"/@	c #131904",
"(@	c #001E0D",
"_@	c #092F11",
":@	c #23A33E",
"<@	c #229C3B",
"[@	c #219B3A",
"}@	c #1F9336",
"|@	c #0F223F",
"1@	c #2848B4",
"2@	c #2643A7",
"3@	c #14255E",
"4@	c #070911",
"5@	c #131205",
"6@	c #38372F",
"7@	c #15265F",
"8@	c #3763F4",
"9@	c #3762EE",
"0@	c #355DE4",
"a@	c #3661EE",
"b@	c #2E53CC",
"c@	c #091636",
"d@	c #080102",
"e@	c #911B1C",
"f@	c #731617",
"g@	c #07260E",
"h@	c #25AF42",
"i@	c #28C249",
"j@	c #156127",
"k@	c #1A181C",
"l@	c #A3A31B",
"m@	c #F4F422",
"n@	c #443E07",
"o@	c #07260D",
"p@	c #197F30",
"q@	c #1C8432",
"r@	c #219E3C",
"s@	c #229D3C",
"t@	c #209739",
"u@	c #093010",
"v@	c #2643A9",
"w@	c #294AB6",
"x@	c #2A4CBA",
"y@	c #2C50C4",
"z@	c #172967",
"A@	c #030200",
"B@	c #161511",
"C@	c #121313",
"D@	c #20388B",
"E@	c #3056D0",
"F@	c #325ADC",
"G@	c #355EE7",
"H@	c #345EE8",
"I@	c #1F3B91",
"J@	c #040000",
"K@	c #2B0706",
"L@	c #CB2729",
"M@	c #DB2B2C",
"N@	c #BE2425",
"O@	c #003612",
"P@	c #2BD04F",
"Q@	c #0F521C",
"R@	c #0C0E12",
"S@	c #8E8E1A",
"T@	c #D2D11F",
"U@	c #000001",
"V@	c #093F19",
"W@	c #1E9137",
"X@	c #156A28",
"Y@	c #166D29",
"Z@	c #23A53E",
"`@	c #22A03D",
" #	c #0D4512",
".#	c #192C70",
"+#	c #2A4CB9",
"@#	c #2747B0",
"##	c #1F2331",
"$#	c #B6B6B5",
"%#	c #9A9A98",
"&#	c #5B5850",
"*#	c #171A20",
"=#	c #111D44",
"-#	c #1E388D",
";#	c #213E9D",
">#	c #07173B",
",#	c #160100",
"'#	c #8B1A1B",
")#	c #D72A2B",
"!#	c #D02829",
"~#	c #1B130A",
"{#	c #198230",
"]#	c #1A8732",
"^#	c #201622",
"/#	c #000508",
"(#	c #136426",
"_#	c #1D8F36",
":#	c #052108",
"<#	c #166D27",
"[#	c #25AE42",
"}#	c #187429",
"|#	c #0A142D",
"1#	c #2B4EBE",
"2#	c #2A4BB7",
"3#	c #2A4AB6",
"4#	c #2A4BB8",
"5#	c #0C1A4B",
"6#	c #B6B6B4",
"7#	c #CCCCCC",
"8#	c #CBCBCB",
"9#	c #B9B9B9",
"0#	c #898987",
"a#	c #1A1A1B",
"b#	c #474E50",
"c#	c #450807",
"d#	c #C92728",
"e#	c #D92A2B",
"f#	c #D82A2B",
"g#	c #D72B2C",
"h#	c #D62A2B",
"i#	c #520E0F",
"j#	c #115C20",
"k#	c #2DD350",
"l#	c #2DD451",
"m#	c #083111",
"n#	c #176E29",
"o#	c #1D9037",
"p#	c #10501E",
"q#	c #0D173D",
"r#	c #07072C",
"s#	c #04120E",
"t#	c #146323",
"u#	c #2A4AB8",
"v#	c #294BB7",
"w#	c #102772",
"x#	c #6A6C6F",
"y#	c #D4D4D4",
"z#	c #D0D0D0",
"A#	c #ADADAD",
"B#	c #000404",
"C#	c #F53031",
"D#	c #D82B2C",
"E#	c #6F1616",
"F#	c #191618",
"G#	c #166427",
"H#	c #29C249",
"I#	c #21A53D",
"J#	c #040905",
"K#	c #373436",
"L#	c #25402B",
"M#	c #1A8432",
"N#	c #1B8733",
"O#	c #175D27",
"P#	c #223D94",
"Q#	c #2A4CBB",
"R#	c #233D9A",
"S#	c #0F184B",
"T#	c #000107",
"U#	c #263258",
"V#	c #294BBA",
"W#	c #2B4DBD",
"X#	c #2341A3",
"Y#	c #040710",
"Z#	c #D8D8D8",
"`#	c #DADADA",
" $	c #172121",
".$	c #B52323",
"+$	c #DC2B2C",
"@$	c #D72B2B",
"#$	c #D92B2C",
"$$	c #871A1A",
"%$	c #150E13",
"&$	c #165824",
"*$	c #147128",
"=$	c #111512",
"-$	c #7B797A",
";$	c #838283",
">$	c #023E0F",
",$	c #107225",
"'$	c #436D4D",
")$	c #6E676D",
"!$	c #2848B3",
"~$	c #203C94",
"{$	c #120F09",
"]$	c #000614",
"^$	c #1A327B",
"/$	c #2D50C6",
"($	c #00000E",
"_$	c #A0A0A0",
":$	c #CFCFCF",
"<$	c #D5D5D5",
"[$	c #595D5D",
"}$	c #400809",
"|$	c #991E1E",
"1$	c #070101",
"2$	c #010001",
"3$	c #131313",
"4$	c #07270E",
"5$	c #23B543",
"6$	c #042A0D",
"7$	c #1B1E1C",
"8$	c #A5A4A5",
"9$	c #C2C2C2",
"0$	c #151A16",
"a$	c #0A4F18",
"b$	c #848F86",
"c$	c #ACAAAC",
"d$	c #2848B2",
"e$	c #294AB5",
"f$	c #2E52C9",
"g$	c #040715",
"h$	c #402503",
"i$	c #291500",
"j$	c #070711",
"k$	c #192F77",
"l$	c #0C1B4B",
"m$	c #5A5854",
"n$	c #9A9A9A",
"o$	c #0D0000",
"p$	c #DA2B2C",
"q$	c #C52627",
"r$	c #39090B",
"s$	c #161516",
"t$	c #211920",
"u$	c #4B4A4A",
"v$	c #BCBCBC",
"w$	c #BBBBBB",
"x$	c #6F6F6F",
"y$	c #101110",
"z$	c #939392",
"A$	c #B8B7B8",
"B$	c #878787",
"C$	c #1C3380",
"D$	c #2A4BB6",
"E$	c #1A327E",
"F$	c #5A3100",
"G$	c #C87616",
"H$	c #8B520D",
"I$	c #482800",
"J$	c #080300",
"K$	c #0F1318",
"L$	c #9C9C9C",
"M$	c #D2D2D2",
"N$	c #D3D3D3",
"O$	c #060000",
"P$	c #BB2425",
"Q$	c #871A1B",
"R$	c #130002",
"S$	c #084C1B",
"T$	c #0C4018",
"U$	c #4F4F4F",
"V$	c #B7B7B7",
"W$	c #B6B6B6",
"X$	c #8F8F95",
"Y$	c #060606",
"Z$	c #A9A9A9",
"`$	c #BEBEBF",
" %	c #A4A4A4",
".%	c #2849B5",
"+%	c #294AB7",
"@%	c #2341A2",
"#%	c #1C1206",
"$%	c #B06813",
"%%	c #BB6E14",
"&%	c #B76B14",
"*%	c #B46A14",
"=%	c #3B2307",
"-%	c #010507",
";%	c #0B1010",
">%	c #8B8B8B",
",%	c #DDDDDD",
"'%	c #423D3D",
")%	c #8D1616",
"!%	c #D52A2B",
"~%	c #45090C",
"{%	c #010100",
"]%	c #1C8C35",
"^%	c #25B243",
"/%	c #3B3B3B",
"(%	c #919190",
"_%	c #BDBDBD",
":%	c #838383",
"<%	c #2A2A00",
"[%	c #7E7E7A",
"}%	c #BAB9B9",
"|%	c #908F8E",
"1%	c #30302F",
"2%	c #1C3482",
"3%	c #2747B2",
"4%	c #2645AB",
"5%	c #020A1F",
"6%	c #9B5A10",
"7%	c #BA6E14",
"8%	c #B96D15",
"9%	c #B96D14",
"0%	c #9C5C11",
"a%	c #2A0408",
"b%	c #741717",
"c%	c #080000",
"d%	c #090606",
"e%	c #828383",
"f%	c #898C8C",
"g%	c #5E0A0A",
"h%	c #B62223",
"i%	c #040201",
"j%	c #073714",
"k%	c #24AC41",
"l%	c #24AE42",
"m%	c #000300",
"n%	c #0C0C0C",
"o%	c #4A4A4A",
"p%	c #B3B3B4",
"q%	c #4E4E4B",
"r%	c #8C8C0A",
"s%	c #535320",
"t%	c #9FA0A3",
"u%	c #87827D",
"v%	c #553005",
"w%	c #1E1D00",
"x%	c #40472B",
"y%	c #0A1A59",
"z%	c #2342A7",
"A%	c #0B1D54",
"B%	c #76440A",
"C%	c #BC6F14",
"D%	c #BA6E15",
"E%	c #B36913",
"F%	c #311107",
"G%	c #BF2426",
"H%	c #C02526",
"I%	c #7B1617",
"J%	c #3A0303",
"K%	c #242426",
"L%	c #051C11",
"M%	c #16732B",
"N%	c #26B545",
"O%	c #26B244",
"P%	c #26B043",
"Q%	c #26B144",
"R%	c #27B947",
"S%	c #051A09",
"T%	c #0F0F0F",
"U%	c #6F6F74",
"V%	c #74743E",
"W%	c #A4A412",
"X%	c #999917",
"Y%	c #383B44",
"Z%	c #856B4B",
"`%	c #834905",
" &	c #8B520E",
".&	c #C0BF1A",
"+&	c #878712",
"@&	c #16180F",
"#&	c #000016",
"$&	c #1A0E00",
"%&	c #D37C17",
"&&	c #B86C14",
"*&	c #B96E15",
"=&	c #432B06",
"-&	c #AB2123",
";&	c #BF2627",
">&	c #C12526",
",&	c #A31F20",
"'&	c #31080D",
")&	c #1A7A30",
"!&	c #25B444",
"~&	c #25B043",
"{&	c #26B645",
"]&	c #125721",
"^&	c #727217",
"/&	c #B2B217",
"(&	c #C6C61C",
"_&	c #373507",
":&	c #63390D",
"<&	c #A05F10",
"[&	c #9B5C11",
"}&	c #AAAA18",
"|&	c #CECE1E",
"1&	c #D2D21E",
"2&	c #5B5B0A",
"3&	c #242727",
"4&	c #472905",
"5&	c #AE6612",
"6&	c #5C3B08",
"7&	c #601312",
"8&	c #C22526",
"9&	c #8A1218",
"0&	c #175E24",
"a&	c #27B645",
"b&	c #20993A",
"c&	c #7C7C11",
"d&	c #B9B91B",
"e&	c #B0B019",
"f&	c #6B6D0F",
"g&	c #3A1C05",
"h&	c #AC6712",
"i&	c #A05E10",
"j&	c #513008",
"k&	c #CCCC1E",
"l&	c #DCDC20",
"m&	c #525108",
"n&	c #25272E",
"o&	c #211A13",
"p&	c #492700",
"q&	c #AB6512",
"r&	c #8A530F",
"s&	c #1B0705",
"t&	c #C82728",
"u&	c #C02627",
"v&	c #BF2526",
"w&	c #B82124",
"x&	c #14160A",
"y&	c #21A23D",
"z&	c #1E1801",
"A&	c #B3B319",
"B&	c #A9A918",
"C&	c #70710F",
"D&	c #1B1703",
"E&	c #824D0D",
"F&	c #C8C81D",
"G&	c #CBCB1E",
"H&	c #CDCD1E",
"I&	c #C0C018",
"J&	c #35354A",
"K&	c #C3C3C3",
"L&	c #747576",
"M&	c #010000",
"N&	c #2A1701",
"O&	c #BC2425",
"P&	c #C52728",
"Q&	c #260001",
"R&	c #23AB41",
"S&	c #28BC48",
"T&	c #1F9036",
"U&	c #000804",
"V&	c #59580B",
"W&	c #8D8D13",
"X&	c #64640E",
"Y&	c #979915",
"Z&	c #80510E",
"`&	c #533109",
" *	c #B8B81A",
".*	c #CACA1C",
"+*	c #DCDC1F",
"@*	c #50502B",
"#*	c #CBCBCF",
"$*	c #D1D1D1",
"%*	c #434444",
"&*	c #111717",
"**	c #661617",
"=*	c #B92324",
"-*	c #C12627",
";*	c #4D070D",
">*	c #106324",
",*	c #27B746",
"'*	c #136928",
")*	c #0B0B01",
"!*	c #6C6C0F",
"~*	c #7D7D11",
"{*	c #65650D",
"]*	c #C2C21B",
"^*	c #62600D",
"/*	c #A1A116",
"(*	c #BFBF1B",
"_*	c #93931E",
":*	c #AAAAB1",
"<*	c #DBDBDB",
"[*	c #858585",
"}*	c #20070A",
"|*	c #6B110C",
"1*	c #A92122",
"2*	c #CC2829",
"3*	c #A41E20",
"4*	c #002D0E",
"5*	c #073817",
"6*	c #2E2803",
"7*	c #F0F022",
"8*	c #939314",
"9*	c #8D8D14",
"0*	c #A3A317",
"a*	c #B9B919",
"b*	c #6F6F71",
"c*	c #C4C4C4",
"d*	c #000206",
"e*	c #1D3788",
"f*	c #15245B",
"g*	c #0B0000",
"h*	c #3D0A08",
"i*	c #D12829",
"j*	c #000E04",
"k*	c #126023",
"l*	c #000705",
"m*	c #615F0C",
"n*	c #E3E320",
"o*	c #E6E620",
"p*	c #E8E821",
"q*	c #9D9D16",
"r*	c #52520B",
"s*	c #4C4C08",
"t*	c #41413F",
"u*	c #C5C5C5",
"v*	c #17181A",
"w*	c #162A6D",
"x*	c #2C4FC2",
"y*	c #2747AF",
"z*	c #0C1F4F",
"A*	c #00030D",
"B*	c #151313",
"C*	c #0D0602",
"D*	c #999914",
"E*	c #E6E621",
"F*	c #CBCB1C",
"G*	c #A6A6A6",
"H*	c #70706F",
"I*	c #0A1A4E",
"J*	c #2C4FC1",
"K*	c #2443A6",
"L*	c #101B41",
"M*	c #70700B",
"N*	c #EDED22",
"O*	c #E5E520",
"P*	c #EFEF21",
"Q*	c #51510B",
"R*	c #BFBFBE",
"S*	c #00061F",
"T*	c #2848B1",
"U*	c #1F3A96",
"V*	c #524F06",
"W*	c #E1E120",
"X*	c #EBEB21",
"Y*	c #878713",
"Z*	c #9F9F9F",
"`*	c #181610",
" =	c #2543A5",
".=	c #2A4AB7",
"+=	c #2544AC",
"@=	c #2A2D15",
"#=	c #D6D61D",
"$=	c #5A5A0C",
"%=	c #162A67",
"&=	c #2746AD",
"*=	c #2949B6",
"==	c #172347",
"-=	c #CDCC1A",
";=	c #E5E521",
">=	c #EEEE21",
",=	c #BCBC1A",
"'=	c #57570B",
")=	c #1E3788",
"!=	c #294BB8",
"~=	c #081C6C",
"{=	c #BCBD1C",
"]=	c #EDED21",
"^=	c #101F4E",
"/=	c #152E8A",
"(=	c #5A5B16",
"_=	c #E6E61F",
":=	c #858512",
"<=	c #112051",
"[=	c #030405",
"                                                                                                ",
"                                                  . +                                           ",
"                                              @ # $ % & *                                       ",
"                                            . = - ; - ; > ,                                     ",
"                                        @ ' ) % ! - ; ! % - ~                                   ",
"                                      { ] ^ / - - % ! % - ! % (                                 ",
"                                  _ : < [ } | 1 % ! % ! - % 2 3 @                               ",
"                              4 5 6 7 8 9 0 a b c - ; - d e f @ g h i                           ",
"                            j k l m 9 n n l o p q r % s t @ u v w x y z                         ",
"                          @ A B 7 C n 9 n n 9 6 D E F @ G H I J 9 K 9 L M                       ",
"                          N O P Q l 9 n 9 8 9 R S T U @ V W l 9 n n 9 w 7 X                     ",
"                          @ @ Y Z ` 9 n n 9  ...+.@ @.#.$.%.n 8 n 9 n n l 9 &.                  ",
"              *.=.-.      @ @ @ ;.>.,.J J '.).@ !.~.6 {.].^./.(.9 n n 9 l k _.@                 ",
"          :.<.[.}.|.1.2.3.4.@ @ @ 5.6.7.8.+.9.0.a.b.9 c.d.e.f.g.` w m h.i.j.k.l.m.n.            ",
"      o.p.q.r.s.t.q.u.v.w.x.y.z.@ @ A.B.C.D.E.c.n 9 n 9 7 F.G.H.I.J.K.L.M.N.O.- % P.Q.          ",
"    R.S.q.s.r.q.T.U.V.W.X.; ; ) Y.Z.`.@ @  +.+n 9 n n 9 n w ++@+#+$+%+&+*+=+- - - -+;+>+        ",
"  ,+'+)+!+~+{+]+^+/+(+- ; % - ; - - _+:+<+[+}+|+1+n 8 l n n c.I 2+3+4+5+X.% ! - ; - % -+6+      ",
"    7+8+9+0+a+b+c+=+% ; - - -+- d+e+f+g+h+i+j+k+l+m+n+9 w o+p+q+@ @ 9.r+s+% ; ; - - ; - t+u+    ",
"    v+w+x+y+z+A+B+C+D+E+- % P.F+G+H+I+J+h+h+K+I+L+M+N+O+(.P+@ @ Q+7 l R+S+T+% ; - ; ; - % U+V+  ",
"    X W+X+Y+Z+`+ @E .@+@@@#@$@%@&@*@h+=@=@=@h+-@;@>@,@'@)@@ @ j I 9 J !@~@{@]@- ; - % % ^@/@(@  ",
"    _@:@<@[@}@|@1@2@3@4@5@6@7@8@9@0@=@=@=@J+a@b@c@d@e@f@@ g@h@(.l n 9 n i@j@k@l@) - m@n@o@p@    ",
"      q@r@s@t@u@v@w@x@y@z@A@B@C@D@E@F@G@H@F@I@J@K@L@M@N@O@` i@n n n n n 9 P@Q@R@S@T@U@V@W@X@    ",
"      Y@Z@`@X+ #.#+#w@w@@###$#%#&#*#=#-#;#>#,#'#~+M@)#!#~#{#[ w 9 n n n n 9 K.]#^#/#(#_#h       ",
"        :#<#[#}#|#1#2#3#4#5#6#7#8#9#0#a#b#c#d#e#f#g#)#h#i#z+j#k#9 n n n 9 c.l#m#@ n#v o#p#      ",
"        q#r#s#t#'@u#4#v#4#w#x#y#8#8#z#A#B#C#h#D#)#D#D#f#E#@ F#G#H#x m 9 c.I#J#K#L#M#N#O#        ",
"        P#Q#R#S#T#U#V#W#3#X#Y#Z#8#7#8#`# $.$+$@$D#D#)##$$$J@@ %$&$l ` 6 *$=$-$;$>$,$'$)$        ",
"          !$4#v#~${$]$^$/$y@($_$:$7#8#<$[$}$1.)#D#)#D##$|$1$@ 2$3$4$5$6$7$8$9$0$a$b$c$          ",
"          d$e$w@f$g$h$i$j$k$l$m$<$7#8#:$n$o$p$D#)#D#e#q$r$@ @ @ @ s$t$u$v$w$x$y$z$A$B$          ",
"          C$x@D$x@E$F$G$H$I$J$K$L$M$N$7#z#O$P$D#e#p$Q$R$S$T$@ @ @ @ U$V$W$X$Y$Z$`$ %            ",
"            w@.%+%@%#%$%%%&%*%=%-%;%>%M$,%'%)%+$!%~%{%]%^%x+@ @ @ /%(%_%:%<%[%}%|%1%            ",
"            2%3%w@4%5%6%7%8%9%0%a%b%c%d%e%f%g%h%i%j%k%S E.l%m%@ n%o%p%q%r%s%t%u%v%              ",
"            w%x%y%z%A%B%C%D%8%E%F%G%H%I%J%@ K%L%M%N%O%P%Q%R%S%@ T%U%V%W%X%Y%Z%`% &              ",
"              .&+&@&#&$&%&&&*&9%=&-&;&>&N@,&'&)&!&Q%~&Q%~&{&]&@ U@^&/&(&_&:&<&[&                ",
"              }&|&1&2&3&4&5&7%%%6&7&q$;&;&8&9&0&a&~&Q%~&Q%~&b&@ c&d&e&f&g&h&i&j&                ",
"              6+m.k&l&m&n&o&p&q&r&s&t&u&v&u&w&x&9 ~&Q%Q%~&S y&z&A&B&C&D&q&E&                    ",
"                F&G&H&I&J&K&L&M&N&@ O&H%u&u&P&Q&R&O%Q%~&S&T&U&V&W&X&Y&Z&`&                      ",
"                 *H&.*+*@*#*$*7#%*&***=*-*u&d#;*>*,*~&h@'*)*!*~*{*]*^*                          ",
"                  /*(*1&_*:*7#7#<*[*@ }*|*1*2*3*4*9 w+5*6*]*7*8*6+9*                            ",
"                      0*a*b*:$7#7#c*d*e*f*g*h*i*j*k*l*m*n*o*p*q*r*                              ",
"                        s*t*u*7#8#<$v*w*x*y*z*A*B*C*D*P.y.E*E*F*                                ",
"                            G*A#z#$*H*I*w@v#J*K*L*M*N*y.E*O*O*P*Q*                              ",
"                                B$c*R*S*T*w@w@4#U*V*W*E*O*E*O*X*Y*                              ",
"                                    Z*`* =.=w@w@+=@=#=E*E*O*E*p*$=                              ",
"                                        %=&=Q#w@*===-=;=O*>=,='=                                ",
"                                            )=x@!=~={=E*]=>+                                    ",
"                                              ^=.%/=(=_=:=                                      ",
"                                                  <=[={*                                        ",
"                                                                                                "};
