/* XPM */
static char * delete_16_xpm[] = {
"16 16 69 1",
" 	c None",
".	c #DE5B0A",
"+	c #FBC394",
"@	c #DD5A0A",
"#	c #F59C53",
"$	c #EE7018",
"%	c #F7A964",
"&	c #DC590A",
"*	c #DC5A0A",
"=	c #ED6F18",
"-	c #DA580B",
";	c #EC6D16",
">	c #EC6E17",
",	c #EC6D17",
"'	c #D9580B",
")	c #D7560B",
"!	c #F0883A",
"~	c #EA6A15",
"{	c #EA6B15",
"]	c #E96A15",
"^	c #F29045",
"/	c #D4540C",
"(	c #E76813",
"_	c #E76713",
":	c #E86713",
"<	c #E86813",
"[	c #D4540B",
"}	c #D0520C",
"|	c #E46411",
"1	c #E56411",
"2	c #D0520D",
"3	c #CD4F0C",
"4	c #E1600F",
"5	c #E2600E",
"6	c #E2610F",
"7	c #E2600F",
"8	c #CD4F0D",
"9	c #C94D0E",
"0	c #DF5D0D",
"a	c #DF5D0C",
"b	c #CA4D0D",
"c	c #C64B0E",
"d	c #DC590B",
"e	c #DC5A0B",
"f	c #C54B0E",
"g	c #C2480E",
"h	c #DA5608",
"i	c #D95608",
"j	c #D95609",
"k	c #C2480F",
"l	c #BF4610",
"m	c #E85A03",
"n	c #CF4800",
"o	c #D75306",
"p	c #D75206",
"q	c #BF460F",
"r	c #BC4410",
"s	c #D45004",
"t	c #BB4410",
"u	c #BC4310",
"v	c #D54F04",
"w	c #D44F04",
"x	c #B94210",
"y	c #B94211",
"z	c #B94110",
"A	c #B64011",
"B	c #B74111",
"C	c #B74011",
"D	c #B53F11",
"    .      .    ",
"   .+.    .+.   ",
"  @#$%&  *%=#*  ",
" -#;>,%-'%,,;#- ",
")!~{~~{++~]~{~^)",
" /((_:(_<_<_(_[ ",
"  }|11111|||12  ",
"   3456766668   ",
"   900aaa0a0b   ",
"  cdee&*&&&&*f  ",
" ghiiiihhiihjik ",
"lmnoopnmmnpopnmq",
" rmnsnmtumnvnwu ",
"  xmnmy  zmnmm  ",
"   AmB    BmC   ",
"    D      D    "};
