/* XPM */
static char * save_16_xpm[] = {
"16 16 109 2",
"  	c None",
". 	c #4A4C51",
"+ 	c #3A3C40",
"@ 	c #3E3F43",
"# 	c #A7B3B3",
"$ 	c #1E1F20",
"% 	c #3A3B3F",
"& 	c #6B6C6E",
"* 	c #38393B",
"= 	c #E9F6F6",
"- 	c #EBF8F8",
"; 	c #EAF8F8",
"> 	c #E8F6F6",
", 	c #E4F5F5",
"' 	c #E1F4F4",
") 	c #47494C",
"! 	c #D9F0F0",
"~ 	c #222324",
"{ 	c #494A4F",
"] 	c #393A3E",
"^ 	c #46494C",
"/ 	c #4E5052",
"( 	c #47484C",
"_ 	c #DBF2F2",
": 	c #DDF2F2",
"< 	c #D6F1F1",
"[ 	c #D3EEEE",
"} 	c #CBEAEA",
"| 	c #C3E8E8",
"1 	c #272829",
"2 	c #3A3B3E",
"3 	c #383A3C",
"4 	c #434549",
"5 	c #4C4E51",
"6 	c #444649",
"7 	c #D4F0F0",
"8 	c #D3EFEF",
"9 	c #CFECEC",
"0 	c #CCE8E8",
"a 	c #C8E8E8",
"b 	c #2C2D2F",
"c 	c #373A3C",
"d 	c #37373B",
"e 	c #414246",
"f 	c #4B4C4E",
"g 	c #CEEAEA",
"h 	c #CDEAEA",
"i 	c #CDE8E8",
"j 	c #C9E8E8",
"k 	c #D7F0F0",
"l 	c #313235",
"m 	c #404246",
"n 	c #36373B",
"o 	c #343638",
"p 	c #3D3F42",
"q 	c #515255",
"r 	c #383A3B",
"s 	c #37393A",
"t 	c #353639",
"u 	c #333437",
"v 	c #2F3235",
"w 	c #98A4B0",
"x 	c #D8EBFC",
"y 	c #97A4B0",
"z 	c #36383B",
"A 	c #303235",
"B 	c #2D3032",
"C 	c #333436",
"D 	c #DDD4C5",
"E 	c #DDD3C5",
"F 	c #DCD4C5",
"G 	c #333537",
"H 	c #2E3031",
"I 	c #2C2C2F",
"J 	c #303033",
"K 	c #D7EBFC",
"L 	c #D7EAFC",
"M 	c #D8EBFB",
"N 	c #D7EBFB",
"O 	c #D8EAFC",
"P 	c #2B2D2F",
"Q 	c #282A2C",
"R 	c #DBD3C5",
"S 	c #DCD3C5",
"T 	c #282A2D",
"U 	c #262829",
"V 	c #282A2B",
"W 	c #D5E9FB",
"X 	c #D5E9FC",
"Y 	c #D5EAFC",
"Z 	c #D6EAFC",
"` 	c #D6EAFB",
" .	c #242627",
"..	c #252728",
"+.	c #D3E9FC",
"@.	c #D4E9FC",
"#.	c #D4E9FB",
"$.	c #D5EAFB",
"%.	c #212324",
"&.	c #222326",
"*.	c #EE8003",
"=.	c #222425",
"-.	c #1F2222",
";.	c #303234",
">.	c #202222",
",.	c #1A1B1D",
"'.	c #CA6D00",
").	c #202122",
"!.	c #1A1B1C",
". + @ + . # # # # # # # # $ .   ",
"% & * + & = - ; > , ' ) ! ~ % { ",
"] ^ / + ( _ : _ < [ } ) | 1 ^ 2 ",
"3 4 5 + 6 7 7 8 9 0 a ) | b 6 c ",
"d e f + + g h i j | | k | l m n ",
"o p q f * * r * * * * * s t p o ",
"u 2 2 % 2 % % 2 2 % % % % % 2 u ",
"v n w x x x x x x x x x x y z A ",
"B C D E D F D D D D D D D D G H ",
"I J K K K L M N K K K O K x J P ",
"Q P R R S R S R R S S R R S P T ",
"U V W X X Y Z Z X Z Z Z ` Z V U ",
" ...+.@.@.@.#.@.W X $.X Y $... .",
"%.&.*.*.*.*.*.*.*.*.*.*.*.*.=.%.",
"-.;.*.*.*.*.*.*.*.*.*.*.*.*.;.>.",
",.$ '.'.'.'.'.'.'.'.'.'.'.'.).!."};
