/* XPM */
static char * SimCube_16_xpm[] = {
"16 16 140 2",
"  	c None",
". 	c #CBCB1C",
"+ 	c #C2BF1A",
"@ 	c #FFFF24",
"# 	c #F0F022",
"$ 	c #1D8D34",
"% 	c #2ED952",
"& 	c #246F27",
"* 	c #D9CC19",
"= 	c #C2C01A",
"- 	c #254111",
"; 	c #031106",
"> 	c #24A13E",
", 	c #29C24A",
"' 	c #2BCF4E",
") 	c #0C361D",
"! 	c #012D11",
"~ 	c #2ED852",
"{ 	c #209939",
"] 	c #DB2B2B",
"^ 	c #B31124",
"/ 	c #454B08",
"( 	c #000000",
"_ 	c #1E7231",
": 	c #0B4017",
"< 	c #26B845",
"[ 	c #23903B",
"} 	c #238538",
"| 	c #2ACE4D",
"1 	c #205C1E",
"2 	c #B7B217",
"3 	c #373D1B",
"4 	c #8F161C",
"5 	c #BB3E21",
"6 	c #BEB91A",
"7 	c #FFFF27",
"8 	c #F1EE14",
"9 	c #1C2652",
"0 	c #278872",
"a 	c #27C93A",
"b 	c #29C64C",
"c 	c #166D29",
"d 	c #0D0304",
"e 	c #FFFF26",
"f 	c #FEFE24",
"g 	c #ECEC21",
"h 	c #22AE40",
"i 	c #12313D",
"j 	c #737725",
"k 	c #939318",
"l 	c #294CC6",
"m 	c #3661EC",
"n 	c #3966FC",
"o 	c #1D1964",
"p 	c #194518",
"q 	c #125B22",
"r 	c #25C44A",
"s 	c #4D631E",
"t 	c #FFFF23",
"u 	c #CCC719",
"v 	c #406619",
"w 	c #187D2A",
"x 	c #196740",
"y 	c #2F55D5",
"z 	c #3E486E",
"A 	c #6B707F",
"B 	c #344D95",
"C 	c #411428",
"D 	c #D02726",
"E 	c #614426",
"F 	c #26C448",
"G 	c #2BD64F",
"H 	c #2A380E",
"I 	c #065D28",
"J 	c #19227D",
"K 	c #0F224D",
"L 	c #1D3683",
"M 	c #152A78",
"N 	c #DDDEDC",
"O 	c #7E918F",
"P 	c #DD2526",
"Q 	c #D72A2B",
"R 	c #781515",
"S 	c #102816",
"T 	c #19A237",
"U 	c #46644C",
"V 	c #275330",
"W 	c #5D8065",
"X 	c #2D53CD",
"Y 	c #4A2F1A",
"Z 	c #593719",
"` 	c #4D5554",
" .	c #E9EBEB",
"..	c #730B0B",
"+.	c #B0151D",
"@.	c #295523",
"#.	c #5E545B",
"$.	c #7C7D7E",
"%.	c #959398",
"&.	c #475451",
"*.	c #111136",
"=.	c #D57E17",
"-.	c #983816",
";.	c #671515",
">.	c #59362E",
",.	c #0F9033",
"'.	c #29C54B",
").	c #909046",
"!.	c #76692A",
"~.	c #784913",
"{.	c #C4C41C",
"].	c #AEAF18",
"^.	c #5A443A",
"/.	c #2C1500",
"(.	c #D7292B",
"_.	c #7E1416",
":.	c #26C54B",
"<.	c #27BD47",
"[.	c #456014",
"}.	c #7E790F",
"|.	c #7D420B",
"1.	c #C3C318",
"2.	c #ACAC87",
"3.	c #AEB4B3",
"4.	c #3E0A19",
"5.	c #A51111",
"6.	c #005D22",
"7.	c #566B14",
"8.	c #989814",
"9.	c #CFCECE",
"0.	c #32437C",
"a.	c #153EA0",
"b.	c #696522",
"c.	c #F3F322",
"d.	c #C7C71B",
"e.	c #2747AF",
"f.	c #5F6F5E",
"g.	c #E0E01E",
"h.	c #999915",
"i.	c #142359",
"                .               ",
"              + @ #             ",
"          $ % & * = -           ",
"        ; > , ' ) ! ~ ' {       ",
"    ] ^ / ( _ : < [ } | 1 2     ",
"3 4 5 6 7 8 9 0 a b c d e f g   ",
"  h i j k l m n o p q r s t u v ",
"  w x y z A B C D E F , G H I   ",
"  J K L M N O P Q R S T U V W   ",
"    X Y Z `  ...+.@.( #.$.%.    ",
"    &.*.=.-.;.>.,.'.( ).!.~.    ",
"    {.].^./.(._.:.<.[.}.|.      ",
"      1.2.3.4.5.6.7.8.          ",
"          9.0.a.b.c.d.          ",
"              e.f.g.h.          ",
"                i.              "};
