/* XPM */
static char * SimVP_32_xpm[] = {
"32 32 481 2",
"  	c None",
". 	c #C7C71C",
"+ 	c #EBEB21",
"@ 	c #DADA1F",
"# 	c #6B6C0E",
"$ 	c #E6E620",
"% 	c #FFFF25",
"& 	c #FEFE24",
"* 	c #C1C11B",
"= 	c #001407",
"- 	c #686210",
"; 	c #FFFF24",
"> 	c #E9E920",
", 	c #0C4018",
"' 	c #28C049",
") 	c #2FE055",
"! 	c #073B19",
"~ 	c #868417",
"{ 	c #F7F823",
"] 	c #F1F122",
"^ 	c #9B9915",
"/ 	c #081004",
"( 	c #125C22",
"_ 	c #25B142",
": 	c #2AC44A",
"< 	c #29C34A",
"[ 	c #29C74B",
"} 	c #15742E",
"| 	c #3B2707",
"1 	c #FBFB22",
"2 	c #CFCF1D",
"3 	c #242204",
"4 	c #000903",
"5 	c #219F3D",
"6 	c #25B444",
"7 	c #115620",
"8 	c #0F441A",
"9 	c #25B343",
"0 	c #28C44B",
"a 	c #2BCF4E",
"b 	c #198B35",
"c 	c #241F1C",
"d 	c #000000",
"e 	c #0A3916",
"f 	c #2EDD54",
"g 	c #29C44A",
"h 	c #2DD952",
"i 	c #146525",
"j 	c #0F1F12",
"k 	c #29BD48",
"l 	c #29C24A",
"m 	c #2ACA4D",
"n 	c #219D3B",
"o 	c #051A09",
"p 	c #134D22",
"q 	c #030704",
"r 	c #25B443",
"s 	c #2AC44B",
"t 	c #2AC34B",
"u 	c #28C349",
"v 	c #25AE42",
"w 	c #AB2121",
"x 	c #CF2829",
"y 	c #821819",
"z 	c #070106",
"A 	c #23A43D",
"B 	c #27BE47",
"C 	c #18762D",
"D 	c #010A03",
"E 	c #135F23",
"F 	c #29B646",
"G 	c #171717",
"H 	c #259B3F",
"I 	c #29C54A",
"J 	c #2AC74C",
"K 	c #26BA46",
"L 	c #116627",
"M 	c #282203",
"N 	c #831819",
"O 	c #E12C2D",
"P 	c #F02F30",
"Q 	c #F03031",
"R 	c #FF3233",
"S 	c #81041B",
"T 	c #55530B",
"U 	c #BEBF1A",
"V 	c #343506",
"W 	c #0E1212",
"X 	c #182E1C",
"Y 	c #06240C",
"Z 	c #24AD41",
"` 	c #2AC94D",
" .	c #28C44A",
"..	c #27B646",
"+.	c #255A31",
"@.	c #1A6F2D",
"#.	c #2EDC53",
"$.	c #1D8F35",
"%.	c #001108",
"&.	c #8B8912",
"*.	c #EDED21",
"=.	c #701415",
"-.	c #EB2B2E",
";.	c #EC2F2F",
">.	c #F53031",
",.	c #D9242B",
"'.	c #8B3019",
").	c #A2AC15",
"!.	c #FFFF28",
"~.	c #FFFF27",
"{.	c #DDDD20",
"].	c #383703",
"^.	c #00000D",
"/.	c #20953F",
"(.	c #29C746",
"_.	c #29C54B",
":.	c #28C54A",
"<.	c #0F1E12",
"[.	c #1E4728",
"}.	c #181602",
"|.	c #A3A417",
"1.	c #FFFF26",
"2.	c #FDFD24",
"3.	c #F4F423",
"4.	c #136F29",
"5.	c #192813",
"6.	c #33010A",
"7.	c #581111",
"8.	c #A79519",
"9.	c #E4EB1F",
"0.	c #716C00",
"a.	c #2F4577",
"b.	c #2E54D0",
"c.	c #2C4FC0",
"d.	c #225B7F",
"e.	c #1F9F2C",
"f.	c #2BD24A",
"g.	c #28C24A",
"h.	c #2AC94C",
"i.	c #24B042",
"j.	c #010F04",
"k.	c #050004",
"l.	c #2E2904",
"m.	c #F4F422",
"n.	c #CACA1D",
"o.	c #1D8F36",
"p.	c #23A940",
"q.	c #1B8832",
"r.	c #101C18",
"s.	c #353718",
"t.	c #C3C218",
"u.	c #E1E11F",
"v.	c #F6F622",
"w.	c #DEDE1B",
"x.	c #505426",
"y.	c #2043BF",
"z.	c #3762EF",
"A.	c #335CE3",
"B.	c #345DE4",
"C.	c #3661EE",
"D.	c #3453F3",
"E.	c #0C263B",
"F.	c #1E9C38",
"G.	c #1A8130",
"H.	c #0B3915",
"I.	c #2EDF54",
"J.	c #0F6026",
"K.	c #373A14",
"L.	c #EEED21",
"M.	c #F3F221",
"N.	c #8E8D14",
"O.	c #23A63F",
"P.	c #229F3B",
"Q.	c #187232",
"R.	c #1C338F",
"S.	c #182C76",
"T.	c #171910",
"U.	c #3C3A09",
"V.	c #242D40",
"W.	c #315EF8",
"X.	c #365FE9",
"Y.	c #345EE5",
"Z.	c #355EE4",
"`.	c #345DE7",
" +	c #3560EC",
".+	c #071C47",
"++	c #581016",
"@+	c #420B0C",
"#+	c #000501",
"$+	c #209B3A",
"%+	c #29C64A",
"&+	c #2AC74B",
"*+	c #1D953A",
"=+	c #292C1B",
"-+	c #D8D81F",
";+	c #EAE81F",
">+	c #2A3208",
",+	c #116527",
"'+	c #1B8532",
")+	c #22A03D",
"!+	c #1A822C",
"~+	c #1D397D",
"{+	c #2A4CBA",
"]+	c #2E55D0",
"^+	c #13245D",
"/+	c #2C2A23",
"(+	c #28292C",
"_+	c #26439D",
":+	c #2A4DC2",
"<+	c #3058DC",
"[+	c #2346AC",
"}+	c #15060B",
"|+	c #701312",
"1+	c #E32C2E",
"2+	c #9C2420",
"3+	c #1DAA3F",
"4+	c #1A8A30",
"5+	c #182718",
"6+	c #A8A41B",
"7+	c #000409",
"8+	c #1B8A35",
"9+	c #125B22",
"0+	c #156D23",
"a+	c #24AC3F",
"b+	c #0C242D",
"c+	c #2C50C5",
"d+	c #2949B5",
"e+	c #203D9D",
"f+	c #9A9CA1",
"g+	c #C2C2C1",
"h+	c #9F9E9C",
"i+	c #54565D",
"j+	c #38465B",
"k+	c #400607",
"l+	c #C52526",
"m+	c #DC2B2C",
"n+	c #D72A2B",
"o+	c #B82324",
"p+	c #181C13",
"q+	c #1B9133",
"r+	c #31E959",
"s+	c #04290C",
"t+	c #093B19",
"u+	c #1D8D35",
"v+	c #156927",
"w+	c #0E104D",
"x+	c #091E24",
"y+	c #000F00",
"z+	c #2C4BB6",
"A+	c #294CBB",
"B+	c #2443AC",
"C+	c #394054",
"D+	c #DDDDDD",
"E+	c #CBCBCB",
"F+	c #D5D5D5",
"G+	c #132625",
"H+	c #C72627",
"I+	c #130201",
"J+	c #151715",
"K+	c #21993A",
"L+	c #2AC84C",
"M+	c #22AC40",
"N+	c #142116",
"O+	c #474847",
"P+	c #15742B",
"Q+	c #227835",
"R+	c #2848B3",
"S+	c #2847B2",
"T+	c #1A3383",
"U+	c #121213",
"V+	c #152F7B",
"W+	c #3056D5",
"X+	c #000121",
"Y+	c #C2C3C2",
"Z+	c #CDCDCD",
"`+	c #D0D0D0",
" @	c #636E6D",
".@	c #780F10",
"+@	c #DD2B2C",
"@@	c #D1292A",
"#@	c #240606",
"$@	c #121613",
"%@	c #116724",
"&@	c #0C6620",
"*@	c #253128",
"=@	c #BDBBBD",
"-@	c #172A1B",
";@	c #4E7756",
">@	c #989A99",
",@	c #2340A0",
"'@	c #294AB6",
")@	c #2F55D0",
"!@	c #120F16",
"~@	c #4F2900",
"{@	c #1B1415",
"]@	c #081646",
"^@	c #64635F",
"/@	c #D4D4D4",
"(@	c #CECECE",
"_@	c #BCBCBC",
":@	c #240000",
"<@	c #DB2B2C",
"[@	c #D82A2B",
"}@	c #D2292A",
"|@	c #841819",
"1@	c #060C05",
"2@	c #150F14",
"3@	c #534C51",
"4@	c #676768",
"5@	c #434343",
"6@	c #BAB8BA",
"7@	c #747574",
"8@	c #2A4CBC",
"9@	c #294AB8",
"0@	c #1F347B",
"a@	c #9D5C0D",
"b@	c #B06711",
"c@	c #9A590E",
"d@	c #1F170D",
"e@	c #202B2C",
"f@	c #B7B7B7",
"g@	c #EFEFEF",
"h@	c #371A1A",
"i@	c #D12728",
"j@	c #CD2628",
"k@	c #250000",
"l@	c #167E2F",
"m@	c #1F9B3A",
"n@	c #404040",
"o@	c #BEBEBD",
"p@	c #767677",
"q@	c #505046",
"r@	c #BEBEBF",
"s@	c #656667",
"t@	c #1D3270",
"u@	c #213EA2",
"v@	c #1B3995",
"w@	c #734411",
"x@	c #BC6F14",
"y@	c #BA6D14",
"z@	c #8B4E0F",
"A@	c #7C1518",
"B@	c #160000",
"C@	c #564B4B",
"D@	c #666060",
"E@	c #8B191A",
"F@	c #001E08",
"G@	c #21A63E",
"H@	c #26B344",
"I@	c #27BD48",
"J@	c #060605",
"K@	c #6A6A6C",
"L@	c #656551",
"M@	c #868606",
"N@	c #8C8A84",
"O@	c #776147",
"P@	c #7C7E1B",
"Q@	c #00082D",
"R@	c #150A04",
"S@	c #DE8218",
"T@	c #B86D14",
"U@	c #9C5D10",
"V@	c #99211E",
"W@	c #C12627",
"X@	c #A71C1C",
"Y@	c #681014",
"Z@	c #125123",
"`@	c #25B143",
" #	c #25B043",
".#	c #0A3012",
"+#	c #7F7F2A",
"@#	c #CACA1A",
"##	c #423D0C",
"$#	c #8C571A",
"%#	c #90530A",
"&#	c #CCCC1B",
"*#	c #383C1F",
"=#	c #472A0A",
"-#	c #9E5B0C",
";#	c #AD6812",
">#	c #48170B",
",#	c #CD2728",
"'#	c #BE2526",
")#	c #BE2124",
"!#	c #2E3A1A",
"~#	c #28BE48",
"{#	c #187E30",
"]#	c #706D0D",
"^#	c #BBBB1A",
"/#	c #61660D",
"(#	c #653309",
"_#	c #A15F10",
":#	c #C3C31C",
"<#	c #CDCD1E",
"[#	c #BAB912",
"}#	c #3E3F5E",
"|#	c #76726E",
"1#	c #180600",
"2#	c #010400",
"3#	c #D12829",
"4#	c #BF2526",
"5#	c #C42628",
"6#	c #400004",
"7#	c #26C149",
"8#	c #26B144",
"9#	c #26B444",
"0#	c #25B042",
"a#	c #0A1D0A",
"b#	c #8E8C12",
"c#	c #70710F",
"d#	c #76560D",
"e#	c #6A3E0B",
"f#	c #A6A617",
"g#	c #C6C61C",
"h#	c #E1E11E",
"i#	c #6A6A48",
"j#	c #D5D5D7",
"k#	c #C3C4C4",
"l#	c #2F3838",
"m#	c #5D1011",
"n#	c #AD201E",
"o#	c #C52728",
"p#	c #7C0C15",
"q#	c #0B6E27",
"r#	c #26B745",
"s#	c #198733",
"t#	c #212506",
"u#	c #939314",
"v#	c #71710F",
"w#	c #B2B218",
"x#	c #AAAA2D",
"y#	c #BDBDC1",
"z#	c #CBCBCA",
"A#	c #212353",
"B#	c #300100",
"C#	c #D02526",
"D#	c #00280A",
"E#	c #002E16",
"F#	c #60630D",
"G#	c #DDDC1E",
"H#	c #DCDC1F",
"I#	c #73730F",
"J#	c #35350E",
"K#	c #A7A7A7",
"L#	c #C7C7C7",
"M#	c #E0E0E0",
"N#	c #171B28",
"O#	c #2748B5",
"P#	c #2446AD",
"Q#	c #001136",
"R#	c #161114",
"S#	c #928F11",
"T#	c #FCFD24",
"U#	c #E4E420",
"V#	c #E2E220",
"W#	c #C2C2C2",
"X#	c #8C8D91",
"Y#	c #1B3793",
"Z#	c #294AB7",
"`#	c #243666",
" $	c #CBCA18",
".$	c #E5E520",
"+$	c #E8E820",
"@$	c #9B9B15",
"#$	c #807E7A",
"$$	c #1D337A",
"%$	c #2A4AB7",
"&$	c #213B91",
"*$	c #AEAE19",
"=$	c #E6E621",
"-$	c #DDDD1F",
";$	c #777710",
">$	c #1C327D",
",$	c #284AB5",
"'$	c #1E3DA8",
")$	c #9CA028",
"!$	c #ECEC21",
"~$	c #B5B518",
"{$	c #2241AB",
"]$	c #2E3326",
"^$	c #D0D01B",
"                                                                ",
"                                . + @                           ",
"                            # $ % & & *                         ",
"                          = - % & & ; % >                       ",
"                      , ' ) ! ~ { ; % ] ^ /                     ",
"                  ( _ : < < [ } | 1 2 3 4 5 6 7                 ",
"                  8 9 0 < < < a b c d e f g < h i               ",
"                  d j k l < m n o p q r s t < < u v             ",
"        w x y   d d d z A B C D E m F G H I < J K L M           ",
"    N O P Q R S T U V d W X Y Z ` <  ...+.@.#.$.%.&.] *.        ",
"  =.-.;.>.,.'.).!.; ~.{.].^./.(._.t < l :.<.[.}.|.1.& 2.3.      ",
"  4.5.6.7.8.9.; & 2.% 0.a.b.c.d.e.f.g.h.i.j.k.l.~.& & % ; m.n.  ",
"  o.p.q.r.s.t.u.v.w.x.y.z.A.B.C.D.E.F.G.d H.I.J.K.L.; & ; M.N.  ",
"    O.P.Q.R.S.T.U.V.W.X.Y.Z.`. +.+++@+#+$+%+< &+*+=+-+% ;+>+,+  ",
"    '+)+!+~+{+]+^+/+(+_+:+<+[+}+|+1+2+3+[ < s s h.4+5+6+7+8+9+  ",
"      0+a+b+c+d+e+f+g+h+i+j+k+l+m+n+o+p+q+h.s s < r+s+t+u+v+    ",
"      w+x+y+z+A+B+C+D+E+F+G+R n+n+n+H+I+J+K+L+L+M+N+O+P+Q+      ",
"      R+S+T+U+V+W+X+Y+Z+`+ @.@+@n+n+@@#@d $@%@&@*@=@-@;@>@      ",
"      ,@'@)@!@~@{@]@^@/@(@_@:@<@[@}@|@1@d d 2@3@Z+4@5@6@7@      ",
"        8@9@0@a@b@c@d@e@f@g@h@i@j@k@l@m@d d n@o@p@q@r@s@        ",
"        t@u@v@w@x@y@z@A@B@C@D@E@F@G@H@I@d J@K@L@M@N@O@          ",
"          P@Q@R@S@T@U@V@W@X@Y@Z@i.`@ #I@.#d +#@###$#%#          ",
"          n.&#*#=#-#;#>#,#'#)#!#~# # #`@{#]#^#/#(#_#            ",
"          :#<#[#}#|#1#2#3#4#5#6#7#8#9#0#a#b#c#d#e#              ",
"          f#g#h#i#j#k#l#m#n#o#p#q#r#s#t#u#v#w#                  ",
"              f#x#y#Z+z#^.A#B#C#D#E#F#G#H#I#                    ",
"                J#K#L#M#N#O#P#Q#R#S#T#U#V#                      ",
"                      W#X#Y#Z#8@`# $.$.$+$@$                    ",
"                        #$$$%$'@&$*$=$> -$;$                    ",
"                            >$,$'$)$!$~$                        ",
"                                {$]$^$                          ",
"                                                                "};
