/* XPM */
static char * colors_xpm[] = {
"48 48 837 2",
"  	c None",
". 	c #734325",
"+ 	c #744426",
"@ 	c #734425",
"# 	c #794A2A",
"$ 	c #7F512F",
"% 	c #835632",
"& 	c #855935",
"* 	c #835733",
"= 	c #7F5230",
"- 	c #724325",
"; 	c #8A5D35",
"> 	c #B28C52",
", 	c #D1B06B",
"' 	c #E6CA7D",
") 	c #F2DB8B",
"! 	c #FAE695",
"~ 	c #FFEE9D",
"{ 	c #FAEB9D",
"] 	c #F3E39A",
"^ 	c #E5D491",
"/ 	c #CCB47B",
"( 	c #A68457",
"_ 	c #7B4D2D",
": 	c #734326",
"< 	c #845630",
"[ 	c #B68C4F",
"} 	c #E9C771",
"| 	c #FFE183",
"1 	c #FFE388",
"2 	c #FFE58C",
"3 	c #FFE78F",
"4 	c #FFEA94",
"5 	c #FFEC98",
"6 	c #FFEE9C",
"7 	c #FFF0A0",
"8 	c #EEE5AA",
"9 	c #B3B9C5",
"0 	c #8799D9",
"a 	c #93A2D1",
"b 	c #BFC1B4",
"c 	c #B79F6F",
"d 	c #815634",
"e 	c #6F4124",
"f 	c #885931",
"g 	c #C69B53",
"h 	c #F5CF70",
"i 	c #E3D46D",
"j 	c #65B132",
"k 	c #A7BB56",
"l 	c #FEE186",
"m 	c #FFE58A",
"n 	c #FFE78E",
"o 	c #FFE993",
"p 	c #FFEB97",
"q 	c #FEED9B",
"r 	c #BCBEBF",
"s 	c #798FF3",
"t 	c #B0BFFF",
"u 	c #DAE2FF",
"v 	c #D0D9FF",
"w 	c #93A7FC",
"x 	c #8699D5",
"y 	c #D8D3A3",
"z 	c #A38359",
"A 	c #744526",
"B 	c #714225",
"C 	c #794928",
"D 	c #B88A47",
"E 	c #F5CB68",
"F 	c #FFD871",
"G 	c #FCD873",
"H 	c #63B642",
"I 	c #88CF88",
"J 	c #79AD48",
"K 	c #F6DA81",
"L 	c #FFE489",
"M 	c #FFE68D",
"N 	c #FFE992",
"O 	c #FFEA95",
"P 	c #C8C4B5",
"Q 	c #7A94FD",
"R 	c #C9D7FF",
"S 	c #D0DDFF",
"T 	c #A1B5FF",
"U 	c #8E9ECD",
"V 	c #F5F4B5",
"W 	c #B3996B",
"X 	c #754627",
"Y 	c #704124",
"Z 	c #966634",
"` 	c #E8B95A",
" .	c #FFD368",
"..	c #FFD56C",
"+.	c #F7D46C",
"@.	c #78B73E",
"#.	c #B7E3B7",
"$.	c #D2EED2",
"%.	c #A8B866",
"&.	c #FCDF83",
"*.	c #FFE488",
"=.	c #FFE68C",
"-.	c #FFE890",
";.	c #8694D6",
">.	c #A7BEFF",
",.	c #AAC0FF",
"'.	c #889BD9",
").	c #EEEEB0",
"!.	c #FEFEBC",
"~.	c #B49A6B",
"{.	c #693D22",
"].	c #784827",
"^.	c #B3823E",
"/.	c #FAC95D",
"(.	c #FED062",
"_.	c #E5CB5C",
":.	c #9CBA42",
"<.	c #51AE31",
"[.	c #83CE82",
"}.	c #B8E4B8",
"|.	c #ABDFAB",
"1.	c #8FAF4E",
"2.	c #EBD979",
"3.	c #C9D16B",
"4.	c #C9CE6E",
"5.	c #FDE58E",
"6.	c #C4BEA7",
"7.	c #819FF8",
"8.	c #84A5FF",
"9.	c #82A2FF",
"0.	c #9BA8C1",
"a.	c #F6F5B5",
"b.	c #FFFFBD",
"c.	c #F9F7B6",
"d.	c #97744C",
"e.	c #7A4928",
"f.	c #CB9844",
"g.	c #FECB59",
"h.	c #F0CA58",
"i.	c #6BAE2A",
"j.	c #3BAC31",
"k.	c #61C161",
"l.	c #89D289",
"m.	c #94D794",
"n.	c #98D898",
"o.	c #97D897",
"p.	c #60BD5A",
"q.	c #81C875",
"r.	c #62C061",
"s.	c #45A226",
"t.	c #EFD885",
"u.	c #FDE995",
"v.	c #B4B5AF",
"w.	c #5F88FB",
"x.	c #5E89FF",
"y.	c #5B85FF",
"z.	c #98A6C2",
"A.	c #F9F8B6",
"B.	c #E5DDA1",
"C.	c #6A3E23",
"D.	c #764525",
"E.	c #7F4D28",
"F.	c #DDA746",
"G.	c #FFC954",
"H.	c #FFCB58",
"I.	c #74AE29",
"J.	c #31AD31",
"K.	c #68C668",
"L.	c #6CC86C",
"M.	c #6FC96F",
"N.	c #73CA73",
"O.	c #77CC77",
"P.	c #7BCD7B",
"Q.	c #7ECF7E",
"R.	c #81CF81",
"S.	c #56B64B",
"T.	c #ADB55D",
"U.	c #FAE28A",
"V.	c #FFE891",
"W.	c #5178F3",
"X.	c #4173FF",
"Y.	c #4A75F7",
"Z.	c #B0BABC",
"`.	c #FCFCBA",
" +	c #A48358",
".+	c #754525",
"++	c #794825",
"@+	c #835229",
"#+	c #DAA141",
"$+	c #FFC64F",
"%+	c #FFC853",
"&+	c #FFCA57",
"*+	c #95AF35",
"=+	c #26A722",
"-+	c #47BA47",
";+	c #4CBB4C",
">+	c #4FBD4F",
",+	c #53BE53",
"'+	c #57C057",
")+	c #5AC15A",
"!+	c #5DC25D",
"~+	c #50B13F",
"{+	c #AEB55B",
"]+	c #F3D982",
"^+	c #FFE790",
"/+	c #F8E596",
"(+	c #869BD6",
"_+	c #4072FE",
":+	c #3F72FF",
"<+	c #486FF7",
"[+	c #DFDFAA",
"}+	c #D6C78F",
"|+	c #7B4A27",
"1+	c #5D371D",
"2+	c #835027",
"3+	c #DAA03D",
"4+	c #FFC34A",
"5+	c #FFC54E",
"6+	c #FFC752",
"7+	c #FFC956",
"8+	c #F7C757",
"9+	c #84A731",
"0+	c #1DA419",
"a+	c #2CB02C",
"b+	c #2FB12F",
"c+	c #33B233",
"d+	c #37B437",
"e+	c #3BB53B",
"f+	c #29AB29",
"g+	c #A8B053",
"h+	c #F4D77D",
"i+	c #FFE386",
"j+	c #FFE58B",
"k+	c #9BA3C8",
"l+	c #3F70FF",
"m+	c #436FFB",
"n+	c #5378EF",
"o+	c #7B90D0",
"p+	c #E2E1A6",
"q+	c #F2EEAF",
"r+	c #875932",
"s+	c #6D4121",
"t+	c #814E27",
"u+	c #D39738",
"v+	c #FFC045",
"w+	c #FFC248",
"x+	c #FFC54D",
"y+	c #FFC751",
"z+	c #FFCB59",
"A+	c #FACA5B",
"B+	c #5FA424",
"C+	c #0AA20A",
"D+	c #0EA40E",
"E+	c #12A612",
"F+	c #15A715",
"G+	c #19A919",
"H+	c #19A415",
"I+	c #D9C16B",
"J+	c #FFE081",
"K+	c #FFE285",
"L+	c #AAAAB4",
"M+	c #3F6BFE",
"N+	c #4273FD",
"O+	c #95A0B8",
"P+	c #DCD598",
"Q+	c #E5E0A0",
"R+	c #EEEBAA",
"S+	c #FEFCB9",
"T+	c #997044",
"U+	c #794824",
"V+	c #BC8131",
"W+	c #FDBD3F",
"X+	c #FFC043",
"Y+	c #FFC247",
"Z+	c #FFC44C",
"`+	c #FFC650",
" @	c #FFC854",
".@	c #FFCA58",
"+@	c #FFCC5C",
"@@	c #69AC27",
"#@	c #009F00",
"$@	c #019F01",
"%@	c #02A002",
"&@	c #03A003",
"*@	c #7DAD3D",
"=@	c #F9DA7D",
"-@	c #FFE184",
";@	c #F8E28E",
">@	c #9097BC",
",@	c #446CF9",
"'@	c #3F71FF",
")@	c #4575FA",
"!@	c #BEBFA2",
"~@	c #FFF6AD",
"{@	c #FFF9B1",
"]@	c #FFFBB5",
"^@	c #FFFDB9",
"/@	c #FFFFBC",
"(@	c #AB8958",
"_@	c #824F27",
":@	c #845126",
"<@	c #A26A2B",
"[@	c #F9A233",
"}@	c #F54617",
"|@	c #EFAE3C",
"1@	c #FFC146",
"2@	c #FFC44B",
"3@	c #FFC64E",
"4@	c #FFC852",
"5@	c #F1C955",
"6@	c #25A10E",
"7@	c #009C00",
"8@	c #009D00",
"9@	c #119F08",
"0@	c #C2BF61",
"a@	c #FFE387",
"b@	c #F9E390",
"c@	c #BAB5A3",
"d@	c #637BDC",
"e@	c #3E68FF",
"f@	c #3E6BFF",
"g@	c #AFB2A8",
"h@	c #FFF6AC",
"i@	c #FFF8AF",
"j@	c #FFFAB3",
"k@	c #FFFCB8",
"l@	c #FFFEBB",
"m@	c #B79864",
"n@	c #865227",
"o@	c #915B28",
"p@	c #ECA833",
"q@	c #FC671F",
"r@	c #FE7C7B",
"s@	c #E18D39",
"t@	c #FEC045",
"u@	c #FFC349",
"v@	c #FFC955",
"w@	c #DCC24D",
"x@	c #019800",
"y@	c #019B00",
"z@	c #339C14",
"A@	c #7CA433",
"B@	c #6EA42F",
"C@	c #259C10",
"D@	c #009900",
"E@	c #80AB40",
"F@	c #F9DB7F",
"G@	c #FFE286",
"H@	c #FFE48A",
"I@	c #FFE68E",
"J@	c #FFEA96",
"K@	c #F2E192",
"L@	c #C9C29B",
"M@	c #AEAEA9",
"N@	c #D6CE97",
"O@	c #FFF5AA",
"P@	c #FFF7AE",
"Q@	c #FFF9B2",
"R@	c #FFFCB6",
"S@	c #B99A64",
"T@	c #895527",
"U@	c #8B5626",
"V@	c #C8882C",
"W@	c #FFB734",
"X@	c #FA7330",
"Y@	c #FFF2F2",
"Z@	c #F27659",
"`@	c #F28A31",
" #	c #FA792E",
".#	c #F95527",
"+#	c #F55121",
"@#	c #F1B74D",
"##	c #F2C554",
"$#	c #7AA32C",
"%#	c #8CA435",
"&#	c #D9B756",
"*#	c #F7CD65",
"=#	c #FAD16A",
"-#	c #E2C664",
";#	c #A1B149",
">#	c #82A93D",
",#	c #CEBD65",
"'#	c #FEDE80",
")#	c #FFEC99",
"!#	c #FDEEA0",
"~#	c #FEF2A4",
"{#	c #FFF5A9",
"]#	c #FFF7AD",
"^#	c #B99962",
"/#	c #8C5727",
"(#	c #9F6628",
"_#	c #FBB22E",
":#	c #FFB733",
"<#	c #FA7738",
"[#	c #FFBFBF",
"}#	c #FFA1A1",
"|#	c #FF6464",
"1#	c #FF8888",
"2#	c #FF9C9C",
"3#	c #FF3333",
"4#	c #E46E2E",
"5#	c #FCC756",
"6#	c #FAC859",
"7#	c #F9C95D",
"8#	c #FFD063",
"9#	c #FFD267",
"0#	c #FFD56B",
"a#	c #FFD76F",
"b#	c #FED873",
"c#	c #FAD775",
"d#	c #FEDC7B",
"e#	c #FFDF7F",
"f#	c #FFF2A4",
"g#	c #FFF4A8",
"h#	c #FFF8B0",
"i#	c #FFFAB4",
"j#	c #FFFEBC",
"k#	c #B08A53",
"l#	c #8E5927",
"m#	c #925C27",
"n#	c #D79229",
"o#	c #FCB22D",
"p#	c #FDB331",
"q#	c #FC532B",
"r#	c #FF8484",
"s#	c #FF5050",
"t#	c #E45523",
"u#	c #F9C454",
"v#	c #FFCB5A",
"w#	c #FFCE5E",
"x#	c #FFD062",
"y#	c #FFD266",
"z#	c #FFD46A",
"A#	c #FFD66E",
"B#	c #FFD872",
"C#	c #FFDA76",
"D#	c #FFDC7A",
"E#	c #FFDE7E",
"F#	c #FFE182",
"G#	c #FFEB96",
"H#	c #FFED9B",
"I#	c #FFEF9F",
"J#	c #FFF1A2",
"K#	c #FFF4A7",
"L#	c #FFF6AB",
"M#	c #FFF7AF",
"N#	c #FFFCB7",
"O#	c #A57942",
"P#	c #885524",
"Q#	c #A86C27",
"R#	c #F65113",
"S#	c #FA3721",
"T#	c #FA3F28",
"U#	c #FF3634",
"V#	c #FF4A4A",
"W#	c #FF2D2D",
"X#	c #E26028",
"Y#	c #F9C453",
"Z#	c #FFCD5D",
"`#	c #FFCF61",
" $	c #FFD165",
".$	c #FFD369",
"+$	c #FFD66D",
"@$	c #FFDA75",
"#$	c #FFDC79",
"$$	c #FFDE7D",
"%$	c #FFED99",
"&$	c #FFEF9E",
"*$	c #FFF3A6",
"=$	c #FFFBB6",
"-$	c #FFFDBA",
";$	c #F6F2B0",
">$	c #9E6B34",
",$	c #7E4F21",
"'$	c #965F27",
")$	c #D38E26",
"!$	c #F26315",
"~$	c #FF0D0D",
"{$	c #FF1313",
"]$	c #FF0909",
"^$	c #DC8837",
"/$	c #FCC653",
"($	c #FFCD5C",
"_$	c #FFCF60",
":$	c #FFD164",
"<$	c #FFD770",
"[$	c #FFD974",
"}$	c #FFDB78",
"|$	c #FFDD7C",
"1$	c #FFE080",
"2$	c #FFF2A5",
"3$	c #FFFBB4",
"4$	c #E9DC9C",
"5$	c #9A632B",
"6$	c #6F461D",
"7$	c #A36927",
"8$	c #F6A723",
"9$	c #FAAD25",
"0$	c #EA5D16",
"a$	c #FC0702",
"b$	c #FF0000",
"c$	c #F3240D",
"d$	c #ED3A15",
"e$	c #EE3314",
"f$	c #E2AF46",
"g$	c #FFCA56",
"h$	c #FFCC5B",
"i$	c #FFCE5F",
"j$	c #FFD46B",
"k$	c #FFD973",
"l$	c #FFDB77",
"m$	c #FFDC7B",
"n$	c #FFF2A3",
"o$	c #D2B879",
"p$	c #9B6328",
"q$	c #533515",
"r$	c #BF7E26",
"s$	c #FFAE21",
"t$	c #FFB025",
"u$	c #FBAF28",
"v$	c #EC6719",
"w$	c #FE0200",
"x$	c #EE3513",
"y$	c #EAAF3F",
"z$	c #EBB142",
"A$	c #FBC24C",
"B$	c #FFE082",
"C$	c #FFED9A",
"D$	c #BA9051",
"E$	c #996227",
"F$	c #9E6527",
"G$	c #DD9424",
"H$	c #FFAF24",
"I$	c #FFB228",
"J$	c #FAA829",
"K$	c #FA1906",
"L$	c #FB0D05",
"M$	c #E59C37",
"N$	c #FFC54C",
"O$	c #FFD771",
"P$	c #FFF1A1",
"Q$	c #FFF3A5",
"R$	c #F9F2AC",
"S$	c #A46C2C",
"T$	c #8E5B23",
"U$	c #A36928",
"V$	c #F7A823",
"W$	c #FFAF23",
"X$	c #FFB127",
"Y$	c #FEA828",
"Z$	c #FC1806",
"`$	c #F1290C",
" %	c #DF7524",
".%	c #FC0903",
"+%	c #E36925",
"@%	c #FCBF46",
"#%	c #FFDF80",
"$%	c #DCC27D",
"%%	c #A46A28",
"&%	c #6F471A",
"*%	c #B4792E",
"=%	c #FFAE22",
"-%	c #FD9E24",
";%	c #FD0602",
">%	c #DC7522",
",%	c #F8B638",
"'%	c #EF6320",
")%	c #E06925",
"!%	c #F8BC44",
"~%	c #FFCC5A",
"{%	c #FFDF7E",
"]%	c #FFF1A3",
"^%	c #FFF3A7",
"/%	c #FDF5AC",
"(%	c #BE904A",
"_%	c #A56B27",
":%	c #3D280F",
"<%	c #C58B37",
"[%	c #FFB024",
"}%	c #FA9822",
"|%	c #FF0100",
"1%	c #F32109",
"2%	c #E29E2D",
"3%	c #FFBA38",
"4%	c #F9B83B",
"5%	c #EBB03C",
"6%	c #FEC044",
"7%	c #FFE892",
"8%	c #EFDD94",
"9%	c #AC712C",
"0%	c #915D23",
"a%	c #A66C27",
"b%	c #D3993B",
"c%	c #FBAA26",
"d%	c #E85A15",
"e%	c #DA7F21",
"f%	c #F8B232",
"g%	c #FFB937",
"h%	c #FFBC3B",
"i%	c #FFBE3F",
"j%	c #FFE284",
"k%	c #FFF4A9",
"l%	c #CCA35A",
"m%	c #AE7129",
"n%	c #603E16",
"o%	c #A86E27",
"p%	c #DCA544",
"q%	c #FFB126",
"r%	c #FBB029",
"s%	c #FBB22D",
"t%	c #FFB732",
"u%	c #FFB936",
"v%	c #FFBB3A",
"w%	c #FFBD3E",
"x%	c #FFBF42",
"y%	c #FFC44A",
"z%	c #FFD66F",
"A%	c #FFD873",
"B%	c #FFDD7B",
"C%	c #FFF09F",
"D%	c #F2DE92",
"E%	c #B57B30",
"F%	c #A66D26",
"G%	c #AB7027",
"H%	c #DFAC4F",
"I%	c #FFB229",
"J%	c #FFB42D",
"K%	c #FFB631",
"L%	c #FFB835",
"M%	c #FFBB39",
"N%	c #FFBD3D",
"O%	c #FFBF41",
"P%	c #FFCD5E",
"Q%	c #D1A658",
"R%	c #B47629",
"S%	c #6F4919",
"T%	c #AE7327",
"U%	c #E1B258",
"V%	c #FFAF22",
"W%	c #FFB42C",
"X%	c #FFB630",
"Y%	c #FFB834",
"Z%	c #FFC750",
"`%	c #FFD56D",
" &	c #FFD975",
".&	c #FFDB79",
"+&	c #F0D787",
"@&	c #B77A2A",
"#&	c #A96F26",
"$&	c #B07427",
"%&	c #DFB259",
"&&	c #FFB52F",
"*&	c #FFB32B",
"=&	c #FCB737",
"-&	c #E3AA45",
";&	c #C9913C",
">&	c #C48935",
",&	c #D8A64D",
"'&	c #F8D476",
")&	c #FCE895",
"!&	c #CA9644",
"~&	c #B97A29",
"{&	c #6C4717",
"]&	c #AF7426",
"^&	c #D9A851",
"/&	c #FFB32A",
"(&	c #FEB531",
"_&	c #D2902D",
":&	c #B97B28",
"<&	c #84571C",
"[&	c #513511",
"}&	c #784F1A",
"|&	c #C7903B",
"1&	c #FED065",
"2&	c #DDB059",
"3&	c #BD7D29",
"4&	c #A06A23",
"5&	c #CF9841",
"6&	c #DF9A2D",
"7&	c #B67928",
"8&	c #48300F",
"9&	c #8F5F1F",
"0&	c #E7AD45",
"a&	c #FEE58C",
"b&	c #DEAE55",
"c&	c #C1812B",
"d&	c #36230B",
"e&	c #C4852E",
"f&	c #FDDF82",
"g&	c #F9AE2B",
"h&	c #C7862A",
"i&	c #624115",
"j&	c #D89936",
"k&	c #FBDC80",
"l&	c #FADB81",
"m&	c #FCE085",
"n&	c #F8D87E",
"o&	c #D6A148",
"p&	c #C3822A",
"q&	c #B47827",
"r&	c #4C3210",
"s&	c #BF7F28",
"t&	c #EFCC75",
"u&	c #ECA32A",
"v&	c #AB7224",
"w&	c #D49433",
"x&	c #FBCC61",
"y&	c #DEAD51",
"z&	c #CD9137",
"A&	c #CA8B31",
"B&	c #CF9339",
"C&	c #DAA64C",
"D&	c #E9C167",
"E&	c #F8DA81",
"F&	c #FDE38A",
"G&	c #F3D077",
"H&	c #E1B257",
"I&	c #CC8D33",
"J&	c #C6842A",
"K&	c #AA7124",
"L&	c #36240B",
"M&	c #AF7524",
"N&	c #DBA74D",
"O&	c #FEE48A",
"P&	c #FFB52E",
"Q&	c #E49C29",
"R&	c #7A5119",
"S&	c #DA9A34",
"T&	c #FAC352",
"U&	c #D5993A",
"V&	c #BE7F28",
"W&	c #744D18",
"X&	c #2D1D09",
"Y&	c #583A12",
"Z&	c #885B1C",
"`&	c #AD7424",
" *	c #C5872D",
".*	c #CA882B",
"+*	c #C9872A",
"@*	c #C38329",
"#*	c #AC7324",
"$*	c #724D18",
"%*	c #CC8B2D",
"&*	c #F5D984",
"**	c #E69D28",
"=*	c #614114",
"-*	c #CA8729",
";*	c #E7A73A",
">*	c #FEC650",
",*	c #DC9C37",
"'*	c #BA7C26",
")*	c #3B270C",
"!*	c #533711",
"~*	c #523710",
"{*	c #281B08",
"]*	c #B67A25",
"^*	c #DCA649",
"/*	c #FEEE9D",
"(*	c #EDA227",
"_*	c #7C5319",
":*	c #D08D2B",
"<*	c #F9BB43",
"[*	c #F1B443",
"}*	c #C98729",
"|*	c #4E340F",
"1*	c #CC8A29",
"2*	c #E9C067",
"3*	c #FBAD26",
"4*	c #C18325",
"5*	c #D18C2A",
"6*	c #D28E2A",
"7*	c #E9A736",
"8*	c #FEC249",
"9*	c #DE9C33",
"0*	c #8F611C",
"a*	c #9A681F",
"b*	c #D4912D",
"c*	c #F0CF79",
"d*	c #F0A629",
"e*	c #D28E29",
"f*	c #D38F2A",
"g*	c #D4902A",
"h*	c #D6922B",
"i*	c #E7A433",
"j*	c #FEBD40",
"k*	c #F8BA43",
"l*	c #D38F2B",
"m*	c #A87221",
"n*	c #D9952E",
"o*	c #ECC56C",
"p*	c #FEF5AA",
"q*	c #F7AC2B",
"r*	c #ECA42D",
"s*	c #EBA42F",
"t*	c #F7B135",
"u*	c #FFBB3B",
"v*	c #FFC044",
"w*	c #EAA838",
"x*	c #AD7522",
"y*	c #A57020",
"z*	c #D9932B",
"A*	c #E4AC49",
"B*	c #F8E394",
"C*	c #FFBC3D",
"D*	c #FFC145",
"E*	c #F8D06F",
"F*	c #DD9A31",
"G*	c #734E16",
"H*	c #865B19",
"I*	c #D28F29",
"J*	c #DF9A30",
"K*	c #E7B351",
"L*	c #F3D784",
"M*	c #FCF0A6",
"N*	c #FEF7B0",
"O*	c #FCED9F",
"P*	c #F2D27C",
"Q*	c #E1A037",
"R*	c #CA8927",
"S*	c #A26E1F",
"T*	c #D8932A",
"U*	c #DE972B",
"V*	c #E09C33",
"W*	c #E4AA46",
"X*	c #E8B657",
"Y*	c #E7B353",
"Z*	c #E1A138",
"`*	c #D69129",
" =	c #5F4214",
".=	c #815819",
"+=	c #B27922",
"@=	c #D9942A",
"#=	c #DD962B",
"$=	c #CB8A27",
"%=	c #A06D1F",
"&=	c #34230A",
"*=	c #33230A",
"                                                      . + + + +                                 ",
"                                              @ + + # $ % & * = # + + -                         ",
"                                        . + + ; > , ' ) ! ~ { ] ^ / ( _ + -                     ",
"                                    : + < [ } | 1 2 3 4 5 6 7 8 9 0 a b c d + e                 ",
"                                . + f g h i j k l m n o p q r s t u v w x y z A B               ",
"                              : C D E F G H I J K L M N O P Q R S S S S T U V W X Y             ",
"                            + Z `  ...+.@.#.$.%.&.*.=.-.4 ;.>.,.,.,.,.,.,.'.).!.~.+ {.          ",
"                        . ].^./.(._.:.<.[.}.|.1.2.3.4.5.o 6.7.8.8.8.8.8.9.0.a.b.c.d.:           ",
"                      . e.f.g.h.i.j.k.l.m.n.o.p.q.r.s.t.N u.v.w.x.x.x.x.y.z.A.b.b.B.X C.        ",
"                    D.E.F.G.H.I.J.K.L.M.N.O.P.Q.R.S.T.U.V.O ] W.X.X.X.X.X.Y.Z.`.b.b. +.+        ",
"                  ++@+#+$+%+&+*+=+-+;+>+,+'+)+!+~+{+]+2 ^+/+(+_+:+:+:+:+:+:+<+[+b.b.}+|+1+      ",
"                  2+3+4+5+6+7+8+9+0+a+b+c+d+e+f+g+h+i+j+n k+:+:+:+:+:+l+m+n+o+p+b.b.q+r+s+      ",
"                t+u+v+w+x+y+G.z+A+B+C+D+E+F+G+H+I+J+K+L M L+M+:+:+:+N+O+P+Q+R+S+b.b.b.T+U+      ",
"              2+V+W+X+Y+Z+`+ @.@+@@@#@#@$@$@%@&@*@=@-@*.=.;@>@,@'@:+)@!@~@{@]@^@/@b.b.(@_@      ",
"            :@<@[@}@|@1@2@3@4@&+5@6@#@#@7@8@#@#@9@0@| a@j+3 b@c@d@e@f@g@h@i@j@k@l@b.b.m@n@      ",
"            o@p@q@r@s@t@u@x+y+v@w@x@y@z@A@B@C@y@D@E@F@G@H@I@N J@K@L@M@N@O@P@Q@R@l@b.b.S@T@      ",
"          U@V@W@X@Y@Z@`@ #.#+#@###$#%#&#*#=#-#;#>#,#'#K+L M V.O )#~ !#~#{#]#{@]@^@b.b.^#/#      ",
"          (#_#:#<#[#}#|#1#2#3#4#5#6#7#8#9#0#a#b#c#d#e#-@a@2 -.4 5 6 7 f#g#h@h#i#k@j#b.k#l#      ",
"        m#n#o#p#q#r#r#r#r#r#s#t#u#v#w#x#y#z#A#B#C#D#E#F#a@m 3 o G#H#I#J#K#L#M#j@N#l@b.O#P#      ",
"        Q#R#S#T#U#V#V#V#V#V#W#X#Y#z+Z#`# $.$+$F @$#$$$J+K+L M V.O %$&$J#*$O@P@Q@=$-$;$>$,$      ",
"      '$)$!$~${${${${${${${$]$^$/$.@($_$:$ ...<$[$}$|$1$-@1 =.-.4 )#6 7 2$g#h@{@3$^@4$5$6$      ",
"      7$8$9$0$a$b$b$b$b$c$d$e$f$%+g$h$i$x#9#j$A#k$l$m$e#| a@j+3 o p H#I#n$K#L#h#i#N#o$p$q$      ",
"      r$s$t$u$v$w$b$b$b$x$y$z$A$y+v@z+Z#`#y#z#A#B#C#D#E#B$G@H@n N G#C$&$J#*$O@P@Q@R@D$E$        ",
"    F$G$s$H$I$J$K$b$b$b$L$M$w+N$`+ @H.($_$ $ ...O$[$}$$$1$K+L M V.O )#~ P$Q${#]#{@R$S$T$        ",
"    U$V$s$W$X$Y$Z$b$`$ %.%+%@%2@$+%+&+h$i$8#9#j$a#k$l$|$#%| 1 2 3 4 5 6 7 f#g#h@h#$%%%&%        ",
"    *%s$s$=%t$-%;%w$>%,%'%)%!%4+5+6+7+~%w#x#y#z#A#B#C#D#{%F#i+m n o p H#I#]%^%L#/%(%_%:%        ",
"    <%s$s$s$[%}%|%1%2%3%4%5%6%u@x+y+v@z+Z#`# $.$+$F @$#$$$J+K+L M 7%O )#&$P$Q$O@8%9%0%          ",
"  a%b%s$s$s$W$c%d%e%f%g%h%i%X+w+Z+$+ @.@h$_$:$ ...<$[$}$|$#%j%*.2 -.4 5 6 7 f#k%l%m%n%          ",
"  o%p%s$s$s$=%q%r%s%t%u%v%w%x%1@y%3@4@g$~%i$8#9#j$z%A%l$B%e#| a@j+3 o p H#C%n$D%E%F%            ",
"  G%H%s$s$s$=%t$I%J%K%L%M%N%O%1@4+x+6+v@z+P%`# $z#+$F C#D#E#B$G@H@n N G#C$&$J#Q%R%S%            ",
"  T%U%V%s$s$s$H$X$W%X%Y%3%i%_$}$D#9#Z%G..@($_$:$ .`%<$ &.&|$J+K+*.M V.O )#~ +&@&#&              ",
"  $&%&&&s$s$s$W$q%*&&&:#=&-&;&>&,&'&h$%+&+h$i$8#9#0#a#k$l$B%e#-@a@2 ^+4 5 )&!&~&{&              ",
"  ]&^&1@s$s$s$=%t$/&J%(&_&:&<&[&}&|&1&6+7+~%w#x#y#z#A#B#C#D#e#F#i+j+n N 4 2&3&4&                ",
"    5&y#s$s$s$s$H$I$W%6&7&8&      9&0&y+G.z+Z#`#9#<$[$ &@$#$$$J+K+L M a&b&c&:&d&                ",
"    e&f&W%s$s$s$W$X$g&h&i&          j&`+ @.@($0#k&l&m&L a@| J+| G@L n&o&p&q&r&                  ",
"    s&t&%+s$s$s$=%q%u&v&            w&3@4@&+x&y&z&A&B&C&D&E&I@F&G&H&I&J&K&L&                    ",
"    M&N&O&P&s$s$s$t$Q&R&            S&x+y+T&U&V&W&L&X&Y&Z&`& *.*+*@*#*$*                        ",
"      %*&*<$V%s$s$H$**=*          -*;*Z+>*,*'*)*              !*~*{*                            ",
"      ]*^*/*.@s$s$W$(*_*          :*<*2@[*}*|*                                                  ",
"        1*2*J#+@W$=%3*4*      5*6*7*1@8*9*0*                                                    ",
"        a*b*c*2$@$*&[%d*e*f*g*h*i*j*v+k*l*                                                      ",
"          m*n*o*p*)#z+W%q*r*s*t*u*i%v*w*x*                                                      ",
"            y*z*A*B*h#*$}$&+1@C*D*Z#E*F*G*                                                      ",
"              H*I*J*K*L*M*N*P@K#O*P*Q*R*                                                        ",
"                  S*T*U*V*W*X*Y*Z*U*`* =                                                        ",
"                      .=+=R*@=#=$=%=&=                                                          ",
"                              *=                                                                ",
"                                                                                                "};
