/* XPM */
static char * connect_xpm[] = {
"48 48 560 2",
"  	c None",
". 	c #898989",
"+ 	c #BCBCBC",
"@ 	c #CECECE",
"# 	c #D0D0D0",
"$ 	c #CFCFCF",
"% 	c #CDCDCD",
"& 	c #CCCCCC",
"* 	c #CBCBCB",
"= 	c #CACACA",
"- 	c #C9C9C9",
"; 	c #C2C2C2",
"> 	c #A0A0A0",
", 	c #6D6D6D",
"' 	c #9A9A9A",
") 	c #EEEEEE",
"! 	c #FFFFFF",
"~ 	c #FEFEFE",
"{ 	c #FCFCFC",
"] 	c #F2F2F2",
"^ 	c #C1C1C1",
"/ 	c #656565",
"( 	c #767676",
"_ 	c #E3E3E3",
": 	c #FDFDFD",
"< 	c #F0F0F0",
"[ 	c #9E9E9E",
"} 	c #838383",
"| 	c #F8F8F8",
"1 	c #F7F7F7",
"2 	c #F6F6F6",
"3 	c #FAFAFA",
"4 	c #FBFBFB",
"5 	c #B9B9B9",
"6 	c #828282",
"7 	c #808080",
"8 	c #787878",
"9 	c #8F8F8F",
"0 	c #A8A8A8",
"a 	c #A2A2A2",
"b 	c #7A7A7A",
"c 	c #D4D4D4",
"d 	c #353535",
"e 	c #C6C6C6",
"f 	c #1D1D1D",
"g 	c #161616",
"h 	c #7F7F7F",
"i 	c #8E8E8E",
"j 	c #494949",
"k 	c #010101",
"l 	c #AFAFAF",
"m 	c #F9F9F9",
"n 	c #BDBDBD",
"o 	c #858585",
"p 	c #C8C8C8",
"q 	c #1E1E1E",
"r 	c #5E5E5E",
"s 	c #848484",
"t 	c #818181",
"u 	c #1C1C1C",
"v 	c #F5F5F5",
"w 	c #BEBEBE",
"x 	c #363636",
"y 	c #878787",
"z 	c #343434",
"A 	c #4F4F4F",
"B 	c #F3F3F3",
"C 	c #373737",
"D 	c #6E6E6E",
"E 	c #B4B4B4",
"F 	c #EFEFEF",
"G 	c #BFBFBF",
"H 	c #383838",
"I 	c #8B8B8B",
"J 	c #4D4D4D",
"K 	c #626262",
"L 	c #565656",
"M 	c #B3B3B3",
"N 	c #E6E6E6",
"O 	c #E1E1E1",
"P 	c #393939",
"Q 	c #8D8D8D",
"R 	c #414141",
"S 	c #575757",
"T 	c #4A4A4A",
"U 	c #B1B1B1",
"V 	c #E0E0E0",
"W 	c #DEDEDE",
"X 	c #3A3A3A",
"Y 	c #282828",
"Z 	c #484848",
"` 	c #303030",
" .	c #ADADAD",
"..	c #E2E2E2",
"+.	c #DDDDDD",
"@.	c #C0C0C0",
"#.	c #3C3C3C",
"$.	c #919191",
"%.	c #D2D2D2",
"&.	c #222222",
"*.	c #212121",
"=.	c #3F3F3F",
"-.	c #101010",
";.	c #DBDBDB",
">.	c #3D3D3D",
",.	c #939393",
"'.	c #D3D3D3",
").	c #030303",
"!.	c #252525",
"~.	c #232323",
"{.	c #ACACAC",
"].	c #DFDFDF",
"^.	c #DADADA",
"/.	c #959595",
"(.	c #1A1A1A",
"_.	c #272727",
":.	c #292929",
"<.	c #2A2A2A",
"[.	c #2B2B2B",
"}.	c #D9D9D9",
"|.	c #C3C3C3",
"1.	c #979797",
"2.	c #D6D6D6",
"3.	c #020202",
"4.	c #0C0C0C",
"5.	c #191919",
"6.	c #202020",
"7.	c #242424",
"8.	c #262626",
"9.	c #1F1F1F",
"0.	c #1B1B1B",
"a.	c #131313",
"b.	c #DCDCDC",
"c.	c #D7D7D7",
"d.	c #C4C4C4",
"e.	c #404040",
"f.	c #989898",
"g.	c #070707",
"h.	c #171717",
"i.	c #181818",
"j.	c #151515",
"k.	c #121212",
"l.	c #0E0E0E",
"m.	c #D5D5D5",
"n.	c #050505",
"o.	c #090909",
"p.	c #0B0B0B",
"q.	c #141414",
"r.	c #111111",
"s.	c #0A0A0A",
"t.	c #060606",
"u.	c #C5C5C5",
"v.	c #424242",
"w.	c #9C9C9C",
"x.	c #040404",
"y.	c #0D0D0D",
"z.	c #D8D8D8",
"A.	c #434343",
"B.	c #080808",
"C.	c #0F0F0F",
"D.	c #D1D1D1",
"E.	c #C7C7C7",
"F.	c #444444",
"G.	c #2D2D2D",
"H.	c #454545",
"I.	c #313131",
"J.	c #2F2F2F",
"K.	c #464646",
"L.	c #A4A4A4",
"M.	c #333333",
"N.	c #2C2C2C",
"O.	c #474747",
"P.	c #A6A6A6",
"Q.	c #2E2E2E",
"R.	c #3B3B3B",
"S.	c #3E3E3E",
"T.	c #A7A7A7",
"U.	c #323232",
"V.	c #372C2C",
"W.	c #422323",
"X.	c #441E1E",
"Y.	c #3B1C1C",
"Z.	c #291C1C",
"`.	c #1B1919",
" +	c #F1F1F1",
".+	c #3D3A3A",
"++	c #6F1E1E",
"@+	c #C40707",
"#+	c #E90101",
"$+	c #ED0101",
"%+	c #EA0101",
"&+	c #CD0303",
"*+	c #920909",
"=+	c #461010",
"-+	c #3E3C3C",
";+	c #AAAAAA",
">+	c #4B4B4B",
",+	c #A9A9A9",
"'+	c #4C4C4C",
")+	c #4E4E4E",
"!+	c #505050",
"~+	c #832929",
"{+	c #EF0202",
"]+	c #FF0802",
"^+	c #FF3507",
"/+	c #FF4E0C",
"(+	c #FF510E",
"_+	c #FF410E",
":+	c #FE2309",
"<+	c #C0302E",
"[+	c #D5D4D4",
"}+	c #ECECEC",
"|+	c #ABABAB",
"1+	c #525252",
"2+	c #535353",
"3+	c #555555",
"4+	c #545454",
"5+	c #603E3E",
"6+	c #ED7676",
"7+	c #FF5410",
"8+	c #FF802C",
"9+	c #FF8C3A",
"0+	c #FF8E3C",
"a+	c #FE8835",
"b+	c #CC7946",
"c+	c #D1CAC9",
"d+	c #9C9999",
"e+	c #B6B6B6",
"f+	c #B8B8B8",
"g+	c #BBBBBB",
"h+	c #C1BDBD",
"i+	c #BF7272",
"j+	c #FF7777",
"k+	c #FF2D0E",
"l+	c #FF9444",
"m+	c #FF9F4F",
"n+	c #FFA153",
"o+	c #FFA456",
"p+	c #CB9363",
"q+	c #CDCAC7",
"r+	c #9B6260",
"s+	c #A43C3B",
"t+	c #BFB5B5",
"u+	c #F4F4F4",
"v+	c #EDEDED",
"w+	c #EBEBEB",
"x+	c #EAEAEA",
"y+	c #E8E8E8",
"z+	c #E7E7E7",
"A+	c #E5E5E5",
"B+	c #E4E4E4",
"C+	c #CFA8A8",
"D+	c #E97070",
"E+	c #FF6D6D",
"F+	c #FF582B",
"G+	c #FFA051",
"H+	c #FFA354",
"I+	c #FEA558",
"J+	c #CB9464",
"K+	c #C7C7C6",
"L+	c #9C836D",
"M+	c #C8612A",
"N+	c #C91C0F",
"O+	c #AA3231",
"P+	c #C6BABA",
"Q+	c #5B5B5B",
"R+	c #757575",
"S+	c #9D9D9D",
"T+	c #C95858",
"U+	c #FD6767",
"V+	c #FF7878",
"W+	c #FF532B",
"X+	c #FFA355",
"Y+	c #FFA659",
"Z+	c #DD9B60",
"`+	c #BCB9B6",
" @	c #9B8671",
".@	c #C78F56",
"+@	c #CC8C4F",
"@@	c #CD6A31",
"#@	c #CE2213",
"$@	c #A44241",
"%@	c #D5CECE",
"&@	c #D71C1C",
"*@	c #FF4B4B",
"=@	c #FF9A9A",
"-@	c #FF3920",
";@	c #FFA759",
">@	c #FFAA5D",
",@	c #D19965",
"'@	c #BABABA",
")@	c #B2B2B2",
"!@	c #978572",
"~@	c #C89258",
"{@	c #D29A5C",
"]@	c #E2A664",
"^@	c #F3AE66",
"/@	c #E37E47",
"(@	c #B39493",
"_@	c #B7B7B7",
":@	c #E9E9E9",
"<@	c #D0ADAD",
"[@	c #ED0707",
"}@	c #FF1E1D",
"|@	c #FFB6B6",
"1@	c #FF2E26",
"2@	c #FF9C56",
"3@	c #FFAE61",
"4@	c #F9AE65",
"5@	c #AA9075",
"6@	c #9F9A95",
"7@	c #A38C73",
"8@	c #DEA464",
"9@	c #F4B46E",
"0@	c #FFBE74",
"a@	c #FFBF76",
"b@	c #E3B073",
"c@	c #B2ABA2",
"d@	c #606060",
"e@	c #655D5D",
"f@	c #B84747",
"g@	c #C04646",
"h@	c #645959",
"i@	c #5F5F5F",
"j@	c #8E3737",
"k@	c #F80706",
"l@	c #FF2523",
"m@	c #FFB7B6",
"n@	c #FF6360",
"o@	c #FF7044",
"p@	c #FFB165",
"q@	c #FFB469",
"r@	c #FCB66C",
"s@	c #F1B26E",
"t@	c #FBBA72",
"u@	c #FFBE75",
"v@	c #FFC077",
"w@	c #FFC279",
"x@	c #E5B376",
"y@	c #AFA8A0",
"z@	c #9C9494",
"A@	c #2A2626",
"B@	c #CB0000",
"C@	c #D20101",
"D@	c #A80303",
"E@	c #FD0D0B",
"F@	c #FF6563",
"G@	c #FFACAB",
"H@	c #FFA2A0",
"I@	c #FF4134",
"J@	c #FFAB65",
"K@	c #FFB86C",
"L@	c #FFBA70",
"M@	c #FFBD73",
"N@	c #FFC076",
"O@	c #FFC47B",
"P@	c #E5B578",
"Q@	c #ABA399",
"R@	c #A19592",
"S@	c #A6312C",
"T@	c #CF0000",
"U@	c #C70705",
"V@	c #FF1B18",
"W@	c #FF8785",
"X@	c #FF5450",
"Y@	c #FF8683",
"Z@	c #FF716C",
"`@	c #FF6D4D",
" #	c #FFB86F",
".#	c #FFC27A",
"+#	c #FFC57C",
"@#	c #F4BF7C",
"##	c #A9A197",
"$#	c #9D9A95",
"%#	c #B89263",
"&#	c #CA3725",
"*#	c #861310",
"=#	c #CC0A08",
"-#	c #FF2D2A",
";#	c #FF7A77",
">#	c #FF2721",
",#	c #FF3C36",
"'#	c #FFA19E",
")#	c #FF574D",
"!#	c #FF8B5E",
"~#	c #FFC57D",
"{#	c #FFC880",
"]#	c #E4B87C",
"^#	c #B8B6B3",
"/#	c #9B9791",
"(#	c #B7986C",
"_#	c #CDA66D",
":#	c #D25839",
"<#	c #B2251F",
"[#	c #CC0C0A",
"}#	c #FF3F3B",
"|#	c #FF4D49",
"1#	c #FF2A23",
"2#	c #FF3028",
"3#	c #FF554D",
"4#	c #FFA19C",
"5#	c #FF5649",
"6#	c #FF9664",
"7#	c #FFCA82",
"8#	c #FBCA84",
"9#	c #A79780",
"0#	c #93908B",
"a#	c #BB9E71",
"b#	c #E1B97B",
"c#	c #F1C784",
"d#	c #FC8A5C",
"e#	c #E2372E",
"f#	c #C20D0B",
"g#	c #FF433F",
"h#	c #FF3630",
"i#	c #FF2F27",
"j#	c #FF362D",
"k#	c #FF3C32",
"l#	c #FF665D",
"m#	c #FF9C96",
"n#	c #FF574C",
"o#	c #FF8259",
"p#	c #FFC680",
"q#	c #FFCC85",
"r#	c #FFCE88",
"s#	c #FECF8A",
"t#	c #E6C085",
"u#	c #EFC787",
"v#	c #FED38E",
"w#	c #FFD48F",
"x#	c #FF875C",
"y#	c #E54036",
"z#	c #D30101",
"A#	c #B40B09",
"B#	c #FD3D37",
"C#	c #FF2F28",
"D#	c #FF342C",
"E#	c #FF3A31",
"F#	c #FF4137",
"G#	c #FF483C",
"H#	c #FF695F",
"I#	c #FF9F98",
"J#	c #FF6458",
"K#	c #FF6045",
"L#	c #FFB074",
"M#	c #FFD08A",
"N#	c #FFD38D",
"O#	c #FFD48E",
"P#	c #FFD590",
"Q#	c #FFD691",
"R#	c #FFD792",
"S#	c #FF6146",
"T#	c #DC4439",
"U#	c #BD0000",
"V#	c #F3322C",
"W#	c #FF3129",
"X#	c #FF382F",
"Y#	c #FF3F35",
"Z#	c #FF463B",
"`#	c #FF4D40",
" $	c #FF5346",
".$	c #FF6557",
"+$	c #FF9C93",
"@$	c #FF897E",
"#$	c #FF5041",
"$$	c #FF6D4B",
"%$	c #FFB97C",
"&$	c #FFD690",
"*$	c #FFD893",
"=$	c #FFD994",
"-$	c #FF865C",
";$	c #FE5F4F",
">$	c #AE2A23",
",$	c #E90504",
"'$	c #D20907",
")$	c #CE1A17",
"!$	c #FF4338",
"~$	c #FF4A3E",
"{$	c #FF5244",
"]$	c #FF584A",
"^$	c #FF5F50",
"/$	c #FF6555",
"($	c #FF8375",
"_$	c #FFA59A",
":$	c #FF9386",
"<$	c #FF6457",
"[$	c #FF5F49",
"}$	c #FF7253",
"|$	c #FF5A46",
"1$	c #FF6C5A",
"2$	c #DB5245",
"3$	c #450303",
"4$	c #900202",
"5$	c #E0110E",
"6$	c #F01D18",
"7$	c #EA231E",
"8$	c #EB2A23",
"9$	c #EB2F28",
"0$	c #EB342C",
"a$	c #D92923",
"b$	c #EE2E27",
"c$	c #FF4035",
"d$	c #FF473C",
"e$	c #FF4E42",
"f$	c #FF5648",
"g$	c #FF5D4E",
"h$	c #FF6454",
"i$	c #FF6A59",
"j$	c #FF715F",
"k$	c #FF7865",
"l$	c #FF8876",
"m$	c #FF9B8A",
"n$	c #FFA292",
"o$	c #FFA190",
"p$	c #FF9682",
"q$	c #FA816C",
"r$	c #C34238",
"s$	c #4E0807",
"t$	c #510101",
"u$	c #850706",
"v$	c #940F0C",
"w$	c #94110F",
"x$	c #941410",
"y$	c #941612",
"z$	c #921512",
"A$	c #930B09",
"B$	c #ED362D",
"C$	c #FF5245",
"D$	c #FF594B",
"E$	c #FF6151",
"F$	c #FF6857",
"G$	c #FF6F5D",
"H$	c #FF7663",
"I$	c #FF7C68",
"J$	c #FF826E",
"K$	c #FF8872",
"L$	c #FF8C76",
"M$	c #F8846F",
"N$	c #D05144",
"O$	c #7E1915",
"P$	c #1C0000",
"Q$	c #610403",
"R$	c #BA221D",
"S$	c #E84036",
"T$	c #F95749",
"U$	c #FF7361",
"V$	c #FF7A66",
"W$	c #F87764",
"X$	c #EC6C5B",
"Y$	c #D05547",
"Z$	c #A1332A",
"`$	c #570605",
" %	c #410302",
".%	c #670D0B",
"+%	c #731915",
"@%	c #78211C",
"#%	c #78231E",
"$%	c #6E1915",
"%%	c #63100D",
"&%	c #3B0605",
"                                                                                                ",
"    . + @ # # # # # # # # # # $ $ $ $ $ $ $ $ $ $ $ $ $ $ @ @ % & & * * = - ; > ,               ",
"  ' ) ! ! ! ! ! ! ! ! ! ! ! ! ! ! ! ! ! ! ! ! ! ! ! ! ! ! ! ! ! ~ ~ ~ ~ ~ ~ { ] ^ /             ",
"( _ ! ! ! ! ! ! ! ! ! ! ! ! ! ! ! ! ! ! ! ! ! ! ! ! ! ! ~ ~ ~ ~ ~ ~ : : : : : : < [             ",
"} | ! ! { | | | | | | | | | | | | | | | | | | | | | | | 1 1 1 1 2 2 2 2 2 3 { 4 | 5             ",
"6 3 ! ! $ 7 8 9 0 0 0 0 0 0 0 0 0 0 0 0 0 0 0 0 0 0 0 0 0 0 0 0 0 0 a b 8 c 4 3 | + d           ",
"} 4 ! ! e f g h 9 9 9 9 9 9 9 9 9 9 9 9 9 9 9 9 9 9 9 9 9 9 9 9 9 9 i j k l m m 2 n d           ",
"o 4 ! ! p q r s s s s s s s s s s s s s s s s s s s s s s s s s s s s t u l | 1 v w x           ",
"y 4 ! ! - z b b b b b b b b b b b b b b b b b b b b b b b b b b b b b b A l 1 2 B w C           ",
". 4 ! ! * A D D D D D D D D D D D D D D D D D D D D D D D D D D D D D D r E v ] F G H           ",
"I { ! ! % J K K K K K K K K K K K K K K K K K K K K K K K K K K K K K K L M N _ O G P           ",
"Q { ! ! @ R S S S S S S S S S S S S S S S S S S S S S S S S S S S S S S T U _ V W G X           ",
"9 { ! ! # Y Z T T T T T T T T T T T T T T T T T T T T T T T T T T T T T `  ...W +.@.#.          ",
"$.{ ! ! %.&.*.=.=.=.=.=.=.=.=.=.=.=.=.=.=.=.=.=.=.=.=.=.=.=.=.=.=.=.=.=.-. .V +.;.^ >.          ",
",.: ! ! '.&.).!.z z z z z z z z z z z z z z z z z z z z z z z z z z z ~.k {.].;.^.; >.          ",
"/.: ! ! c ~.k ).(._._._._.Y Y :.<.[.[.[.[.[.[.<.:.Y Y _._._._._._._.q ).k {.+.^.}.|.=.          ",
"1.: ! ! 2.~.k k 3.4.5.f q 6.*.~.7.!.8.8.8.8.!.7.~.&.6.9.q u u u 0.a.).k k {.b.}.c.d.e.          ",
"f.: ! ! c.7.k k k ).g.-.h.(.u f q 6.6.*.*.6.6.9.f u (.i.h.j.k.l.g.k k k k {.;.c.m.d.R           ",
"' ~ ! ! }.7.k 3.n.o.p.l.-.q.h.5.(.0.u u u u 0.(.5.i.g q.r.l.s.t.).k k k k {.}.m.c u.v.          ",
"w.~ ! ! ^.!.x.g.s.y.-.a.g i.(.0.f q 9.9.9.9.9.f u (.i.g a.r.l.p.g.x.3.k k {.z.c '.e A.          ",
"[ ~ ! ! b.:.B.4.C.a.g i.0.q 6.*.~.7.7.!.!.7.7.~.&.6.q 0.5.g a.-.4.B.n.3.k {.c.'.D.E.F.          ",
"> ~ ! ! W G.y.r.q.i.0.q *.~.!._.:.<.[.[.[.[.<.:._.8.7.*.q u i.j.r.y.o.n.3.{.2.D.# E.H.          ",
"a ! ! ! ].I.r.j.5.f 6.~.8.:.[.G.J.` I.I.I.I.` J.G.[.:.8.7.*.f 5.g k.l.o.n.{.c # @ p K.          ",
"L.! ! ! V d g (.q &.!.Y [.J.` M.z x C C C C x d M.I.J.N.:.!.&.q (.g k.y.o. .'.^ n ; O.          ",
"P.! ! ! V H (.q &.8.<.Q.I.z x P R.#.>.S.S.>.#.R.P x d I.Q.<._.~.9.(.g k.4. .w _ 4 ^ T           ",
"T.! ! ! V R.q &.8.[.J.U.x P #.=.e.v.A.F.F.A.v.R =.#.P x M.V.W.X.Y.Z.`.j.r.i ].!  +m.A           ",
"0 ! ! ~ ].S.&.8.<.J.M.C R.S.R F.K.Z j T T j Z K.F.v.=..+++@+#+$+%+&+*+=+-+'.~  +;.;+>+          ",
",+! ~ { ].R !.<.J.M.C #.e.A.O.T '+)+A !+!+A )+'+T O.F.~+{+]+^+/+(+_+:+<+[+3 }+D.P.E.>+          ",
"|+~ { 4 W A.Y G.U.C #.e.F.Z '+A 1+2+3+L L 3+4+1+A '+5+6+]+7+8+9+0+a+b+c+2 N & d+@.* '+          ",
"{.: 4 m  +G e+f+5 g+n w @.^ ; d.u.u.e e e e e u.d.h+i+j+k+l+m+n+o+p+q+< ].u.r+s+t+* J   ; F =   ",
" .{ m | 1 v u+]  +F ) v+w+x+y+z+A+B+..O V W +.;.^.C+D+E+F+G+H+I+J+K+y+z.+ L+M+N+O+P+Q+g+: 2 B+R+",
"S+v | 1 v u+]  +F ) v+w+x+y+z+A+B+..O V W +.;.^.z.T+U+V+W+X+Y+Z+`+W # f+ @.@+@@@#@$@ .3 | A+M   ",
"  & m v u+]  +F ) v+w+x+y+z+A+B+..O V W +.;.^.}.%@&@*@=@-@;@>@,@'@e )@!@~@{@]@^@/@(@m u+V |+I.  ",
"    _@B+w+x+x+:@y+z+N N A+B+_ ....O V ].W W +.b.<@[@}@|@1@2@3@4@5@6@7@8@9@0@a@b@c@v F c.> 7.    ",
"      J d@d@d@d@d@d@d@d@d@d@d@d@e@f@g@h@i@d@d@d@j@k@l@m@n@o@p@q@r@s@t@u@v@w@x@y@v+:@# z@A@      ",
"                                  B@C@          D@E@F@G@H@I@J@K@L@M@N@w@O@P@Q@y+O * R@S@        ",
"                                  T@C@          U@V@W@X@Y@Z@`@ #M@v@.#+#@###].z.|.$#%#&#*#      ",
"                                  T@C@          =#-#;#>#,#'#)#!#a@.#~#{#]#^#@ + /#(#_#:#<#      ",
"                                  T@C@          [#}#|#1#2#3#4#5#6#~#{#7#8#9#a 0#a#b#c#d#e#      ",
"                                  T@C@          f#g#h#i#j#k#l#m#n#o#p#q#r#s#t#u#v#w#w#x#y#      ",
"                                  T@z#          A#B#C#D#E#F#G#H#I#J#K#L#M#N#O#P#Q#R#P#S#T#      ",
"                                  U##+            V#W#X#Y#Z#`# $.$+$@$#$$$%$&$R#*$=$-$;$>$      ",
"                                    ,$'$          )$D#k#!$~${$]$^$/$($_$:$<$[$}$}$|$1$2$3$      ",
"                                    4$5$6$7$8$9$0$a$b$c$d$e$f$g$h$i$j$k$l$m$n$o$p$q$r$s$        ",
"                                      t$u$v$w$x$y$z$A$B$~$C$D$E$F$G$H$I$J$K$L$M$N$O$P$          ",
"                                                      Q$R$S$T$h$1$U$V$W$X$Y$Z$`$                ",
"                                                           %.%+%@%#%$%%%&%                      ",
"                                                                                                "};
