/* XPM */
static char * ni_xpm[] = {
"48 48 42 1",
" 	c None",
".	c #FFFFFF",
"+	c #E2ECF4",
"@	c #A8C7DF",
"#	c #78A8CD",
"$	c #498ABC",
"%	c #2C77B1",
"&	c #1B6BAA",
"*	c #5A95C2",
"=	c #94BAD7",
"-	c #F3F5F6",
";	c #C2D8E8",
">	c #689EC7",
",	c #377EB5",
"'	c #00569E",
")	c #005AA0",
"!	c #035CA1",
"~	c #065FA3",
"{	c #D4E4EF",
"]	c #0D63A5",
"^	c #F4F8FB",
"/	c #E8F1F7",
"(	c #FAFAFB",
"_	c #E3E3E3",
":	c #727272",
"<	c #060E14",
"[	c #000000",
"}	c #000A12",
"|	c #002646",
"1	c #5C8CB1",
"2	c #FAFCFD",
"3	c #AAAAAA",
"4	c #393939",
"5	c #555555",
"6	c #C7C7C7",
"7	c #1D1D1D",
"8	c #183850",
"9	c #003C6A",
"0	c #043F6C",
"a	c #0A1016",
"b	c #8E8E8E",
"c	c #D8DADA",
"................................................",
".....+@#$%&&&%*=-........-;=>*$,,,,,%,;.........",
"...;*&'')!~~~!''%@.....+>&!'')))!!!))@..........",
".{$!'!~~~~~~~~~~'!=...+%')~~~~~~~~~'=...........",
"#!'~~~~~~~~~~~~~~!!=..*'~~')''''~~'>............",
"=$]'~~~~~~~~~~~~~~!!=.]!~'$@=>*$]',^............",
"..;$))~~~~~~~~~~~~~!~=>''#......$';.............",
"....@&'~~~~~~~~~~~~~)]=*=.....@#&*..............",
".....{,'~~~~~~~~~~~~~)];.....#'');..............",
"....../$'~~~~~~~~~~~~~)&{...+])'$...............",
"......./,'~~~~~~~~~~~~~'%+..@)~'=...............",
"........+%'~~~~~~~~~~~~~',-.,)!]{...............",
".........{&)~~~~~~~~~~~~~'>;!!),................",
"..........;])~~~~~~~~~~~~~)##''*................",
"...........@~!~~~~~~~~~~~~!]@$'#................",
"..........{=='~~~~~~~~~~~~~)&@&#................",
"..........;!=>'~~~~~~~~~~~~~',@=................",
"..........;)]@$'~~~~~~~~~~~~~'*.................",
"..........@))&@,)~~~~~~~~~~~~~'#................",
"..........='~'%@&)~~~~~~~~~~~~)'{...............",
"..........>'~~'$=])~~~~~~~~~!'&#-...............",
"..........$'~~~'>=~!~~~~~~)']>+.................",
".........(%)~~~~'#=!!~~~)'&#{...................",
".........{]!~~~~!~{=)'')%=+.....................",
".........='~~~~~~!;.=%*@-.......................",
".........$'~~~~~~~;.............................",
"........+]!~~~~~~!;.............................",
"........@!~~~~~~']{.............................",
"........='~~~~~'%;..............................",
"........*'~~~~'$/...............................",
"........$)~~~'*^................................",
"......_:<[[}|12...3[[[[[[43...3[3..5[[[[[[46....",
".....3[7890|a[3...3[:33334[b..3[3..5[3333b7[_...",
"...._[7_$)',c4[_..3[3.....77..3[3..5[.....6[:...",
"....4[_.*'&+.6[b..3[3.....5[..3[3..5[......[5...",
"....[5..#'@.......3[3.....4[..3[3..5[.....6[b...",
"...3[3..=#........3[3....b[:..3[3..5[3333b75....",
"...3[3....5[[[[5..3[[[[[[[5...3[3..5[[[[[[[:_...",
"...3[3....633345..3[:33336....3[3..5[.....3[7...",
"....[5........55..3[3.........3[3..5[......:[3..",
"....4[_......_[5..3[3.........3[3..5[......3[3..",
"....6[7_...._5[5..3[3.........3[3..5[......4[_..",
".....3[[:33:7445..3[3.........3[3..5[333335[5...",
"......_:7[[4b.35..3[3.........3[3..5[[[[[[7:....",
"................................................",
"................................................",
"................................................",
"................................................"};
