/* XPM */
static char * break_dis_xpm[] = {
"32 32 126 2",
"  	g None",
". 	g #B3B3B3",
"+ 	g #B2B2B2",
"@ 	g #AFAFAF",
"# 	g #ACACAC",
"$ 	g #A8A8A8",
"% 	g #A5A5A5",
"& 	g #A1A1A1",
"* 	g #9F9F9F",
"= 	g #0A0A0A",
"- 	g #CECECE",
"; 	g #E6E6E6",
"> 	g #DDDDDD",
", 	g #000000",
"' 	g #BDBDBD",
") 	g #B0B0B0",
"! 	g #E3E3E3",
"~ 	g #C2C2C2",
"{ 	g #9D9D9D",
"] 	g #FFFFFF",
"^ 	g #B1B1B1",
"/ 	g #C3C3C3",
"( 	g #A2A2A2",
"_ 	g #9B9B9B",
": 	g #DADADA",
"< 	g #D8D8D8",
"[ 	g #CACACA",
"} 	g #D3D3D3",
"| 	g #686868",
"1 	g #B4B4B4",
"2 	g #AAAAAA",
"3 	g #696969",
"4 	g #CCCCCC",
"5 	g #0B0B0B",
"6 	g #ADADAD",
"7 	g #C9C9C9",
"8 	g #9A9A9A",
"9 	g #E5E5E5",
"0 	g #131313",
"a 	g #929292",
"b 	g #ABABAB",
"c 	g #DEDEDE",
"d 	g #B6B6B6",
"e 	g #979797",
"f 	g #B8B8B8",
"g 	g #C7C7C7",
"h 	g #464646",
"i 	g #9E9E9E",
"j 	g #BCBCBC",
"k 	g #BABABA",
"l 	g #A9A9A9",
"m 	g #A7A7A7",
"n 	g #919191",
"o 	g #7F7F7F",
"p 	g #C4C4C4",
"q 	g #D2D2D2",
"r 	g #D1D1D1",
"s 	g #898989",
"t 	g #D7D7D7",
"u 	g #A4A4A4",
"v 	g #E0E0E0",
"w 	g #060606",
"x 	g #010101",
"y 	g #7D7D7D",
"z 	g #DCDCDC",
"A 	g #878787",
"B 	g #999999",
"C 	g #D9D9D9",
"D 	g #D4D4D4",
"E 	g #CDCDCD",
"F 	g #D5D5D5",
"G 	g #868686",
"H 	g #A3A3A3",
"I 	g #A0A0A0",
"J 	g #C6C6C6",
"K 	g #C5C5C5",
"L 	g #818181",
"M 	g #959595",
"N 	g #848484",
"O 	g #7E7E7E",
"P 	g #7A7A7A",
"Q 	g #DFDFDF",
"R 	g #989898",
"S 	g #BFBFBF",
"T 	g #CBCBCB",
"U 	g #8F8F8F",
"V 	g #595959",
"W 	g #E1E1E1",
"X 	g #909090",
"Y 	g #8C8C8C",
"Z 	g #8D8D8D",
"` 	g #A6A6A6",
" .	g #797979",
"..	g #BBBBBB",
"+.	g #424242",
"@.	g #888888",
"#.	g #C0C0C0",
"$.	g #616161",
"%.	g #5A5A5A",
"&.	g #858585",
"*.	g #9C9C9C",
"=.	g #DBDBDB",
"-.	g #AEAEAE",
";.	g #757575",
">.	g #717171",
",.	g #585858",
"'.	g #C8C8C8",
").	g #626262",
"!.	g #969696",
"~.	g #787878",
"{.	g #505050",
"].	g #070707",
"^.	g #444444",
"/.	g #676767",
"(.	g #040404",
"_.	g #050505",
":.	g #808080",
"<.	g #838383",
"[.	g #434343",
"}.	g #777777",
"|.	g #4E4E4E",
"1.	g #454545",
"2.	g #080808",
"3.	g #3B3B3B",
"4.	g #4B4B4B",
"5.	g #727272",
"                                                                ",
"                            . + @ # $ % & *                 =   ",
"                            . - ; ; ; > *                 , '   ",
"                            ) ! ; ; ; ~ {               , ' ]   ",
"                          ^ / ; ; ; ; ( _             = ' ] :   ",
"                          @ < ; ; ; [ _             , ' ] } |   ",
"                        @ 1 ; ; ; ; 2 3           = ' ] 4 | 5   ",
"                        6 7 ; ; ; } 8 9 ,       , ' ] : | 0     ",
"                      a b c ; ; ; d e f g h   , ' ] 4 | 5       ",
"                      i j ; ; ; ; k l m % n o ' ] : | 0         ",
"                      l p } q r : ! ! ! < s ~ , t | ,           ",
"                      m u & { 8 j v v v * n c ] , w             ",
"                    , ] ~ x y e } z z ~ A g c c ] ,             ",
"                  , ] c c ~ B @ C C D a _ c c c c ] ,           ",
"                , ] c c c c e E F F @ G q c c c c c m ,         ",
"              , ] c c c c H b q q 7 A I J K r c c m L ,         ",
"            , ] c z z > c M J - - 1 N L O P 2 c m L L ,         ",
"            , L j Q Q c R { j S T T T T U o t m L L V ,         ",
"            , V L j > W B X Y Z g g g `  .@ m L L V ,           ",
"            , V V L j c Q c ( 8 p p ..o +., L L V ,             ",
"            , V V V L j v Q @.` #.#.Y N b , L V ,               ",
"              , V $.%.s j c &.+ ' *. .I L , V ,                 ",
"                x O =.3 L j A k -. .s o L , ,                   ",
"                , ' ] J V *.a d &.;.>.y ,.,                     ",
"              , ' ] '.m ).L *.!.~.N L {.].                      ",
"            = ' ] =.| ^./.o *. .n L V ,                         ",
"          , ' ] } | (._.x :.<.;.L [.,                           ",
"        , ' ] 4 | 5     a P }.|.1.2.                            ",
"      (.' ] : | 0        .~.3., ,                               ",
"    w ' ] t | ,       4. .5.                                    ",
"  , ' ] ' | w           ;.                                      ",
"                                                                "};
