/* XPM */
static char * break_xpm[] = {
"32 32 211 2",
"  	c None",
". 	c #FFAE00",
"+ 	c #FEAD00",
"@ 	c #FCA900",
"# 	c #F9A500",
"$ 	c #F6A100",
"% 	c #F49C00",
"& 	c #F19800",
"* 	c #EF9500",
"= 	c #0A0A0A",
"- 	c #FEDA11",
"; 	c #FFFF1E",
"> 	c #FDF21A",
", 	c #000000",
"' 	c #BFBDBF",
") 	c #FDAB00",
"! 	c #FFFA1C",
"~ 	c #F7CA0F",
"{ 	c #ED9200",
"] 	c #FFFFFF",
"^ 	c #FEAC00",
"/ 	c #FDC90B",
"( 	c #EF9A02",
"_ 	c #EC9000",
": 	c #DBDADB",
"< 	c #FEE917",
"[ 	c #F8D613",
"} 	c #D5D3D5",
"| 	c #6A676A",
"1 	c #FBB204",
"2 	c #F0A606",
"3 	c #A06100",
"4 	c #CECBCE",
"5 	c #0C0B0C",
"6 	c #FAA700",
"7 	c #FCD20F",
"8 	c #FAE317",
"9 	c #EB8E00",
"0 	c #F9E2BF",
"a 	c #141314",
"b 	c #C08D37",
"c 	c #F9A400",
"d 	c #FEF31A",
"e 	c #F2B90B",
"f 	c #E98B00",
"g 	c #E1B16E",
"h 	c #F0C07F",
"i 	c #703F00",
"j 	c #D89824",
"k 	c #FABF09",
"l 	c #F3BE0D",
"m 	c #EDA608",
"n 	c #EBA308",
"o 	c #E9A008",
"p 	c #E18402",
"q 	c #CE7000",
"r 	c #F7A200",
"s 	c #FACC0E",
"t 	c #FCE216",
"u 	c #FBE116",
"v 	c #FAE016",
"w 	c #FCED19",
"x 	c #FFFA1D",
"y 	c #FBEA19",
"z 	c #DD7900",
"A 	c #ECBA7F",
"B 	c #D9D7D9",
"C 	c #F59F00",
"D 	c #F39B00",
"E 	c #F09700",
"F 	c #ED9300",
"G 	c #EB8F00",
"H 	c #F4C00E",
"I 	c #FFF51B",
"J 	c #E69807",
"K 	c #DB831B",
"L 	c #DEDEDE",
"M 	c #070607",
"N 	c #C4C1C4",
"O 	c #00000D",
"P 	c #9B755E",
"Q 	c #FFEF19",
"R 	c #F4CB11",
"S 	c #DB7700",
"T 	c #DCC3A6",
"U 	c #E48E0E",
"V 	c #F0AD09",
"W 	c #FFEA18",
"X 	c #FDE316",
"Y 	c #E08603",
"Z 	c #DB8E37",
"` 	c #E88A00",
" .	c #FCD813",
"..	c #FFE416",
"+.	c #EEAE0B",
"@.	c #DA7500",
"#.	c #DDD0C2",
"$.	c #A9A6A9",
"%.	c #EA9820",
"&.	c #EFA808",
"*.	c #FFDF15",
"=.	c #FBD212",
"-.	c #DB7600",
";.	c #DA9345",
">.	c #DBC1A6",
",.	c #DAC0A6",
"'.	c #DCCEC2",
").	c #838183",
"!.	c #DCDCDC",
"~.	c #DDDDDD",
"{.	c #E68800",
"].	c #FCCE10",
"^.	c #FFD913",
"/.	c #F2B40C",
"(.	c #D97300",
"_.	c #D66F00",
":.	c #D46B00",
"<.	c #D16600",
"[.	c #D6A06E",
"}.	c #BDBBC0",
"|.	c #DFDFDF",
"1.	c #DF8C1B",
"2.	c #EA9403",
"3.	c #F8BF0D",
"4.	c #F9C40E",
"5.	c #FFD411",
"6.	c #DD8204",
"7.	c #CF6B0D",
"8.	c #DCD6D0",
"9.	c #5A595A",
"0.	c #E1E1E1",
"a.	c #E58C10",
"b.	c #E38200",
"c.	c #E07D00",
"d.	c #DF7F01",
"e.	c #FFCE10",
"f.	c #EBA109",
"g.	c #D06500",
"h.	c #C6A992",
"i.	c #E09640",
"j.	c #E79004",
"k.	c #FFC90E",
"l.	c #F9BD0C",
"m.	c #D36C01",
"n.	c #743600",
"o.	c #E0E0E0",
"p.	c #DC7700",
"q.	c #EFA007",
"r.	c #FFC30C",
"s.	c #DC7E03",
"t.	c #D0721B",
"u.	c #B2AAA5",
"v.	c #626162",
"w.	c #5B5A5B",
"x.	c #8B898B",
"y.	c #DA7400",
"z.	c #F8AF09",
"A.	c #FFBD0B",
"B.	c #E89205",
"C.	c #CF6400",
"D.	c #B89B84",
"E.	c #010101",
"F.	c #807D80",
"G.	c #DDDBDD",
"H.	c #696969",
"I.	c #DB7601",
"J.	c #FFB809",
"K.	c #F6A907",
"L.	c #BA7D47",
"M.	c #817F81",
"N.	c #C8C6C8",
"O.	c #DB8F3C",
"P.	c #E38402",
"Q.	c #FFB207",
"R.	c #D97401",
"S.	c #BE6414",
"T.	c #727178",
"U.	c #7F7D7F",
"V.	c #595859",
"W.	c #CAC8CA",
"X.	c #636263",
"Y.	c #D76F00",
"Z.	c #ED9103",
"`.	c #E88903",
" +	c #CF6300",
".+	c #868486",
"++	c #515051",
"@+	c #070707",
"#+	c #444444",
"$+	c #686768",
"%+	c #D56C00",
"&+	c #EE9003",
"*+	c #B48769",
"=+	c #040404",
"-+	c #050505",
";+	c #D66D00",
">+	c #D97001",
",+	c #B66421",
"'+	c #424348",
")+	c #C88545",
"!+	c #CE6200",
"~+	c #5B4B3F",
"{+	c #454545",
"]+	c #090809",
"^+	c #CB6607",
"/+	c #663000",
"(+	c #060606",
"_+	c #604533",
":+	c #D06400",
"<+	c #C65E00",
"[+	c #CC6000",
"                                                                ",
"                            . + @ # $ % & *                 =   ",
"                            . - ; ; ; > *                 , '   ",
"                            ) ! ; ; ; ~ {               , ' ]   ",
"                          ^ / ; ; ; ; ( _             = ' ] :   ",
"                          @ < ; ; ; [ _             , ' ] } |   ",
"                        @ 1 ; ; ; ; 2 3           = ' ] 4 | 5   ",
"                        6 7 ; ; ; 8 9 0 ,       , ' ] : | a     ",
"                      b c d ; ; ; e f g h i   , ' ] 4 | 5       ",
"                      j k ; ; ; ; l m n o p q ' ] : | a         ",
"                      r s t u v w x x x y z A , B | ,           ",
"                      C D E F G H I I I J K L ] , M             ",
"                    , ] N O P f t Q Q R S T L L ] ,             ",
"                  , ] L L N U V W W X Y Z L L L L ] ,           ",
"                , ] L L L L `  .....+.@.#.L L L L L $.,         ",
"              , ] L L L L %.&.*.*.=.-.;.>.,.'.L L $.).,         ",
"            , ] L !.!.~.L {.].^.^./.(._.:.<.[.L $.).).,         ",
"            , ).}.|.|.L 1.2.3.4.5.5.5.5.6.7.8.$.).).9.,         ",
"            , 9.).}.~.0.a.b.c.d.e.e.e.f.g.h.$.).).9.,           ",
"            , 9.9.).}.L |.L i.j.k.k.l.m.n., ).).9.,             ",
"            , 9.9.9.).}.o.|.p.q.r.r.s.t.u., ).9.,               ",
"              , 9.v.w.x.}.L y.z.A.B.C.D.)., 9.,                 ",
"                E.F.G.H.).}.I.J.K.g.L.M.)., ,                   ",
"                , ' ] N.9.O.P.Q.R.S.T.U.V.,                     ",
"              , ' ] W.$.X.Y.Z.`. +.+).++@+                      ",
"            = ' ] G.| #+$+%+&+C.*+).9.,                         ",
"          , ' ] } | =+-+E.;+>+,+).'+,                           ",
"        , ' ] 4 | 5     )+<.!+~+{+]+                            ",
"      =+' ] : | a       ^+ +/+, ,                               ",
"    (+' ] B | ,       _+:+<+                                    ",
"  , ' ] ' | M           [+                                      ",
"                                                                "};
