/* XPM */
static char * filenew_xpm[] = {
"32 32 154 2",
"  	c None",
". 	c #C4D0E5",
"+ 	c #9DAAC1",
"@ 	c #FBFFFF",
"# 	c #FFFFFF",
"$ 	c #FEFFFF",
"% 	c #F5FAFF",
"& 	c #EDF3FE",
"* 	c #E4EBF9",
"= 	c #D8E1F2",
"- 	c #C2D0E9",
"; 	c #A7B2C4",
"> 	c #FCFFFF",
", 	c #F8FDFF",
"' 	c #F2F7FF",
") 	c #EAF1FD",
"! 	c #E1E9F7",
"~ 	c #D5DFF0",
"{ 	c #BFCCE3",
"] 	c #EBF4FF",
"^ 	c #A2AEC1",
"/ 	c #EDF4FE",
"( 	c #E6EDFA",
"_ 	c #D9E2F2",
": 	c #C2CEE5",
"< 	c #F0F6FF",
"[ 	c #DCE7F9",
"} 	c #A1ADC3",
"| 	c #F8FCFF",
"1 	c #F1F7FF",
"2 	c #E9EFFC",
"3 	c #DCE5F4",
"4 	c #C4D0E6",
"5 	c #E8EEFB",
"6 	c #DBE5F9",
"7 	c #A4AFC5",
"8 	c #FAFEFF",
"9 	c #F3F9FF",
"0 	c #EBF1FD",
"a 	c #DFE7F6",
"b 	c #C6D1E5",
"c 	c #FDFFFF",
"d 	c #ECF2FD",
"e 	c #DEE9FB",
"f 	c #A4B0C4",
"g 	c #F5F9FF",
"h 	c #E3EBF9",
"i 	c #BECBE1",
"j 	c #F3F5FB",
"k 	c #ECF2F9",
"l 	c #E4EBF7",
"m 	c #D8E1F0",
"n 	c #D0DCF1",
"o 	c #9EABC1",
"p 	c #F7FBFF",
"q 	c #E8EFFC",
"r 	c #C8D4E7",
"s 	c #98A9C5",
"t 	c #F1F6FF",
"u 	c #EBF1FE",
"v 	c #E5EDFA",
"w 	c #D7E0F1",
"x 	c #C1CEE4",
"y 	c #B6C4DD",
"z 	c #B4C3DC",
"A 	c #AEBEDB",
"B 	c #8495B1",
"C 	c #ECF3FE",
"D 	c #CCD6EA",
"E 	c #BECAE2",
"F 	c #BBC9E0",
"G 	c #B9C6DF",
"H 	c #B5C5E0",
"I 	c #FAFFFF",
"J 	c #EFF5FF",
"K 	c #E7EEFB",
"L 	c #D5DFEF",
"M 	c #C7D3E8",
"N 	c #C5D1E6",
"O 	c #C2CFE5",
"P 	c #C1CDE4",
"Q 	c #BDCBE5",
"R 	c #E9F0FC",
"S 	c #DAE2F2",
"T 	c #D0DAED",
"U 	c #CCD7EA",
"V 	c #C9D4E9",
"W 	c #C7D2E7",
"X 	c #C6D2E6",
"Y 	c #C3D0E8",
"Z 	c #EAF0FD",
"` 	c #DCE5F5",
" .	c #D6E0F1",
"..	c #D3DDEE",
"+.	c #D0DBED",
"@.	c #CED9EC",
"#.	c #CBD7EA",
"$.	c #C8D5EC",
"%.	c #F3F8FF",
"&.	c #DFE8F6",
"*.	c #DBE4F3",
"=.	c #DAE3F3",
"-.	c #D2DCEF",
";.	c #CEDAF0",
">.	c #F4F9FF",
",.	c #E4ECF9",
"'.	c #DDE5F4",
").	c #D9E2F3",
"!.	c #D7E1F2",
"~.	c #D4DEF0",
"{.	c #D4DDEF",
"].	c #D2DEF2",
"^.	c #E2EAF8",
"/.	c #DEE6F5",
"(.	c #D8E1F1",
"_.	c #D5E0F4",
":.	c #EDF4FF",
"<.	c #ECF2FE",
"[.	c #EAF1FC",
"}.	c #E1E9F8",
"|.	c #DDE6F4",
"1.	c #DAE4F3",
"2.	c #D9E3F6",
"3.	c #F6FBFF",
"4.	c #EEF4FF",
"5.	c #E4EBF8",
"6.	c #DFE7F7",
"7.	c #DBE5F7",
"8.	c #F9FEFF",
"9.	c #E5ECF9",
"0.	c #E0E7F6",
"a.	c #DCE6F8",
"b.	c #F9FDFF",
"c.	c #EBF3FE",
"d.	c #EAF0FC",
"e.	c #E8EFFB",
"f.	c #E6EDFB",
"g.	c #E2E9F7",
"h.	c #E0E8F7",
"i.	c #E0E8F6",
"j.	c #DEE8FA",
"k.	c #F2F8FF",
"l.	c #DFE9FA",
"m.	c #EBF2FD",
"n.	c #E7EEFA",
"o.	c #E3EBF8",
"p.	c #F7FDFF",
"q.	c #F7FCFF",
"r.	c #E0E9FB",
"s.	c #E3EAF9",
"t.	c #E3EAF8",
"u.	c #E1E8F7",
"v.	c #E0EAFC",
"w.	c #F4FDFF",
"      . . . . . . . . . . . . . . . +                           ",
"      . @ # # # # # # # # $ % & * = - ;                         ",
"      . > # # # # # # # # , ' ) ! ~ { ] ^                       ",
"      . > # # # # # # # # @ % / ( _ : < [ }                     ",
"      . > # # # # # # # # $ | 1 2 3 4 # 5 6 7                   ",
"      . > # # # # # # # # # 8 9 0 a b # c d e f                 ",
"      . > # # # # # # # # # > g & h i j k l m n o               ",
"      . > # # # # # # # # # > p < q r s s s s s s s             ",
"      . > # # # # # # # # # c | t u v ! w x y z A B             ",
"      . > # # # # # # # # # # , 9 C v a D E F G H B             ",
"      . > # # # # # # # # # # I 9 J K L M N O P Q B             ",
"      . > # # # # # # # # # # c % R S T U V W X Y B             ",
"      . > # # # # # # # # # c % Z `  ...+.@.U #.$.B             ",
"      . > # # # # # # # # > %.2 &.*.=.w ~ -.+.+.;.B             ",
"      . > # # # # # # # # >.R ,.! a '.*.).!.~.{.].B             ",
"      . > # # # # # # c < 0 q ( v ^.! /.'.*.= (._.B             ",
"      . > # # # # # > ' < :.<.[.K ,.^.}./.|.3 1.2.B             ",
"      . > # # # # # 3.>.1 4.4.d R K * 5.^.6./.|.7.B             ",
"      . > # # # # 8., % %.1 J & 0 q K 9.h ^.0.a a.B             ",
"      . > # # # # b., 3.>.' < 4.c.d.e.f.,.g.h.i.j.B             ",
"      . > # # # > 8.8.3.>.k.1 < 4.0 2 ( ,.h h.6.l.B             ",
"      . > # # # > 8., 3.>.%.' < & m.R n.( o.^.}.l.B             ",
"      . > # # # @ 8.p.q.>.%.k.< J <.R q ( ,.! ^.r.B             ",
"      . > # # $ 8 8., 3.% %.1 < 4.d R n.( s.! ^.r.B             ",
"      . > # # $ 8 8., % % %.1 < J m.) n.( t.^.^.l.B             ",
"      . > # # > 8 , q.% >.' 1 < & m.R n.( o.^.! r.B             ",
"      . > # # 8.8., q.>.>.k.1 < & ) R ( ,.^.^.u.v.B             ",
"      . > # # 8.8., q.>.>.k.1 < & ) R ( ,.^.^.u.v.B             ",
"      . w.# # 8.8., q.>.>.k.1 < & ) R ( ,.^.^.u.v.B             ",
"      . B B B B B B B B B B B B B B B B B B B B B B             ",
"                                                                ",
"                                                                "};
