/* XPM */
static char * help_xpm[] = {
"32 32 244 2",
"  	c None",
". 	c #C40000",
"+ 	c #C20000",
"@ 	c #C10000",
"# 	c #BF0000",
"$ 	c #C70000",
"% 	c #C60000",
"& 	c #BE0000",
"* 	c #BC0000",
"= 	c #BB0000",
"- 	c #B90000",
"; 	c #CA0000",
"> 	c #C90000",
", 	c #CB0000",
"' 	c #D90000",
") 	c #E30000",
"! 	c #EB2F2F",
"~ 	c #F53E3E",
"{ 	c #EB3E3E",
"] 	c #E10000",
"^ 	c #D20000",
"/ 	c #B60000",
"( 	c #B40000",
"_ 	c #B20000",
": 	c #CD0000",
"< 	c #E20000",
"[ 	c #F75858",
"} 	c #FBA3A3",
"| 	c #FFF0F0",
"1 	c #FDC2C2",
"2 	c #F97676",
"3 	c #DC1D1D",
"4 	c #B10000",
"5 	c #AF0000",
"6 	c #DD0000",
"7 	c #F64545",
"8 	c #FDC4C4",
"9 	c #FFE1E1",
"0 	c #FCD3D3",
"a 	c #ED9C9C",
"b 	c #E99292",
"c 	c #F0B2B2",
"d 	c #EFAEAE",
"e 	c #F3B7B7",
"f 	c #F96F6F",
"g 	c #D20E0E",
"h 	c #AE0000",
"i 	c #AC0000",
"j 	c #E30D0D",
"k 	c #FA8181",
"l 	c #FFD1D1",
"m 	c #F9B7B7",
"n 	c #EB9090",
"o 	c #EEAFAF",
"p 	c #FFFFFF",
"q 	c #EDBABA",
"r 	c #F6C1C1",
"s 	c #FDA9A9",
"t 	c #DA2626",
"u 	c #AA0000",
"v 	c #A90000",
"w 	c #FD9B9B",
"x 	c #FFC0C0",
"y 	c #F59D9D",
"z 	c #E88C8C",
"A 	c #FFD9D9",
"B 	c #FEB3B3",
"C 	c #D92323",
"D 	c #A70000",
"E 	c #A50000",
"F 	c #FA6C6C",
"G 	c #FFAFAF",
"H 	c #FCA4A4",
"I 	c #E88B8B",
"J 	c #FFC9C9",
"K 	c #FD8D8D",
"L 	c #CC0B0B",
"M 	c #A40000",
"N 	c #A30000",
"O 	c #CC0000",
"P 	c #F63030",
"Q 	c #FF9E9E",
"R 	c #EB6F6F",
"S 	c #FFA3A3",
"T 	c #FFA9A9",
"U 	c #FFECEC",
"V 	c #FFF3F3",
"W 	c #FA6262",
"X 	c #A00000",
"Y 	c #FD7A7A",
"Z 	c #FF8C8C",
"` 	c #EE9393",
" .	c #F58282",
"..	c #FAEFEF",
"+.	c #FF9494",
"@.	c #D51111",
"#.	c #9F0000",
"$.	c #F72E2E",
"%.	c #FF7B7B",
"&.	c #F19E9E",
"*.	c #FFACAC",
"=.	c #F56C6C",
"-.	c #EABFBF",
";.	c #FF9C9C",
">.	c #FB5656",
",.	c #F83838",
"'.	c #F41010",
").	c #A80000",
"!.	c #9C0000",
"~.	c #C50000",
"{.	c #D80000",
"].	c #FB4848",
"^.	c #FF6969",
"/.	c #FB9090",
"(.	c #FFF5F5",
"_.	c #FF7272",
":.	c #D45252",
"<.	c #F73232",
"[.	c #F30707",
"}.	c #F20000",
"|.	c #9A0000",
"1.	c #FE5252",
"2.	c #FF5858",
"3.	c #FF8B8B",
"4.	c #FF6C6C",
"5.	c #DA5252",
"6.	c #EFCFCF",
"7.	c #FCBFBF",
"8.	c #D60000",
"9.	c #990000",
"0.	c #C30000",
"a.	c #EA0404",
"b.	c #FF4646",
"c.	c #DA4B4B",
"d.	c #FEEFEF",
"e.	c #F42020",
"f.	c #970000",
"g.	c #950000",
"h.	c #C00000",
"i.	c #F50D0D",
"j.	c #FF3434",
"k.	c #CF3E3E",
"l.	c #F43030",
"m.	c #940000",
"n.	c #F50808",
"o.	c #FF2222",
"p.	c #D92222",
"q.	c #920000",
"r.	c #BD0000",
"s.	c #EA0101",
"t.	c #FF0F0F",
"u.	c #FE0E0E",
"v.	c #D98181",
"w.	c #FEDFDF",
"x.	c #F40000",
"y.	c #910000",
"z.	c #E40000",
"A.	c #FF0202",
"B.	c #FE0101",
"C.	c #FA0101",
"D.	c #F80000",
"E.	c #E9BFBF",
"F.	c #F93030",
"G.	c #F70000",
"H.	c #D70000",
"I.	c #900000",
"J.	c #BA0000",
"K.	c #D50000",
"L.	c #FC0000",
"M.	c #FD0101",
"N.	c #FD0000",
"O.	c #FB0000",
"P.	c #E8BFBF",
"Q.	c #FECFCF",
"R.	c #8E0000",
"S.	c #B80000",
"T.	c #FE0000",
"U.	c #EDA0A0",
"V.	c #FF8080",
"W.	c #8D0000",
"X.	c #B50000",
"Y.	c #E30505",
"Z.	c #FF0808",
"`.	c #FF1818",
" +	c #FF7676",
".+	c #FF6666",
"++	c #D50505",
"@+	c #B30000",
"#+	c #BB0202",
"$+	c #FF1414",
"%+	c #D21818",
"&+	c #E58383",
"*+	c #E48383",
"=+	c #F82F2F",
"-+	c #9B0202",
";+	c #8B0000",
">+	c #B00000",
",+	c #D70F0F",
"'+	c #FF2020",
")+	c #EC1919",
"!+	c #ECCFCF",
"~+	c #FFF1F1",
"{+	c #FF2D2D",
"]+	c #C60F0F",
"^+	c #8A0000",
"/+	c #AD0000",
"(+	c #E01A1A",
"_+	c #FF2B2B",
":+	c #E52020",
"<+	c #FF6060",
"[+	c #D41A1A",
"}+	c #AB0000",
"|+	c #DE2121",
"1+	c #FF3737",
"2+	c #F23030",
"3+	c #FF5050",
"4+	c #D42121",
"5+	c #A60000",
"6+	c #D22020",
"7+	c #FF4343",
"8+	c #FF6767",
"9+	c #FFC5C5",
"0+	c #FF7E7E",
"a+	c #C62020",
"b+	c #AD0909",
"c+	c #DB3030",
"d+	c #FF4E4E",
"e+	c #D53030",
"f+	c #9B0909",
"g+	c #A20000",
"h+	c #9E0000",
"i+	c #A90B0B",
"j+	c #C72626",
"k+	c #DF3C3C",
"l+	c #EC4848",
"m+	c #FF5A5A",
"n+	c #EB4848",
"o+	c #DD3C3C",
"p+	c #C02626",
"q+	c #9C0B0B",
"r+	c #9B0000",
"s+	c #980000",
"t+	c #960000",
"u+	c #930000",
"                                                                ",
"                            . + @ #                             ",
"                      $ % . + @ # & * = -                       ",
"                ; > $ , ' ) ! ~ ~ { ] ^ # / ( _                 ",
"              ; > : < [ } | | | | | | 1 2 3 = 4 5               ",
"            ; > 6 7 8 9 9 0 a b c d e 9 9 9 f g h i             ",
"          ; > j k l l m n o p p p p p q r l l s t u v           ",
"        ; > < w x x y z p p p p p p p p p A x x B C D E         ",
"      ; > 6 F G G H I p p p p p p p p p p p J G G K L M N       ",
"      > O P Q Q Q R p p p p A S Q T U p p p V Q Q Q W i X       ",
"      $ < Y Z Z Z ` p p p | Z Z Z Z  ...p p p +.Z Z Z @.#.      ",
"    $ , $.%.%.%.%.&.p p p *.%.%.%.%.=.-.p p p ;.%.>.,.'.).!.    ",
"    ~.{.].^.^.^.^./.p p (._.^.^.^.^.:.p p p p <.[.}.}.}.@ |.    ",
"    . ) 1.2.2.2.2.2.3.T 4.2.2.2.2.5.6.p p p 7.}.}.}.}.}.8.9.    ",
"  0.+ a.b.b.b.b.b.b.b.b.b.b.b.b.c...p p p d.e.}.}.}.}.}.] f.g.  ",
"  + h.i.j.j.j.j.j.j.j.j.j.j.j.k...p p p d.l.}.}.}.}.}.}.}.g.m.  ",
"  h.# n.o.o.o.o.o.o.o.o.o.o.p...p p p d.l.}.}.}.}.}.}.}.}.m.q.  ",
"  & r.s.t.t.t.t.t.t.t.t.t.u.v.p p p w.P x.x.x.x.x.x.x.x.] q.y.  ",
"    = z.A.A.A.A.A.A.A.B.C.D.E.p p p F.G.G.G.G.G.G.G.G.G.H.I.    ",
"    J.K.L.M.M.M.N.L.O.O.O.O.P.p p Q.O.O.O.O.O.O.O.O.O.O.& R.    ",
"    S.# T.T.T.T.T.T.T.T.T.T.U.p p V.T.T.T.T.T.T.T.T.T.T.!.W.    ",
"      X.Y.Z.Z.Z.Z.Z.Z.Z.Z.Z.`. +.+Z.Z.Z.Z.Z.Z.Z.Z.Z.Z.++W.      ",
"      @+#+$+$+$+$+$+$+$+$+$+%+&+*+=+$+$+$+$+$+$+$+$+$+-+;+      ",
"      _ >+,+'+'+'+'+'+'+'+)+!+p p ~+{+'+'+'+'+'+'+'+]+;+^+      ",
"        h /+(+_+_+_+_+_+_+:+p p p p <+_+_+_+_+_+_+[+;+^+        ",
"          }+v |+1+1+1+1+1+2+V p p p 3+1+1+1+1+1+4+;+^+          ",
"            ).5+6+7+7+7+7+7+8+9+l 0+7+7+7+7+7+a+;+^+            ",
"              M N b+c+d+d+d+d+d+d+d+d+d+d+e+f+;+^+              ",
"                g+X h+i+j+k+l+m+m+n+o+p+q+W.;+^+                ",
"                      r+9.s+t+g.u+y.I.R.W.                      ",
"                            g.u+y.I.                            ",
"                                                                "};
