/* XPM */
static char * refresh_xpm[] = {
"32 32 283 2",
"  	c None",
". 	c #3995E5",
"+ 	c #4EA4EB",
"@ 	c #4BA0E9",
"# 	c #489BE8",
"$ 	c #4597E6",
"% 	c #4293E4",
"& 	c #3F8FE2",
"* 	c #3B8AE0",
"= 	c #3886DE",
"- 	c #3582DD",
"; 	c #327DDB",
"> 	c #2E79D9",
", 	c #2B74D7",
"' 	c #2870D5",
") 	c #256BD3",
"! 	c #2167D2",
"~ 	c #1E63D0",
"{ 	c #1B5ECE",
"] 	c #185ACC",
"^ 	c #1455CA",
"/ 	c #1151C8",
"( 	c #0E4CC7",
"_ 	c #0A48C5",
": 	c #0844C3",
"< 	c #0641C1",
"[ 	c #053FBF",
"} 	c #033ABB",
"| 	c #0133A5",
"1 	c #6EBBF5",
"2 	c #8ACEFF",
"3 	c #85C9FF",
"4 	c #80C4FF",
"5 	c #7ABEFF",
"6 	c #74B8FF",
"7 	c #6EB2FF",
"8 	c #68ACFF",
"9 	c #61A6FF",
"0 	c #5BA0FF",
"a 	c #559AFF",
"b 	c #4E93FF",
"c 	c #488DFF",
"d 	c #4186FF",
"e 	c #3B80FF",
"f 	c #347AFF",
"g 	c #2E73FF",
"h 	c #276CFF",
"i 	c #2066FF",
"j 	c #1A5FFF",
"k 	c #1359FF",
"l 	c #0C52FF",
"m 	c #054BFF",
"n 	c #0349FF",
"o 	c #0347FD",
"p 	c #0231C5",
"q 	c #0032A4",
"r 	c #80C5FF",
"s 	c #7BBFFF",
"t 	c #76BAFF",
"u 	c #70B5FF",
"v 	c #6AAFFF",
"w 	c #64A9FF",
"x 	c #5EA3FF",
"y 	c #589DFF",
"z 	c #5297FF",
"A 	c #4C91FF",
"B 	c #458BFF",
"C 	c #3F84FF",
"D 	c #397EFF",
"E 	c #3277FF",
"F 	c #2C71FF",
"G 	c #256BFF",
"H 	c #1E64FF",
"I 	c #185EFF",
"J 	c #1157FF",
"K 	c #0B50FF",
"L 	c #044AFF",
"M 	c #0330D9",
"N 	c #84C8FF",
"O 	c #7BC0FF",
"P 	c #77BBFF",
"Q 	c #71B6FF",
"R 	c #6CB1FF",
"S 	c #67ABFF",
"T 	c #4F94FF",
"U 	c #498EFF",
"V 	c #4388FF",
"W 	c #3C82FF",
"X 	c #367BFF",
"Y 	c #3075FF",
"Z 	c #296FFF",
"` 	c #2368FF",
" .	c #1C62FF",
"..	c #165BFF",
"+.	c #0F55FF",
"@.	c #094FFF",
"#.	c #BFE1FF",
"$.	c #BDE0FF",
"%.	c #BBDEFF",
"&.	c #B9DBFF",
"*.	c #B7D9FF",
"=.	c #B4D6FF",
"-.	c #B1D4FF",
";.	c #AFD1FF",
">.	c #ACCEFF",
",.	c #A9CBFF",
"'.	c #A6C8FF",
").	c #A3C5FF",
"!.	c #A0C2FF",
"~.	c #9DBFFF",
"{.	c #9ABCFF",
"].	c #96B9FF",
"^.	c #93B6FF",
"/.	c #90B3FF",
"(.	c #8DB0FF",
"_.	c #89ACFF",
":.	c #85A8FF",
"<.	c #82A5FE",
"[.	c #7FA2FE",
"}.	c #7EA1FD",
"|.	c #7DA0FD",
"1.	c #7DA0FC",
"2.	c #768CE3",
"3.	c #3994E5",
"4.	c #FFFFFF",
"5.	c #FEFEFE",
"6.	c #FDFDFE",
"7.	c #FBFBFD",
"8.	c #FAFAFC",
"9.	c #F9F9FB",
"0.	c #F7F7FA",
"a.	c #F6F6FA",
"b.	c #F5F5F9",
"c.	c #E7E6EC",
"d.	c #3893E4",
"e.	c #F8F8FB",
"f.	c #F4F4F8",
"g.	c #E5E4EB",
"h.	c #3792E3",
"i.	c #F3F3F7",
"j.	c #E3E2E9",
"k.	c #3690E2",
"l.	c #F1F1F7",
"m.	c #E1E0E7",
"n.	c #368FE1",
"o.	c #F0F0F6",
"p.	c #DFDEE6",
"q.	c #358EE0",
"r.	c #EFEFF5",
"s.	c #DDDCE4",
"t.	c #348CDF",
"u.	c #FCFCFD",
"v.	c #F3F3F8",
"w.	c #F2F2F7",
"x.	c #EEEEF4",
"y.	c #DAD9E3",
"z.	c #338BDE",
"A.	c #FEFEFF",
"B.	c #EDEDF4",
"C.	c #D8D7E1",
"D.	c #3289DD",
"E.	c #EEEEF5",
"F.	c #EBEBF3",
"G.	c #D6D5DF",
"H.	c #3188DC",
"I.	c #FBFBFC",
"J.	c #EAEAF2",
"K.	c #D4D3DE",
"L.	c #3186DB",
"M.	c #E9E9F2",
"N.	c #D2D1DC",
"O.	c #3085DA",
"P.	c #4FC337",
"Q.	c #48B306",
"R.	c #4DC036",
"S.	c #E8E8F1",
"T.	c #D0CEDA",
"U.	c #2F83DA",
"V.	c #19AC0F",
"W.	c #A0E099",
"X.	c #C2EBBD",
"Y.	c #C3EBBE",
"Z.	c #AFE5A9",
"`.	c #18AB0F",
" +	c #E6E6F0",
".+	c #CFCDD9",
"++	c #2E82D9",
"@+	c #009E00",
"#+	c #D3FFD3",
"$+	c #E9FFE9",
"%+	c #ECECF3",
"&+	c #E5E5EF",
"*+	c #CECDD9",
"=+	c #2D81D8",
"-+	c #F9F9FC",
";+	c #009700",
">+	c #96FF96",
",+	c #E4E4EF",
"'+	c #2C7FD7",
")+	c #008F00",
"!+	c #59FF59",
"~+	c #3CFF3C",
"{+	c #E7E7F0",
"]+	c #E3E3EE",
"^+	c #CECCD9",
"/+	c #2C7ED6",
"(+	c #008800",
"_+	c #23FF23",
":+	c #01FE01",
"<+	c #13FF13",
"[+	c #2FFF2F",
"}+	c #E2E2ED",
"|+	c #CDCCD9",
"1+	c #2B7CD5",
"2+	c #6CB46E",
"3+	c #3D9D3E",
"4+	c #008100",
"5+	c #03FB03",
"6+	c #00F400",
"7+	c #00F500",
"8+	c #01FB01",
"9+	c #04FD04",
"0+	c #3A9A3C",
"a+	c #65AD69",
"b+	c #E0E0EC",
"c+	c #2A7BD4",
"d+	c #007A00",
"e+	c #00CC00",
"f+	c #00D300",
"g+	c #00F100",
"h+	c #00EE00",
"i+	c #00F200",
"j+	c #DFDFEC",
"k+	c #CDCBD8",
"l+	c #2979D3",
"m+	c #F2F2F5",
"n+	c #F0F0F3",
"o+	c #EEEEF2",
"p+	c #ECECF0",
"q+	c #EBEAEF",
"r+	c #E9E8ED",
"s+	c #4E9650",
"t+	c #008900",
"u+	c #00DE00",
"v+	c #00E600",
"w+	c #4D9551",
"x+	c #C8C7D4",
"y+	c #2878D2",
"z+	c #2674CF",
"A+	c #2470CD",
"B+	c #226DCB",
"C+	c #2069C8",
"D+	c #1D65C6",
"E+	c #1B62C3",
"F+	c #195EC1",
"G+	c #1658BB",
"H+	c #076243",
"I+	c #008000",
"J+	c #00DA00",
"K+	c #009500",
"L+	c #00563D",
"M+	c #005800",
"N+	c #007800",
"O+	c #00C700",
"P+	c #00CE00",
"Q+	c #008C00",
"R+	c #005F00",
"S+	c #005D00",
"T+	c #007000",
"U+	c #00BB00",
"V+	c #00C200",
"W+	c #008300",
"X+	c #005E00",
"Y+	c #005700",
"Z+	c #006D00",
"`+	c #00B000",
" @	c #00B600",
".@	c #007E00",
"+@	c #005900",
"@@	c #005B00",
"#@	c #006A00",
"$@	c #00A500",
"%@	c #007900",
"                                                                ",
"    . + @ # $ % & * = - ; > , ' ) ! ~ { ] ^ / ( _ : < [ } |     ",
"  . 1 2 3 4 5 6 7 8 9 0 a b c d e f g h i j k l m n n n o p q   ",
"  . 2 3 r s t u v w x y z A B C D E F G H I J K L n n n n M q   ",
"  . N 4 O P Q R S 9 0 a T U V W X Y Z `  ...+.@.n n n n n M q   ",
"  . #.$.%.&.*.=.-.;.>.,.'.).!.~.{.].^./.(._.:.<.[.}.}.|.1.2.q   ",
"  3.4.4.4.4.4.4.4.4.4.4.4.4.4.4.4.4.4.4.4.5.6.7.8.9.0.a.b.c.q   ",
"  d.4.4.4.4.4.4.4.4.4.4.4.4.4.4.4.4.4.4.5.6.7.8.9.e.a.b.f.g.q   ",
"  h.4.4.4.4.4.4.4.4.4.4.4.4.4.4.4.4.4.5.6.7.8.9.e.a.b.f.i.j.q   ",
"  k.4.4.4.4.4.4.4.4.4.4.4.4.4.4.4.4.5.6.7.8.9.e.a.b.f.i.l.m.q   ",
"  n.4.4.4.4.4.4.4.4.4.4.4.4.4.4.4.5.6.7.8.9.e.0.b.f.i.l.o.p.q   ",
"  q.4.4.4.4.4.4.4.4.4.4.4.4.4.4.5.6.7.8.9.e.0.b.f.i.l.o.r.s.q   ",
"  t.4.4.4.4.4.4.4.4.4.4.4.4.4.5.6.u.8.9.e.0.b.f.v.w.o.r.x.y.q   ",
"  z.4.4.4.4.4.4.4.4.4.4.4.4.A.6.u.8.9.e.0.b.f.v.w.o.r.x.B.C.q   ",
"  D.4.4.4.4.4.4.4.4.4.4.4.A.6.u.8.9.e.0.b.f.v.w.o.r.E.B.F.G.q   ",
"  H.4.4.4.4.4.4.4.4.4.4.A.6.u.I.9.e.0.b.f.v.w.o.r.E.B.F.J.K.q   ",
"  L.4.4.4.4.4.4.4.4.4.A.6.u.I.9.e.0.b.f.v.w.o.r.E.B.F.J.M.N.q   ",
"  O.4.4.4.4.4.4.4.4.A.6.P.Q.Q.Q.Q.Q.Q.Q.R.o.r.E.B.F.J.M.S.T.q   ",
"  U.4.4.4.4.4.4.4.A.6.u.V.W.X.Y.Y.Y.X.Z.`.r.E.B.F.J.M.S. +.+q   ",
"  ++4.4.4.4.4.4.A.6.u.I.@+#+$+$+$+$+$+#+@+E.B.%+J.M.S. +&+*+q   ",
"  =+4.4.4.4.4.4.6.u.I.-+;+>+>+>+>+>+>+>+;+B.%+J.M.S. +&+,+*+q   ",
"  '+4.4.4.4.4.6.u.I.8.e.)+!+~+~+~+~+~+!+)+%+J.M.S.{+&+,+]+^+q   ",
"  /+4.4.4.4.6.u.I.8.e.0.(+_+:+:+:+:+<+[+(+J.M.S.{+&+,+]+}+|+q   ",
"  1+4.4.4.6.u.I.8.2+3+3+4+5+6+6+7+8+9+9+4+0+0+a+&+,+]+}+b+|+q   ",
"  c+4.4.6.u.I.8.e.d+e+f+f+g+h+h+i+i+i+i+f+f+f+4+,+]+}+b+j+k+q   ",
"  l+m+n+o+p+q+r+c.s+t+u+v+v+v+v+v+v+v+v+v+v+@+w+*+^+|+|+k+x+q   ",
"  y+z+A+B+C+D+E+F+G+H+I+f+J+J+J+J+J+J+J+J+K+L+q q q q q q q q   ",
"                      M+N+O+P+P+P+P+P+P+Q+R+                    ",
"                        S+T+U+V+V+V+V+W+X+                      ",
"                          Y+Z+`+ @ @.@+@                        ",
"                            @@#@$@%@@@                          ",
"                              @@@@@@                            "};
