/* XPM */
static char * view_ascii_xpm[] = {
"32 32 238 2",
"  	c None",
". 	c #3995E5",
"+ 	c #4EA4EB",
"@ 	c #4BA0E9",
"# 	c #489BE8",
"$ 	c #4597E6",
"% 	c #4293E4",
"& 	c #3F8FE2",
"* 	c #3B8AE0",
"= 	c #3886DE",
"- 	c #3582DD",
"; 	c #327DDB",
"> 	c #2E79D9",
", 	c #2B74D7",
"' 	c #2870D5",
") 	c #256BD3",
"! 	c #2167D2",
"~ 	c #1E63D0",
"{ 	c #1B5ECE",
"] 	c #185ACC",
"^ 	c #1455CA",
"/ 	c #1151C8",
"( 	c #0E4CC7",
"_ 	c #0A48C5",
": 	c #0844C3",
"< 	c #0641C1",
"[ 	c #053FBF",
"} 	c #033ABB",
"| 	c #0133A5",
"1 	c #6EBBF5",
"2 	c #8ACEFF",
"3 	c #85C9FF",
"4 	c #80C4FF",
"5 	c #7ABEFF",
"6 	c #74B8FF",
"7 	c #6EB2FF",
"8 	c #68ACFF",
"9 	c #61A6FF",
"0 	c #5BA0FF",
"a 	c #559AFF",
"b 	c #4E93FF",
"c 	c #488DFF",
"d 	c #4186FF",
"e 	c #3B80FF",
"f 	c #347AFF",
"g 	c #2E73FF",
"h 	c #276CFF",
"i 	c #2066FF",
"j 	c #1A5FFF",
"k 	c #1359FF",
"l 	c #0C52FF",
"m 	c #054BFF",
"n 	c #0349FF",
"o 	c #0347FD",
"p 	c #0231C5",
"q 	c #0032A4",
"r 	c #80C5FF",
"s 	c #7BBFFF",
"t 	c #76BAFF",
"u 	c #70B5FF",
"v 	c #6AAFFF",
"w 	c #64A9FF",
"x 	c #5EA3FF",
"y 	c #589DFF",
"z 	c #5297FF",
"A 	c #4C91FF",
"B 	c #458BFF",
"C 	c #3F84FF",
"D 	c #397EFF",
"E 	c #3277FF",
"F 	c #2C71FF",
"G 	c #256BFF",
"H 	c #1E64FF",
"I 	c #185EFF",
"J 	c #1157FF",
"K 	c #0B50FF",
"L 	c #044AFF",
"M 	c #0330D9",
"N 	c #84C8FF",
"O 	c #7BC0FF",
"P 	c #77BBFF",
"Q 	c #71B6FF",
"R 	c #6CB1FF",
"S 	c #67ABFF",
"T 	c #4F94FF",
"U 	c #498EFF",
"V 	c #4388FF",
"W 	c #3C82FF",
"X 	c #367BFF",
"Y 	c #3075FF",
"Z 	c #296FFF",
"` 	c #2368FF",
" .	c #1C62FF",
"..	c #165BFF",
"+.	c #0F55FF",
"@.	c #094FFF",
"#.	c #BFE1FF",
"$.	c #BDE0FF",
"%.	c #BBDEFF",
"&.	c #B9DBFF",
"*.	c #B7D9FF",
"=.	c #B4D6FF",
"-.	c #B1D4FF",
";.	c #AFD1FF",
">.	c #ACCEFF",
",.	c #A9CBFF",
"'.	c #A6C8FF",
").	c #A3C5FF",
"!.	c #A0C2FF",
"~.	c #9DBFFF",
"{.	c #9ABCFF",
"].	c #96B9FF",
"^.	c #93B6FF",
"/.	c #90B3FF",
"(.	c #8DB0FF",
"_.	c #89ACFF",
":.	c #85A8FF",
"<.	c #82A5FE",
"[.	c #7FA2FE",
"}.	c #7EA1FD",
"|.	c #7DA0FD",
"1.	c #7DA0FC",
"2.	c #768CE3",
"3.	c #3994E5",
"4.	c #FFFFFF",
"5.	c #FEFEFE",
"6.	c #FDFDFE",
"7.	c #FBFBFD",
"8.	c #FAFAFC",
"9.	c #F9F9FB",
"0.	c #F7F7FA",
"a.	c #F6F6FA",
"b.	c #F5F5F9",
"c.	c #E7E6EC",
"d.	c #3893E4",
"e.	c #F8F8FB",
"f.	c #F4F4F8",
"g.	c #E5E4EB",
"h.	c #3792E3",
"i.	c #F3F3F7",
"j.	c #E3E2E9",
"k.	c #3690E2",
"l.	c #818181",
"m.	c #F1F1F7",
"n.	c #E1E0E7",
"o.	c #368FE1",
"p.	c #F0F0F6",
"q.	c #DFDEE6",
"r.	c #358EE0",
"s.	c #EFEFF5",
"t.	c #DDDCE4",
"u.	c #348CDF",
"v.	c #FCFCFD",
"w.	c #F3F3F8",
"x.	c #F2F2F7",
"y.	c #EEEEF4",
"z.	c #DAD9E3",
"A.	c #338BDE",
"B.	c #EDEDF4",
"C.	c #D8D7E1",
"D.	c #3289DD",
"E.	c #FEFEFF",
"F.	c #EEEEF5",
"G.	c #EBEBF3",
"H.	c #D6D5DF",
"I.	c #3188DC",
"J.	c #FBFBFC",
"K.	c #EAEAF2",
"L.	c #D4D3DE",
"M.	c #3186DB",
"N.	c #E9E9F2",
"O.	c #D2D1DC",
"P.	c #3085DA",
"Q.	c #E8E8F1",
"R.	c #D0CEDA",
"S.	c #2F83DA",
"T.	c #F9F9FC",
"U.	c #F6F6F9",
"V.	c #F1F1F6",
"W.	c #E6E6F0",
"X.	c #CFCDD9",
"Y.	c #2E82D9",
"Z.	c #F4F4F9",
"`.	c #ECECF3",
" +	c #E5E5EF",
".+	c #CECDD9",
"++	c #2D81D8",
"@+	c #E4E4EF",
"#+	c #2C7FD7",
"$+	c #E3E3EE",
"%+	c #CECCD9",
"&+	c #2C7ED6",
"*+	c #EFEFF6",
"=+	c #E7E7F0",
"-+	c #E2E2ED",
";+	c #CDCCD9",
">+	c #2B7CD5",
",+	c #E0E0EC",
"'+	c #2A7BD4",
")+	c #E6E6EF",
"!+	c #DFDFEC",
"~+	c #CDCBD8",
"{+	c #2979D3",
"]+	c #F2F2F5",
"^+	c #F0F0F3",
"/+	c #EEEEF2",
"(+	c #ECECF0",
"_+	c #EBEAEF",
":+	c #E9E8ED",
"<+	c #E1E0E8",
"[+	c #DDDCE5",
"}+	c #DBDAE3",
"|+	c #DAD8E2",
"1+	c #D8D6E0",
"2+	c #D6D4DF",
"3+	c #D4D3DD",
"4+	c #D0CFDA",
"5+	c #CFCEDA",
"6+	c #C8C7D4",
"7+	c #2878D2",
"8+	c #2674CF",
"9+	c #2470CD",
"0+	c #226DCB",
"a+	c #2069C8",
"b+	c #1D65C6",
"c+	c #1B62C3",
"d+	c #195EC1",
"e+	c #175ABE",
"f+	c #1556BC",
"g+	c #1352B9",
"h+	c #114FB7",
"i+	c #0E4BB5",
"j+	c #0C47B2",
"k+	c #0A44B0",
"l+	c #0840AD",
"m+	c #063CAB",
"n+	c #0438A8",
"o+	c #0235A6",
"                                                                ",
"                                                                ",
"  . + @ # $ % & * = - ; > , ' ) ! ~ { ] ^ / ( _ : < [ } |       ",
". 1 2 3 4 5 6 7 8 9 0 a b c d e f g h i j k l m n n n o p q     ",
". 2 3 r s t u v w x y z A B C D E F G H I J K L n n n n M q     ",
". N 4 O P Q R S 9 0 a T U V W X Y Z `  ...+.@.n n n n n M q     ",
". #.$.%.&.*.=.-.;.>.,.'.).!.~.{.].^./.(._.:.<.[.}.}.|.1.2.q     ",
"3.4.4.4.4.4.4.4.4.4.4.4.4.4.4.4.4.4.4.4.5.6.7.8.9.0.a.b.c.q     ",
"d.4.4.4.4.4.4.4.4.4.4.4.4.4.4.4.4.4.4.5.6.7.8.9.e.a.b.f.g.q     ",
"h.4.4.4.4.4.4.4.4.4.4.4.4.4.4.4.4.4.5.6.7.8.9.e.a.b.f.i.j.q     ",
"k.4.4.l.l.l.l.l.l.l.4.4.4.l.l.l.l.l.l.l.l.l.l.l.l.l.i.m.n.q     ",
"o.4.4.4.4.4.4.4.4.4.4.4.4.4.4.4.5.6.7.8.9.e.0.b.f.i.m.p.q.q     ",
"r.4.4.4.4.4.4.4.4.4.4.4.4.4.4.5.6.7.8.9.e.0.b.f.i.m.p.s.t.q     ",
"u.4.4.4.4.4.4.4.4.4.4.4.4.4.5.6.v.8.9.e.0.b.f.w.x.p.s.y.z.q     ",
"A.4.4.l.l.l.l.l.l.l.4.4.4.l.l.l.l.l.l.l.l.l.l.l.l.l.y.B.C.q     ",
"D.4.4.4.4.4.4.4.4.4.4.4.E.6.v.8.9.e.0.b.f.w.x.p.s.F.B.G.H.q     ",
"I.4.4.4.4.4.4.4.4.4.4.E.6.v.J.9.e.0.b.f.w.x.p.s.F.B.G.K.L.q     ",
"M.4.4.4.4.4.4.4.4.4.E.6.v.J.9.e.0.b.f.w.x.p.s.F.B.G.K.N.O.q     ",
"P.4.4.l.l.l.l.l.l.l.6.v.J.l.l.l.l.l.l.l.l.l.l.l.l.l.N.Q.R.q     ",
"S.4.4.4.4.4.4.4.E.6.v.J.T.e.0.U.f.w.x.V.s.F.B.G.K.N.Q.W.X.q     ",
"Y.4.4.4.4.4.4.E.6.v.J.T.e.0.U.Z.w.x.V.s.F.B.`.K.N.Q.W. +.+q     ",
"++4.4.4.4.4.4.6.v.J.T.e.0.U.Z.w.x.V.s.F.B.`.K.N.Q.W. +@+.+q     ",
"#+4.4.l.l.l.l.l.l.l.e.0.U.l.l.l.l.l.l.l.l.l.l.l.l.l.@+$+%+q     ",
"&+4.4.4.4.6.v.J.8.e.0.U.Z.w.x.V.*+F.B.`.K.N.Q.=+ +@+$+-+;+q     ",
">+4.4.4.6.v.J.8.e.0.U.b.w.x.V.*+F.B.`.K.N.Q.=+ +@+$+-+,+;+q     ",
"'+4.4.6.v.J.8.e.0.U.b.w.x.V.p.F.B.`.K.N.Q.=+)+@+$+-+,+!+~+q     ",
"{+]+^+/+(+_+:+c.g.j.<+q.[+}+|+1+2+3+O.4+5+X..+.+%+;+;+~+6+q     ",
"7+8+9+0+a+b+c+d+e+f+g+h+i+j+k+l+m+n+o+q q q q q q q q q q q     ",
"                                                                ",
"                                                                ",
"                                                                ",
"                                                                "};
