/* XPM */
static char * view_hex_xpm[] = {
"32 32 245 2",
"  	c None",
". 	c #3995E5",
"+ 	c #4EA4EB",
"@ 	c #4BA0E9",
"# 	c #489BE8",
"$ 	c #4597E6",
"% 	c #4293E4",
"& 	c #3F8FE2",
"* 	c #3B8AE0",
"= 	c #3886DE",
"- 	c #3582DD",
"; 	c #327DDB",
"> 	c #2E79D9",
", 	c #2B74D7",
"' 	c #2870D5",
") 	c #256BD3",
"! 	c #2167D2",
"~ 	c #1E63D0",
"{ 	c #1B5ECE",
"] 	c #185ACC",
"^ 	c #1455CA",
"/ 	c #1151C8",
"( 	c #0E4CC7",
"_ 	c #0A48C5",
": 	c #0844C3",
"< 	c #0641C1",
"[ 	c #053FBF",
"} 	c #033ABB",
"| 	c #0133A5",
"1 	c #6EBBF5",
"2 	c #8ACEFF",
"3 	c #85C9FF",
"4 	c #80C4FF",
"5 	c #7ABEFF",
"6 	c #74B8FF",
"7 	c #6EB2FF",
"8 	c #68ACFF",
"9 	c #61A6FF",
"0 	c #5BA0FF",
"a 	c #559AFF",
"b 	c #4E93FF",
"c 	c #488DFF",
"d 	c #4186FF",
"e 	c #3B80FF",
"f 	c #347AFF",
"g 	c #2E73FF",
"h 	c #276CFF",
"i 	c #2066FF",
"j 	c #1A5FFF",
"k 	c #1359FF",
"l 	c #0C52FF",
"m 	c #054BFF",
"n 	c #0349FF",
"o 	c #0347FD",
"p 	c #0231C5",
"q 	c #0032A4",
"r 	c #80C5FF",
"s 	c #7BBFFF",
"t 	c #76BAFF",
"u 	c #70B5FF",
"v 	c #6AAFFF",
"w 	c #64A9FF",
"x 	c #5EA3FF",
"y 	c #589DFF",
"z 	c #5297FF",
"A 	c #4C91FF",
"B 	c #458BFF",
"C 	c #3F84FF",
"D 	c #397EFF",
"E 	c #3277FF",
"F 	c #2C71FF",
"G 	c #256BFF",
"H 	c #1E64FF",
"I 	c #185EFF",
"J 	c #1157FF",
"K 	c #0B50FF",
"L 	c #044AFF",
"M 	c #0330D9",
"N 	c #84C8FF",
"O 	c #7BC0FF",
"P 	c #77BBFF",
"Q 	c #71B6FF",
"R 	c #6CB1FF",
"S 	c #67ABFF",
"T 	c #4F94FF",
"U 	c #498EFF",
"V 	c #4388FF",
"W 	c #3C82FF",
"X 	c #367BFF",
"Y 	c #3075FF",
"Z 	c #296FFF",
"` 	c #2368FF",
" .	c #1C62FF",
"..	c #165BFF",
"+.	c #0F55FF",
"@.	c #094FFF",
"#.	c #BFE1FF",
"$.	c #BDE0FF",
"%.	c #BBDEFF",
"&.	c #B9DBFF",
"*.	c #B7D9FF",
"=.	c #B4D6FF",
"-.	c #B1D4FF",
";.	c #AFD1FF",
">.	c #ACCEFF",
",.	c #A9CBFF",
"'.	c #A6C8FF",
").	c #A3C5FF",
"!.	c #A0C2FF",
"~.	c #9DBFFF",
"{.	c #9ABCFF",
"].	c #96B9FF",
"^.	c #93B6FF",
"/.	c #90B3FF",
"(.	c #8DB0FF",
"_.	c #89ACFF",
":.	c #85A8FF",
"<.	c #82A5FE",
"[.	c #7FA2FE",
"}.	c #7EA1FD",
"|.	c #7DA0FD",
"1.	c #7DA0FC",
"2.	c #768CE3",
"3.	c #3994E5",
"4.	c #FFFFFF",
"5.	c #FEFEFE",
"6.	c #FDFDFE",
"7.	c #FBFBFD",
"8.	c #FAFAFC",
"9.	c #F7F7FA",
"0.	c #F6F6FA",
"a.	c #F5F5F9",
"b.	c #E7E6EC",
"c.	c #3893E4",
"d.	c #E18515",
"e.	c #D56106",
"f.	c #F4F4F8",
"g.	c #E5E4EB",
"h.	c #3792E3",
"i.	c #FFFEFE",
"j.	c #FEF3CB",
"k.	c #F3F3F7",
"l.	c #E3E2E9",
"m.	c #3690E2",
"n.	c #FCE8A0",
"o.	c #FAFAFB",
"p.	c #F1F1F7",
"q.	c #E1E0E7",
"r.	c #368FE1",
"s.	c #FCDA74",
"t.	c #F7F7F9",
"u.	c #F0F0F6",
"v.	c #DFDEE6",
"w.	c #358EE0",
"x.	c #F4F4F7",
"y.	c #EFEFF5",
"z.	c #DDDCE4",
"A.	c #348CDF",
"B.	c #FBFBFC",
"C.	c #F9F9FB",
"D.	c #EEEEF4",
"E.	c #DAD9E3",
"F.	c #338BDE",
"G.	c #EDEDF4",
"H.	c #D8D7E1",
"I.	c #3289DD",
"J.	c #FCFCFD",
"K.	c #EBEBF3",
"L.	c #D6D5DF",
"M.	c #3188DC",
"N.	c #F3F3F8",
"O.	c #EAEAF2",
"P.	c #D4D3DE",
"Q.	c #3186DB",
"R.	c #EEEEF5",
"S.	c #E9E9F2",
"T.	c #D2D1DC",
"U.	c #3085DA",
"V.	c #F8F8FB",
"W.	c #E8E8F1",
"X.	c #D0CEDA",
"Y.	c #2F83DA",
"Z.	c #F9F9FC",
"`.	c #F6F6F9",
" +	c #F2F2F7",
".+	c #E6E6F0",
"++	c #CFCDD9",
"@+	c #2E82D9",
"#+	c #E5E5EF",
"$+	c #CECDD9",
"%+	c #2D81D8",
"&+	c #F4F4F9",
"*+	c #E4E4EF",
"=+	c #2C7FD7",
"-+	c #E3E3EE",
";+	c #CECCD9",
">+	c #2C7ED6",
",+	c #FBFBFB",
"'+	c #E2E2ED",
")+	c #CDCCD9",
"!+	c #2B7CD5",
"~+	c #F1F1F6",
"{+	c #E0E0EC",
"]+	c #2A7BD4",
"^+	c #FCFCFC",
"/+	c #FAFAFA",
"(+	c #ECECF3",
"_+	c #DFDFEC",
":+	c #CDCBD8",
"<+	c #2979D3",
"[+	c #F2F2F5",
"}+	c #F0F0F3",
"|+	c #EEEEF2",
"1+	c #ECECF0",
"2+	c #EBEAEF",
"3+	c #E9E8ED",
"4+	c #E1E0E8",
"5+	c #DDDCE5",
"6+	c #DBDAE3",
"7+	c #DAD8E2",
"8+	c #D8D6E0",
"9+	c #D6D4DF",
"0+	c #D4D3DD",
"a+	c #D0CFDA",
"b+	c #CFCEDA",
"c+	c #C8C7D4",
"d+	c #2878D2",
"e+	c #2674CF",
"f+	c #2470CD",
"g+	c #226DCB",
"h+	c #2069C8",
"i+	c #1D65C6",
"j+	c #1B62C3",
"k+	c #195EC1",
"l+	c #175ABE",
"m+	c #1556BC",
"n+	c #1352B9",
"o+	c #114FB7",
"p+	c #0E4BB5",
"q+	c #0C47B2",
"r+	c #0A44B0",
"s+	c #0840AD",
"t+	c #063CAB",
"u+	c #0438A8",
"v+	c #0235A6",
"                                                                ",
"                                                                ",
"  . + @ # $ % & * = - ; > , ' ) ! ~ { ] ^ / ( _ : < [ } |       ",
". 1 2 3 4 5 6 7 8 9 0 a b c d e f g h i j k l m n n n o p q     ",
". 2 3 r s t u v w x y z A B C D E F G H I J K L n n n n M q     ",
". N 4 O P Q R S 9 0 a T U V W X Y Z `  ...+.@.n n n n n M q     ",
". #.$.%.&.*.=.-.;.>.,.'.).!.~.{.].^./.(._.:.<.[.}.}.|.1.2.q     ",
"3.4.4.4.4.4.4.4.4.4.4.4.4.4.4.4.4.4.4.4.5.6.7.8.9.9.0.a.b.q     ",
"c.4.4.d.d.d.d.e.4.d.d.d.d.e.4.d.d.d.d.e.7.d.d.d.d.e.a.f.g.q     ",
"h.4.4.d.i.i.j.e.4.d.i.i.j.e.4.d.i.i.j.e.5.d.i.i.j.e.f.k.l.q     ",
"m.4.4.d.i.j.n.e.4.d.i.j.n.e.4.d.i.j.n.e.o.d.i.j.n.e.k.p.q.q     ",
"r.4.4.d.j.n.s.e.4.d.j.n.s.e.4.d.j.n.s.e.t.d.j.n.s.e.p.u.v.q     ",
"w.4.4.e.e.e.e.e.4.e.e.e.e.e.4.e.e.e.e.e.x.e.e.e.e.e.u.y.z.q     ",
"A.4.4.4.4.4.4.4.4.4.4.4.4.4.5.6.B.C.9.k.k.k.k.k.k.u.y.D.E.q     ",
"F.4.4.d.d.d.d.e.4.d.d.d.d.e.6.d.d.d.d.e.f.d.d.d.d.e.D.G.H.q     ",
"I.4.4.d.i.i.j.e.4.d.i.i.j.e.J.d.i.i.j.e.k.d.i.i.j.e.G.K.L.q     ",
"M.4.4.d.i.j.n.e.4.d.i.j.n.e.B.d.i.j.n.e.N.d.i.j.n.e.K.O.P.q     ",
"Q.4.4.d.j.n.s.e.4.d.j.n.s.e.C.d.j.n.s.e.R.d.j.n.s.e.O.S.T.q     ",
"U.4.4.e.e.e.e.e.4.e.e.e.e.e.V.e.e.e.e.e.R.e.e.e.e.e.S.W.X.q     ",
"Y.4.4.4.4.4.4.4.4.4.4.B.Z.V.9.`.f.N. +R.R.R.R.R.R.S.W..+++q     ",
"@+4.4.d.d.d.d.e.4.d.d.d.d.e.`.d.d.d.d.e.R.d.d.d.d.e..+#+$+q     ",
"%+4.4.d.i.i.j.e.4.d.i.i.j.e.&+d.i.i.j.e.R.d.i.i.j.e.#+*+$+q     ",
"=+4.4.d.i.j.n.e.4.d.i.j.n.e.N.d.i.j.n.e.R.d.i.j.n.e.*+-+;+q     ",
">+4.4.d.j.n.s.e.,+d.j.n.s.e. +d.j.n.s.e.G.d.j.n.s.e.-+'+)+q     ",
"!+4.4.e.e.e.e.e.`.e.e.e.e.e.~+e.e.e.e.e.#+e.e.e.e.e.'+{+)+q     ",
"]+4.4.6.J.4.5.^+/+t.V.N. +~+u.R.G.(+O.-+-+-+-+-+-+'+{+_+:+q     ",
"<+[+}+|+1+2+3+b.g.l.4+v.5+6+7+8+9+0+T.a+b+++$+$+;+)+)+:+c+q     ",
"d+e+f+g+h+i+j+k+l+m+n+o+p+q+r+s+t+u+v+q q q q q q q q q q q     ",
"                                                                ",
"                                                                ",
"                                                                ",
"                                                                "};
