/* XPM */
static char * clear_32_xpm[] = {
"32 32 480 2",
"  	c None",
". 	c #5F5F76",
"+ 	c #68687C",
"@ 	c #727284",
"# 	c #7B7B8B",
"$ 	c #838392",
"% 	c #7D7D8D",
"& 	c #606072",
"* 	c #696981",
"= 	c #7A7A8E",
"- 	c #9090A0",
"; 	c #A5A5B2",
"> 	c #BBBBC5",
", 	c #D3D3DA",
"' 	c #E5E5E9",
") 	c #EFEFF1",
"! 	c #F5F5F6",
"~ 	c #FBFBFB",
"{ 	c #EAEAEC",
"] 	c #6B6B7C",
"^ 	c #75758B",
"/ 	c #8A8A9D",
"( 	c #A2A2B1",
"_ 	c #BDBDC8",
": 	c #DFDFE4",
"< 	c #FBFBFC",
"[ 	c #FFFFFF",
"} 	c #FDFDFD",
"| 	c #EFEFEE",
"1 	c #DFDFDF",
"2 	c #92929E",
"3 	c #6F6F8A",
"4 	c #85859B",
"5 	c #A4A4B3",
"6 	c #C1C1CC",
"7 	c #E6E6EB",
"8 	c #FBFBFD",
"9 	c #F5F5F5",
"0 	c #F0F0F0",
"a 	c #DBDBDC",
"b 	c #CBCBCC",
"c 	c #C9C9C9",
"d 	c #E0E0E0",
"e 	c #C5C5C6",
"f 	c #E1E1E1",
"g 	c #FCFCFC",
"h 	c #E9E9EA",
"i 	c #F8F8F8",
"j 	c #BEBEC5",
"k 	c #7E7E99",
"l 	c #9595A9",
"m 	c #B4B4C3",
"n 	c #DADAE1",
"o 	c #F8F8FB",
"p 	c #F0F0F2",
"q 	c #E0E0E2",
"r 	c #BABABA",
"s 	c #E1E1E3",
"t 	c #EAEAEB",
"u 	c #C7C7C9",
"v 	c #CECECF",
"w 	c #CFCFD1",
"x 	c #D6D6D7",
"y 	c #D5D5D6",
"z 	c #D5D5D5",
"A 	c #F9F9F9",
"B 	c #666676",
"C 	c #76768E",
"D 	c #CCCCD2",
"E 	c #FDFDFE",
"F 	c #FAFAFC",
"G 	c #ECECEF",
"H 	c #E4E4E6",
"I 	c #E0E0E3",
"J 	c #B4B4B7",
"K 	c #CACACD",
"L 	c #CDCDCF",
"M 	c #D2D2D4",
"N 	c #DEDEE0",
"O 	c #D8D8DA",
"P 	c #D3D3D5",
"Q 	c #CECED0",
"R 	c #DBDBDD",
"S 	c #DADADB",
"T 	c #D4D4D5",
"U 	c #EFEEF0",
"V 	c #EEEEF0",
"W 	c #8D8D99",
"X 	c #7B7B95",
"Y 	c #A5A5AD",
"Z 	c #F4F4F6",
"` 	c #F2F2F6",
" .	c #F2F2F5",
"..	c #AEAEAF",
"+.	c #B0B0B3",
"@.	c #D7D7D9",
"#.	c #E8E8EA",
"$.	c #D0D0D3",
"%.	c #D1D1D4",
"&.	c #D0D0D2",
"*.	c #E4E4E7",
"=.	c #F5F5F7",
"-.	c #ECECEE",
";.	c #D1D1D3",
">.	c #D7D7D8",
",.	c #DEE0E0",
"'.	c #E0E3E3",
").	c #DADEDE",
"!.	c #F9F9FA",
"~.	c #C6C6CB",
"{.	c #555567",
"].	c #8787A0",
"^.	c #DDDDE5",
"/.	c #DEDEDF",
"(.	c #C8C8CB",
"_.	c #F3F3F9",
":.	c #A0A0A1",
"<.	c #DEDEE2",
"[.	c #DDDDE0",
"}.	c #D5D5D8",
"|.	c #D8D8DB",
"1.	c #DBDBDE",
"2.	c #EAEAED",
"3.	c #EDEDF0",
"4.	c #ECECF1",
"5.	c #F7F7FB",
"6.	c #E8E8EB",
"7.	c #EFF0F0",
"8.	c #F3F4F4",
"9.	c #D5D7D7",
"0.	c #C3C5C5",
"a.	c #C5C9C9",
"b.	c #D8D9DA",
"c.	c #F7F7F9",
"d.	c #727281",
"e.	c #7A7A97",
"f.	c #D9D9E1",
"g.	c #FFFFFD",
"h.	c #EEEEED",
"i.	c #C3C3C4",
"j.	c #E1E1E6",
"k.	c #F2F2F7",
"l.	c #E7E7EB",
"m.	c #CBCBCE",
"n.	c #D4D4D9",
"o.	c #D2D2D6",
"p.	c #CDCDD0",
"q.	c #CECED1",
"r.	c #E2E2E5",
"s.	c #F1F1F5",
"t.	c #EDEEEE",
"u.	c #D8D9D8",
"v.	c #BFC1C1",
"w.	c #A5A7A7",
"x.	c #ADB0B0",
"y.	c #A6A9AA",
"z.	c #B9B9C0",
"A.	c #515163",
"B.	c #B2B2C2",
"C.	c #FBFBF9",
"D.	c #EAEAEA",
"E.	c #D3D3D2",
"F.	c #C4C4C7",
"G.	c #F1F1F6",
"H.	c #E7E7EC",
"I.	c #D3D3D7",
"J.	c #DBDBDF",
"K.	c #D4D4D8",
"L.	c #C4C4C8",
"M.	c #C5C5C8",
"N.	c #CBCBCF",
"O.	c #C6C6C9",
"P.	c #DFDFE3",
"Q.	c #E2E2E4",
"R.	c #B2B3B2",
"S.	c #BEC0C0",
"T.	c #9FA2A2",
"U.	c #6F7171",
"V.	c #A3A7A7",
"W.	c #CDCED0",
"X.	c #6E6E7E",
"Y.	c #8C8CA5",
"Z.	c #E3E3E4",
"`.	c #E5E5E5",
" +	c #DEDEDE",
".+	c #BFBFC0",
"++	c #EAEAEF",
"@+	c #CCCCD0",
"#+	c #C9C9CD",
"$+	c #C5C5C9",
"%+	c #CFCFD3",
"&+	c #CACACE",
"*+	c #C8C8CC",
"=+	c #DDDDE1",
"-+	c #858686",
";+	c #ACAEAD",
">+	c #BEC1C1",
",+	c #818383",
"'+	c #939898",
")+	c #C8CDCE",
"!+	c #F2F2F3",
"~+	c #C1C1C8",
"{+	c #525264",
"]+	c #D6D6D4",
"^+	c #E3E3E3",
"/+	c #CBCBCB",
"(+	c #C1C1C4",
"_+	c #EDEDF2",
":+	c #CCCCD1",
"<+	c #C9C9CE",
"[+	c #CDCDD2",
"}+	c #CBCBD1",
"|+	c #CACACF",
"1+	c #C7C7CC",
"2+	c #CECED2",
"3+	c #EFEFF5",
"4+	c #D7D7DB",
"5+	c #D0D1D4",
"6+	c #BABBBB",
"7+	c #B6B9B9",
"8+	c #7F8181",
"9+	c #707474",
"0+	c #C3CAC9",
"a+	c #D5D8DA",
"b+	c #81818E",
"c+	c #A6A6B7",
"d+	c #CFCFCD",
"e+	c #BABABB",
"f+	c #DBDBE1",
"g+	c #DCDCE3",
"h+	c #C6C6CA",
"i+	c #E5E5EA",
"j+	c #DADADE",
"k+	c #E8EAEB",
"l+	c #BDBFBF",
"m+	c #666968",
"n+	c #7D8181",
"o+	c #CED4D5",
"p+	c #D2D5D7",
"q+	c #5B5B6C",
"r+	c #8C8CA4",
"s+	c #D2D2D2",
"t+	c #D4D4D3",
"u+	c #DCDCDC",
"v+	c #C3C3C3",
"w+	c #C2C2C6",
"x+	c #E5E5EB",
"y+	c #C4C4C9",
"z+	c #C8C8CD",
"A+	c #CBCBD0",
"B+	c #CDCDD3",
"C+	c #E9E9EF",
"D+	c #E2E2E7",
"E+	c #E3E5E6",
"F+	c #E7EAE9",
"G+	c #A8AAAC",
"H+	c #ABACAF",
"I+	c #ECECF0",
"J+	c #EFEFF3",
"K+	c #59596A",
"L+	c #BEBEC7",
"M+	c #CFCFCE",
"N+	c #DADADA",
"O+	c #D0D0D0",
"P+	c #B7B7B8",
"Q+	c #E0E0E7",
"R+	c #CFCFD7",
"S+	c #C3C3C9",
"T+	c #C8C8CE",
"U+	c #C9C9CF",
"V+	c #C5C5CA",
"W+	c #D7D7DC",
"X+	c #E0E1E6",
"Y+	c #DEDFE3",
"Z+	c #EDEDF3",
"`+	c #ECECF2",
" @	c #EBEBF0",
".@	c #F0F0F5",
"+@	c #F6F6FA",
"@@	c #636372",
"#@	c #939BB1",
"$@	c #D4DAD9",
"%@	c #D5D5D4",
"&@	c #D5D4D5",
"*@	c #BCBBBA",
"=@	c #D0D4DA",
"-@	c #DEE4EC",
";@	c #C7CED5",
">@	c #C5C5CC",
",@	c #C4C4CA",
"'@	c #C6C6CC",
")@	c #C3C3C8",
"!@	c #CACAD0",
"~@	c #BEBEC3",
"{@	c #D0D0D6",
"]@	c #EAEAF0",
"^@	c #E8E8EF",
"/@	c #EAE9EF",
"(@	c #E8E8EE",
"_@	c #F6F6FB",
":@	c #91919C",
"<@	c #515162",
"[@	c #8E4A5A",
"}@	c #BD9799",
"|@	c #CED5D4",
"1@	c #D7D6D7",
"2@	c #C8CFCE",
"3@	c #B1A1A4",
"4@	c #C78D92",
"5@	c #B1898F",
"6@	c #BEC3C9",
"7@	c #C4C5CD",
"8@	c #C4C4CB",
"9@	c #C9C9D0",
"0@	c #E7E7EE",
"a@	c #E7E7ED",
"b@	c #B4B4BE",
"c@	c #646475",
"d@	c #C45253",
"e@	c #F1C8C5",
"f@	c #D28688",
"g@	c #B47979",
"h@	c #D7E5E5",
"i@	c #C2AEAE",
"j@	c #B25F61",
"k@	c #E2BCBA",
"l@	c #CA8C8C",
"m@	c #A5696C",
"n@	c #C1C5CE",
"o@	c #BDBEC4",
"p@	c #C3C3CA",
"q@	c #C7C7CE",
"r@	c #DEDEE5",
"s@	c #EBEBF2",
"t@	c #D0D0D7",
"u@	c #7E7E8D",
"v@	c #525265",
"w@	c #C45859",
"x@	c #FCD5CB",
"y@	c #FF5D3F",
"z@	c #FEB8A7",
"A@	c #CF9192",
"B@	c #B06464",
"C@	c #BB6E70",
"D@	c #EDCDCA",
"E@	c #DE5546",
"F@	c #E79A8E",
"G@	c #C88E8E",
"H@	c #A37377",
"I@	c #C5CAD2",
"J@	c #C0C0C7",
"K@	c #BDBDC4",
"L@	c #DBDBE2",
"M@	c #DDDDE4",
"N@	c #9999A5",
"O@	c #5C5C6F",
"P@	c #E7C2C3",
"Q@	c #FF967D",
"R@	c #F20C00",
"S@	c #ED2708",
"T@	c #F6B6A9",
"U@	c #D7B0B3",
"V@	c #E9C9C6",
"W@	c #DB4733",
"X@	c #C80000",
"Y@	c #CB2A1B",
"Z@	c #EED9D6",
"`@	c #8F4D4F",
" #	c #B1B6BE",
".#	c #C5C5CD",
"+#	c #BFBFC6",
"@#	c #C8C8CF",
"##	c #E6E6ED",
"$#	c #AFAFBA",
"%#	c #6C6C7E",
"&#	c #B13334",
"*#	c #F1D2CE",
"=#	c #F57054",
"-#	c #E51100",
";#	c #E02204",
">#	c #EC9F92",
",#	c #DB4B38",
"'#	c #C90100",
")#	c #CA2618",
"!#	c #EAC2BD",
"~#	c #B17374",
"{#	c #856367",
"]#	c #B6BBC4",
"^#	c #BBBBC2",
"/#	c #C2C2C9",
"(#	c #E1E1E9",
"_#	c #777788",
":#	c #A92E2F",
"<#	c #E9CFCF",
"[#	c #EB735C",
"}#	c #D91B01",
"|#	c #D11100",
"1#	c #CB0E00",
"2#	c #CD3627",
"3#	c #E5C0BB",
"4#	c #AF7B7D",
"5#	c #8F6B70",
"6#	c #B2BAC2",
"7#	c #BABAC2",
"8#	c #C2C2CB",
"9#	c #D3D3DB",
"0#	c #BABAC5",
"a#	c #808091",
"b#	c #5D5D73",
"c#	c #C78E91",
"d#	c #F4CFC6",
"e#	c #D3210D",
"f#	c #CB1300",
"g#	c #C30A00",
"h#	c #D87F73",
"i#	c #DDCFD0",
"j#	c #884246",
"k#	c #D1D9E3",
"l#	c #CCCFD8",
"m#	c #BDBDC6",
"n#	c #D4D4DC",
"o#	c #D7D7DF",
"p#	c #838394",
"q#	c #606076",
"r#	c #C07374",
"s#	c #F1CEC8",
"t#	c #D6321C",
"u#	c #CA0B00",
"v#	c #C7200F",
"w#	c #BD0C00",
"x#	c #B60600",
"y#	c #D38581",
"z#	c #CDACAC",
"A#	c #A96D72",
"B#	c #D6D6E0",
"C#	c #CCCCD4",
"D#	c #ABABB6",
"E#	c #7F7F90",
"F#	c #64647A",
"G#	c #BE6D6E",
"H#	c #F2C7C0",
"I#	c #D62918",
"J#	c #C70100",
"K#	c #CE3D2F",
"L#	c #EDDEDB",
"M#	c #D37B73",
"N#	c #AD0000",
"O#	c #A70000",
"P#	c #CA7E7C",
"Q#	c #C69C9B",
"R#	c #885E64",
"S#	c #798194",
"T#	c #67667D",
"U#	c #DBB7B8",
"V#	c #E88D7F",
"W#	c #C40000",
"X#	c #D04135",
"Y#	c #E8D3D1",
"Z#	c #AC6768",
"`#	c #D2B6B6",
" $	c #CD7773",
".$	c #9C0000",
"+$	c #A82322",
"@$	c #E2D1D0",
"#$	c #753238",
"$$	c #972021",
"%$	c #DEBEBD",
"&$	c #E5988F",
"*$	c #E7CFCD",
"=$	c #9E4C4D",
"-$	c #D1BBBB",
";$	c #CF9391",
">$	c #D9BCBC",
",$	c #9A5A59",
"'$	c #911C1C",
")$	c #C38F90",
"!$	c #9C4041",
"~$	c #781111",
"{$	c #B48787",
"]$	c #914B4B",
"                                                                ",
"                                                                ",
"                                      . + @ # $ % &             ",
"                            * = - ; > , ' ) ! ~ { ]             ",
"                    ^ / ( _ : < [ } [ | 1 < [ [ [ 2             ",
"            3 4 5 6 7 8 [ [ 9 0 a b c d e f g h i j             ",
"      k l m n o [ [ p ) ) q r s t u v 1 w x y z A p B           ",
"    C D E E F G u H I J K L L M N O P Q R S T U V [ W           ",
"    X Y Z `  .N ..+.o @.#.$.O %.&.*.=.-.;.>.,.'.).!.~.{.        ",
"  ].^./.(._.` s J :.<.[.}.|.1.2.3.4.5.6.7.8.9.0.a.b.c.d.        ",
"e.f.g.h.i.j.k.l.m.n.o.1.<.|.p.q.K r.s. .t.u.v.w.x.y.h z.A.      ",
"  B.C.D.E.F.G.H.I.J.}.K.L.K q.M.N.O.P.o Q.R.S.T.U.V.W.! X.      ",
"  Y.Z.`. +.+J.++@+#+$+@+%+&+%+&+&+*+I.s.=+-+;+>+,+'+)+!+~+{+    ",
"  e.j ]+^+/+(+_+:+<+[+~.*+}+~.|+#+1+2+3+4+5+6+7+8+9+0+a+g b+    ",
"    c+d+1 z e+f+g+1+}+<+|+|+[+h+1+&+&+++i+j+k+l+m+n+o+p+c.<.q+  ",
"    r+s+t+u+v+w+x+y+1+1+z+~.*+A+<+y+~.B+C+D+E+F+G+H+I+J+4.[ |+K+",
"      L+M+N+O+P+Q+R+1+1+S+T+U+V+T+A+V+z+W+C+X+Y+Z+3+`+ @.@+@<+@@",
"      #@$@%@&@*@=@-@;@>@D >@,@'@)@!@|+~@{@]@^@]@/@(@4._@D+:@<@  ",
"      [@}@|@1@2@3@4@5@6@7@8@,@8@V+~+9@,@z+^@0@0@a@3+4.b@c@      ",
"    d@e@f@g@h@i@j@k@l@m@n@o@9@9@8@S+>@p@,@q@r@s@G.t@u@v@        ",
"  w@x@y@z@A@B@C@D@E@F@G@H@I@,@J@J@q@S+K@~+L@3+M@N@O@            ",
"  P@Q@R@S@T@U@V@W@X@Y@Z@`@ #.#+#j +#J@@#g+##$#%#                ",
"  &#*#=#-#;#>#,#'#)#!#~#{#]#p@^#^#/#f.(#> _#                    ",
"    :#<#[#}#|#1#2#3#4#5#6#7#K@8#9#g+0#a#b#                      ",
"      c#d#e#f#g#h#i#j#k#l#m#n#o#b@p#q#                          ",
"    r#s#t#u#v#w#x#y#z#A#B#C#D#E#F#                              ",
"  G#H#I#J#K#L#M#N#O#P#Q#R#S#T#                                  ",
"  U#V#W#X#Y#Z#`# $.$+$@$#$                                      ",
"  $$%$&$*$=$    -$;$>$,$                                        ",
"    '$)$!$      ~${$]$                                          ",
"                                                                ",
"                                                                "};
