/* XPM */
static char * update_16_xpm[] = {
"16 16 103 2",
"  	c None",
". 	c #B5CF94",
"+ 	c #BCD49E",
"@ 	c #C3D6AC",
"# 	c #AAC48D",
"$ 	c #99BE83",
"% 	c #A8CA90",
"& 	c #C1DCA3",
"* 	c #CDE4B5",
"= 	c #BDD5A3",
"- 	c #A5BD93",
"; 	c #83ACA2",
"> 	c #A4C5D0",
", 	c #BED8DA",
"' 	c #B7D1BA",
") 	c #CBE1B8",
"! 	c #C9E2B1",
"~ 	c #B3CE96",
"{ 	c #B0CB92",
"] 	c #ACC78C",
"^ 	c #61929A",
"/ 	c #85B2D0",
"( 	c #BFD9E6",
"_ 	c #D5EBF4",
": 	c #C6DCDD",
"< 	c #BCD2AD",
"[ 	c #C6E0AD",
"} 	c #BADA9C",
"| 	c #AFD48D",
"1 	c #BAD0A0",
"2 	c #7F9CB2",
"3 	c #4F8EBC",
"4 	c #93BBD3",
"5 	c #C7DDE7",
"6 	c #BBD3CA",
"7 	c #B5CCAA",
"8 	c #C6DCB0",
"9 	c #C5E0A9",
"0 	c #B9DA99",
"a 	c #ADD08B",
"b 	c #648AAA",
"c 	c #5795C4",
"d 	c #8BB6D2",
"e 	c #AFCCDC",
"f 	c #ADCAD1",
"g 	c #A8C5C2",
"h 	c #A4C3B5",
"i 	c #A1C2A7",
"j 	c #A0C495",
"k 	c #A5C38B",
"l 	c #88AA8B",
"m 	c #73A5A1",
"n 	c #90B7BC",
"o 	c #A2C2CD",
"p 	c #9EC0D2",
"q 	c #9CC0D6",
"r 	c #92BBD5",
"s 	c #87B4D3",
"t 	c #6596B4",
"u 	c #78939B",
"v 	c #AED08A",
"w 	c #B7D797",
"x 	c #BCD7A4",
"y 	c #BAD3AE",
"z 	c #9FBDA5",
"A 	c #86B0BC",
"B 	c #80B1D4",
"C 	c #6EA4CE",
"D 	c #5B88B1",
"E 	c #8CA0B3",
"F 	c #BDD2A4",
"G 	c #B0D58E",
"H 	c #B9DA9B",
"I 	c #C6E0AB",
"J 	c #A8C6A7",
"K 	c #7FADB9",
"L 	c #73A8CB",
"M 	c #679FCA",
"N 	c #6192BE",
"O 	c #658796",
"P 	c #ADCA8D",
"Q 	c #A6C784",
"R 	c #B9D79B",
"S 	c #C9E2B0",
"T 	c #A9C7AA",
"U 	c #79A3BA",
"V 	c #719DC4",
"W 	c #5E8AB2",
"X 	c #6A8D9A",
"Y 	c #758F6B",
"Z 	c #AABF90",
"` 	c #6E8256",
" .	c #C7E0AF",
"..	c #D2E7BD",
"+.	c #B1CBA5",
"@.	c #89A895",
"#.	c #82A28A",
"$.	c #758F5F",
"%.	c #B1C39B",
"&.	c #BFD6A5",
"*.	c #BDD99D",
"=.	c #ACCB86",
"-.	c #9FBA7D",
"                                ",
"              . + @             ",
"          # $ % & * =           ",
"        - ; > , ' ) ! ~ { ]     ",
"        ^ / ( _ : < [ } | 1     ",
"      2 3 4 5 6 7 8 9 0 a       ",
"      b c d e f g h i j k       ",
"      l m n o p q r s t u       ",
"      v w x y z A B C D E       ",
"    F G H I J K L M N O         ",
"    P Q R S T U V W X Y         ",
"    Z   `  ...+.@.#.$.          ",
"          %.&.*.=.-.            ",
"                                ",
"                                ",
"                                "};
