/* XPM */
static char * ruby_16_xpm[] = {
"16 16 149 2",
"  	c None",
". 	c #C61D00",
"+ 	c #C41A00",
"@ 	c #C31A00",
"# 	c #C31B00",
"$ 	c #C31C00",
"% 	c #C41E00",
"& 	c #C41F00",
"* 	c #C52000",
"= 	c #C62100",
"- 	c #C72200",
"; 	c #C41900",
"> 	c #EE6D62",
", 	c #FFA0A4",
"' 	c #FF878A",
") 	c #FF6C6F",
"! 	c #FF6E72",
"~ 	c #F85A59",
"{ 	c #EA4640",
"] 	c #EC4944",
"^ 	c #DE3B2A",
"/ 	c #ED6B5F",
"( 	c #FF999C",
"_ 	c #FF9697",
": 	c #FF8E8E",
"< 	c #FF6363",
"[ 	c #FF6666",
"} 	c #FF6868",
"| 	c #FF6A6B",
"1 	c #EB4943",
"2 	c #E8453D",
"3 	c #EA4842",
"4 	c #DC3B29",
"5 	c #C61C00",
"6 	c #EE6C60",
"7 	c #FF979A",
"8 	c #FF9192",
"9 	c #FF9393",
"0 	c #FF6969",
"a 	c #FF6565",
"b 	c #FF6665",
"c 	c #FF6767",
"d 	c #FD6361",
"e 	c #E5433A",
"f 	c #E6473F",
"g 	c #E94943",
"h 	c #DC3C2B",
"i 	c #C62200",
"j 	c #C51A00",
"k 	c #FFCED9",
"l 	c #FFC2C9",
"m 	c #FFBEC5",
"n 	c #FFC2C8",
"o 	c #FF6E74",
"p 	c #FF7379",
"q 	c #FF757A",
"r 	c #FF767B",
"s 	c #FF7A80",
"t 	c #FF3131",
"u 	c #FF3536",
"v 	c #FF3638",
"w 	c #FF383E",
"x 	c #C61E00",
"y 	c #EE574C",
"z 	c #FF7678",
"A 	c #FF7272",
"B 	c #FF7373",
"C 	c #FF494C",
"D 	c #FF4A4D",
"E 	c #FF4C4F",
"F 	c #FF4D50",
"G 	c #FF4E52",
"H 	c #DF2929",
"I 	c #E12D2D",
"J 	c #E32E31",
"K 	c #D92A1F",
"L 	c #C32200",
"M 	c #C41C00",
"N 	c #ED594D",
"O 	c #FF7A7D",
"P 	c #FF7879",
"Q 	c #FF5F60",
"R 	c #FF4E51",
"S 	c #FF4F52",
"T 	c #FF5054",
"U 	c #F54043",
"V 	c #E32A2C",
"W 	c #E62D31",
"X 	c #DB281F",
"Y 	c #C82100",
"Z 	c #ED5A4E",
"` 	c #FF7D7F",
" .	c #FF7577",
"..	c #FF4B4F",
"+.	c #FF4F53",
"@.	c #FF5057",
"#.	c #ED2933",
"$.	c #EF2331",
"%.	c #E61F1E",
"&.	c #D31700",
"*.	c #ED5A4F",
"=.	c #FF7E81",
"-.	c #FF5B5E",
";.	c #FF4D51",
">.	c #FF4E55",
",.	c #FF3E4C",
"'.	c #796C09",
").	c #339600",
"!.	c #389500",
"~.	c #378700",
"{.	c #ED5C4F",
"].	c #FF7477",
"^.	c #FF4C54",
"/.	c #CD432D",
"(.	c #358F00",
"_.	c #D8E784",
":.	c #D0DF69",
"<.	c #428900",
"[.	c #C41D00",
"}.	c #EE5D52",
"|.	c #FF5361",
"1.	c #777F14",
"2.	c #378F00",
"3.	c #78B700",
"4.	c #B6DB39",
"5.	c #9DCB00",
"6.	c #7EB500",
"7.	c #468900",
"8.	c #4D8D00",
"9.	c #F94747",
"0.	c #329A00",
"a.	c #A8DC51",
"b.	c #C2EB52",
"c.	c #9BD500",
"d.	c #9BD600",
"e.	c #C4EB53",
"f.	c #B0D853",
"g.	c #4B8C00",
"h.	c #CC1D00",
"i.	c #CD1A00",
"j.	c #3D9100",
"k.	c #7DBE00",
"l.	c #9FDD00",
"m.	c #7EBD00",
"n.	c #478800",
"o.	c #468A00",
"p.	c #82C300",
"q.	c #488800",
"r.	c #4B8B00",
"      . + @ # $ % & * = -       ",
"    ; > , , ' ) ! ~ { ] ^ =     ",
"  ; / ( _ : < [ } | 1 2 3 4 =   ",
"5 6 7 8 9 0 < a b c d e f g h i ",
"j k l m n o p q q r s t u v w i ",
"x y z A B C D E E F G H I J K L ",
"  M N O P Q E R S T U V W X Y   ",
"    M Z `  ...R +.@.#.$.%.&.    ",
"      M *.=.-.;.>.,.'.).!.~.    ",
"        M {.].^.+./.(._.:.<.    ",
"          [.}.|.1.2.3.4.5.6.7.8.",
"            x 9.0.a.b.c.d.e.f.g.",
"              h.i.j.k.l.l.m.n.  ",
"                    o.p.p.q.    ",
"                      r.r.      ",
"                                "};
