/* XPM */
static char * ruby_32_xpm[] = {
"32 32 345 2",
"  	c None",
". 	c #A81700",
"+ 	c #AA1500",
"@ 	c #A91500",
"# 	c #A91600",
"$ 	c #A91700",
"% 	c #A91900",
"& 	c #A91A00",
"* 	c #AA1B00",
"= 	c #AB1B00",
"- 	c #AC1B00",
"; 	c #A91C00",
"> 	c #A21200",
", 	c #E6BBB0",
"' 	c #FFEFF4",
") 	c #FFC1C5",
"! 	c #FFC2C6",
"~ 	c #FFC4C8",
"{ 	c #FF9599",
"] 	c #FF979B",
"^ 	c #FF989B",
"/ 	c #F09594",
"( 	c #EE8683",
"_ 	c #EF8885",
": 	c #EF8987",
"< 	c #F5A3A2",
"[ 	c #DF9083",
"} 	c #A41800",
"| 	c #E5AB9F",
"1 	c #FFDBDE",
"2 	c #FF8D8E",
"3 	c #FF9E9F",
"4 	c #FFE0E0",
"5 	c #FF5657",
"6 	c #FF5354",
"7 	c #FF5656",
"8 	c #FF5556",
"9 	c #FE5150",
"0 	c #F0A49F",
"a 	c #E24F48",
"b 	c #DF3D35",
"c 	c #E03D35",
"d 	c #EF918E",
"e 	c #DB8172",
"f 	c #A41900",
"g 	c #A21400",
"h 	c #E59F94",
"i 	c #FFCFD2",
"j 	c #FF8E8E",
"k 	c #FFBFBF",
"l 	c #FF7A7A",
"m 	c #FF5353",
"n 	c #FF5757",
"o 	c #FF5858",
"p 	c #FB6B6B",
"q 	c #E57872",
"r 	c #DE4037",
"s 	c #E04139",
"t 	c #E03F37",
"u 	c #EE8481",
"v 	c #DA7364",
"w 	c #A41B00",
"x 	c #A21500",
"y 	c #E59488",
"z 	c #FFC3C6",
"A 	c #FF8E8F",
"B 	c #FF8F8F",
"C 	c #FF9090",
"D 	c #FF9898",
"E 	c #FFAAAA",
"F 	c #FF5151",
"G 	c #FF5959",
"H 	c #F27E7C",
"I 	c #DF4841",
"J 	c #DF433B",
"K 	c #E0433B",
"L 	c #E04038",
"M 	c #EC7673",
"N 	c #D86657",
"O 	c #A51C00",
"P 	c #A21600",
"Q 	c #E5887B",
"R 	c #FFB7BA",
"S 	c #FF9291",
"T 	c #FF9F9F",
"U 	c #FF5C5C",
"V 	c #FF5555",
"W 	c #FF5958",
"X 	c #FF5D5D",
"Y 	c #E65D57",
"Z 	c #DE433A",
"` 	c #DF443C",
" .	c #E96965",
"..	c #D55949",
"+.	c #A51D00",
"@.	c #A51B00",
"#.	c #E67D71",
"$.	c #FFAAAC",
"%.	c #FF8E8D",
"&.	c #FF8F8E",
"*.	c #FF6968",
"=.	c #FC615F",
"-.	c #DC4137",
";.	c #DD433A",
">.	c #DD443B",
",.	c #DE4138",
"'.	c #E55B55",
").	c #D24C3C",
"!.	c #A62000",
"~.	c #AA1900",
"{.	c #FFCCD7",
"].	c #FFBEC5",
"^.	c #FFBBC1",
"/.	c #FFBCC2",
"(.	c #FFBDC3",
"_.	c #FFC0C6",
":.	c #FF6C73",
"<.	c #FF747A",
"[.	c #FF767D",
"}.	c #FF777D",
"|.	c #FF777E",
"1.	c #FF5458",
"2.	c #FF575C",
"3.	c #FF595D",
"4.	c #FF585C",
"5.	c #FF555A",
"6.	c #FF565B",
"7.	c #FF5B65",
"8.	c #AB2000",
"9.	c #A32205",
"0.	c #E55448",
"a.	c #FFAFB2",
"b.	c #FF9697",
"c.	c #FF6C6C",
"d.	c #FF6E6D",
"e.	c #FF6D6D",
"f.	c #FFAEAD",
"g.	c #FF6562",
"h.	c #FF3C35",
"i.	c #FF403A",
"j.	c #FF413B",
"k.	c #FF403B",
"l.	c #FF3F39",
"m.	c #EE4A46",
"n.	c #E28282",
"o.	c #D12626",
"p.	c #D22828",
"q.	c #D12525",
"r.	c #DD6363",
"s.	c #E78385",
"t.	c #C62418",
"u.	c #9F1F03",
"v.	c #921600",
"w.	c #E5584C",
"x.	c #FFAEB1",
"y.	c #FF8A8A",
"z.	c #FF7171",
"A.	c #FF8282",
"B.	c #FFAAAB",
"C.	c #FF3B35",
"D.	c #FF423D",
"E.	c #FF443F",
"F.	c #FF433E",
"G.	c #E37C7D",
"H.	c #D83E3E",
"I.	c #D42929",
"J.	c #D42828",
"K.	c #DC4C4D",
"L.	c #E87D7F",
"M.	c #C9291D",
"N.	c #951C00",
"O.	c #921700",
"P.	c #E5594D",
"Q.	c #FFABAE",
"R.	c #FF7272",
"S.	c #FF726F",
"T.	c #FF4540",
"U.	c #FF433D",
"V.	c #F76360",
"W.	c #DC5959",
"X.	c #D52828",
"Y.	c #DC4B4B",
"Z.	c #E7777A",
"`.	c #C92A1E",
" +	c #961C00",
".+	c #E55C50",
"++	c #FF8788",
"@+	c #FF7676",
"#+	c #FF9B9A",
"$+	c #FF4640",
"%+	c #FF4B46",
"&+	c #E56E6D",
"*+	c #D42C2C",
"=+	c #DC4849",
"-+	c #E77B7F",
";+	c #CB2F23",
">+	c #971B00",
",+	c #E55F53",
"'+	c #FFA9AC",
")+	c #FF8284",
"!+	c #FF7471",
"~+	c #FB6C68",
"{+	c #D63A3A",
"]+	c #DB4141",
"^+	c #E87578",
"/+	c #CD3227",
"(+	c #991800",
"_+	c #FFA2A6",
":+	c #FF7C7D",
"<+	c #FF7374",
"[+	c #FF807E",
"}+	c #FF4C47",
"|+	c #FF524D",
"1+	c #E75455",
"2+	c #D52628",
"3+	c #DA3336",
"4+	c #E6686D",
"5+	c #CF2F27",
"6+	c #9B1300",
"7+	c #E56155",
"8+	c #FFA1A4",
"9+	c #FF7B7D",
"0+	c #FF7979",
"a+	c #FF6C68",
"b+	c #FF6767",
"c+	c #DA262F",
"d+	c #E22C39",
"e+	c #EE5E6D",
"f+	c #D62A2A",
"g+	c #980C00",
"h+	c #E56559",
"i+	c #FF9DA0",
"j+	c #FF6564",
"k+	c #FF5651",
"l+	c #FF5A56",
"m+	c #F33C42",
"n+	c #736C08",
"o+	c #349500",
"p+	c #359100",
"q+	c #379100",
"r+	c #3A9000",
"s+	c #408C00",
"t+	c #458C00",
"u+	c #498A00",
"v+	c #E56457",
"w+	c #FF999C",
"x+	c #FF797A",
"y+	c #FF514C",
"z+	c #FF4642",
"A+	c #FF4844",
"B+	c #FF5754",
"C+	c #E12634",
"D+	c #339400",
"E+	c #D2E372",
"F+	c #D0DD72",
"G+	c #D0DD74",
"H+	c #D1DD75",
"I+	c #D2DC73",
"J+	c #D8E074",
"K+	c #468A00",
"L+	c #E56458",
"M+	c #FF9396",
"N+	c #FF5855",
"O+	c #FF524E",
"P+	c #FF433F",
"Q+	c #FF5452",
"R+	c #F53B3D",
"S+	c #E84052",
"T+	c #359000",
"U+	c #DDED97",
"V+	c #97BD00",
"W+	c #98BE00",
"X+	c #98BD00",
"Y+	c #E0EC97",
"Z+	c #448800",
"`+	c #E5685C",
" @	c #FF8589",
".@	c #FF4843",
"+@	c #FF4744",
"@@	c #FF4747",
"#@	c #FF464B",
"$@	c #F03F50",
"%@	c #DD2832",
"&@	c #398C00",
"*@	c #CDE76F",
"=@	c #99C700",
"-@	c #9AC800",
";@	c #CFE670",
">@	c #438700",
",@	c #921800",
"'@	c #E5675B",
")@	c #FF6463",
"!@	c #FF4B48",
"~@	c #FF484D",
"{@	c #2C9C00",
"]@	c #389500",
"^@	c #3D8E00",
"/@	c #3C8500",
"(@	c #BAE243",
"_@	c #99CF00",
":@	c #9ACF00",
"<@	c #BBE143",
"[@	c #408200",
"}@	c #478800",
"|@	c #4B8B00",
"1@	c #4E8E00",
"2@	c #921A00",
"3@	c #E65145",
"4@	c #FF5554",
"5@	c #FF5158",
"6@	c #7C7311",
"7@	c #7EC900",
"8@	c #A5E300",
"9@	c #A0DC00",
"0@	c #9BD700",
"a@	c #9AD600",
"b@	c #9CD700",
"c@	c #A1DB00",
"d@	c #A7E100",
"e@	c #87C200",
"f@	c #468200",
"g@	c #961D00",
"h@	c #AA1F00",
"i@	c #AE1D00",
"j@	c #9C0F00",
"k@	c #347900",
"l@	c #7FC000",
"m@	c #9FDC00",
"n@	c #9BD800",
"o@	c #99D600",
"p@	c #80BE00",
"q@	c #3F7700",
"r@	c #3C7700",
"s@	c #7FBE00",
"t@	c #9BD900",
"u@	c #99D700",
"v@	c #3E7600",
"w@	c #458300",
"x@	c #9FDF00",
"y@	c #9BDC00",
"z@	c #81C200",
"A@	c #A3E400",
"B@	c #488600",
"C@	c #488800",
"D@	c #417900",
"                                                                ",
"                                                                ",
"              . + @ @ # $ % & & & & & * = = = - ;               ",
"            > , ' ) ) ! ~ { ] ^ ^ ^ ^ / ( _ : < [ }             ",
"          > | 1 2 2 3 4 5 6 7 7 7 7 8 9 0 a b c d e f           ",
"        g h i 2 j j k l m n o o o o o 7 p q r s t u v w         ",
"      x y z A B C D E F n G G G G G G o 5 H I J K L M N O       ",
"    P Q R B B C S T U V o G G G G G G W o X Y Z ` J s  ...+.    ",
"  @.#.$.j %.j &.%.*.m 7 n n n n n n n n n n =.-.;.>.;.,.'.).!.  ",
"  ~.{.].^./.(.(._.:.<.[.}.}.}.}.}.}.}.}.}.[.|.1.2.3.4.5.6.7.8.  ",
"  9.0.a.b.c.d.e.f.g.h.i.j.j.j.j.j.j.j.j.k.l.m.n.o.p.q.r.s.t.u.  ",
"    v.w.x.y.z.z.A.B.C.D.E.E.E.E.E.E.E.E.F.j.G.H.I.J.K.L.M.N.    ",
"      O.P.Q.y.R.R.b.S.k.E.T.T.T.T.T.T.T.U.V.W.J.X.Y.Z.`. +      ",
"        O..+x.++R.@+#+$+D.T.T.T.T.T.T.F.%+&+*+X.=+-+;+>+        ",
"          O.,+'+)+R.A.!+k.E.T.T.T.T.T.F.~+{+J.]+^+/+(+          ",
"            O.,+_+:+<+[+}+F.T.T.T.T.E.|+1+2+3+4+5+6+            ",
"              O.7+8+9+0+a+j.E.T.T.E.F.b+c+d+e+f+g+              ",
"                O.h+i+:+j+k+F.T.T.E.l+m+n+o+p+q+r+s+t+u+        ",
"                  O.v+w+x+y+z+E.E.A+B+C+D+E+F+G+H+I+J+K+        ",
"                    O.L+M+N+O+F.P+Q+R+S+T+U+V+W+W+X+Y+Z+        ",
"                      O.`+ @.@+@@@#@$@%@&@*@=@-@-@=@;@>@        ",
"                        ,@'@)@!@~@{@]@^@/@(@_@:@:@_@<@[@}@|@1@  ",
"                          2@3@4@5@6@7@8@9@0@a@a@a@a@b@c@d@e@f@  ",
"                            g@h@i@j@k@l@m@n@o@o@o@o@n@m@p@q@    ",
"                                      r@s@m@t@u@u@t@m@s@v@      ",
"                                        w@l@x@y@y@x@l@v@        ",
"                                          w@z@A@A@z@v@          ",
"                                            B@C@C@D@            ",
"                                                                ",
"                                                                ",
"                                                                ",
"                                                                "};
