/* XPM */
static char * stopb_32_16_xpm[] = {
"32 16 2 1",
" 	c None",
".	c #000000",
"                                ",
"                                ",
"                                ",
"                                ",
"                                ",
"   ....                  ...    ",
"  .      .               .  .   ",
"  .     ....  ..   ...   .  .   ",
"   ...   .   .  .  .  .  ....   ",
"      .  .   .  .  .  .  .   .  ",
"  .   .  .   .  .  .  .  .   .  ",
"   ...    ..  ..   ...   ....   ",
"                   .            ",
"                   .            ",
"                                ",
"                                "};
