/* XPM */
static char * export_32_xpm[] = {
"32 32 395 2",
"  	c None",
". 	c #960000",
"+ 	c #950000",
"@ 	c #CC240A",
"# 	c #D93810",
"$ 	c #9A0301",
"% 	c #970100",
"& 	c #D51D08",
"* 	c #FF4714",
"= 	c #FF5E1B",
"- 	c #E44D16",
"; 	c #9F0903",
"> 	c #990100",
", 	c #DF1105",
"' 	c #FF2E0D",
") 	c #FF3E12",
"! 	c #FF4F16",
"~ 	c #FF671D",
"{ 	c #ED5C1D",
"] 	c #A41106",
"^ 	c #9B0000",
"/ 	c #E70200",
"( 	c #FF1305",
"_ 	c #FF240A",
": 	c #FF350F",
"< 	c #FF4514",
"[ 	c #FF5418",
"} 	c #FF681E",
"| 	c #F4621D",
"1 	c #AA1907",
"2 	c #9C0000",
"3 	c #E20000",
"4 	c #FF0000",
"5 	c #FF0902",
"6 	c #FF1B08",
"7 	c #FF2B0C",
"8 	c #FF3A10",
"9 	c #FF5217",
"0 	c #FF5F1B",
"a 	c #FA5D1B",
"b 	c #B31E09",
"c 	c #870000",
"d 	c #671413",
"e 	c #601114",
"f 	c #D50000",
"g 	c #EA0000",
"h 	c #F40000",
"i 	c #FE0200",
"j 	c #FF1004",
"k 	c #FF1F09",
"l 	c #FF2C0D",
"m 	c #FF3810",
"n 	c #FF4213",
"o 	c #FF4815",
"p 	c #FF4E17",
"q 	c #FD4C16",
"r 	c #BA1C08",
"s 	c #630805",
"t 	c #E0A14A",
"u 	c #ECC26F",
"v 	c #B17D57",
"w 	c #743530",
"x 	c #4D0209",
"y 	c #860000",
"z 	c #8F0000",
"A 	c #920000",
"B 	c #9D0000",
"C 	c #E90000",
"D 	c #F90000",
"E 	c #FF0401",
"F 	c #FF1A07",
"G 	c #FF2809",
"H 	c #FF3309",
"I 	c #FF390B",
"J 	c #E22C0B",
"K 	c #960B03",
"L 	c #9A0B03",
"M 	c #860100",
"N 	c #570000",
"O 	c #BD7028",
"P 	c #FFE657",
"Q 	c #FFF679",
"R 	c #FFEB74",
"S 	c #FFD970",
"T 	c #D9AD68",
"U 	c #9A684F",
"V 	c #5F2125",
"W 	c #410000",
"X 	c #890000",
"Y 	c #E00000",
"Z 	c #EF0000",
"` 	c #F80000",
" .	c #FF0400",
"..	c #FF280F",
"+.	c #FF4014",
"@.	c #FF4212",
"#.	c #DA280B",
"$.	c #780000",
"%.	c #954318",
"&.	c #FFD340",
"*.	c #FFE94C",
"=.	c #FFFA69",
"-.	c #FFFF8A",
";.	c #FFFC91",
">.	c #FFF386",
",.	c #FFE977",
"'.	c #F6D473",
").	c #8E5A4C",
"!.	c #3E0000",
"~.	c #E80603",
"{.	c #F62819",
"].	c #FE5131",
"^.	c #FF633A",
"/.	c #FF6139",
"(.	c #FF663D",
"_.	c #DA331C",
":.	c #731B0A",
"<.	c #F6B930",
"[.	c #C98217",
"}.	c #A65A0F",
"|.	c #E7AB2C",
"1.	c #FFF158",
"2.	c #FFFF7F",
"3.	c #FFFF98",
"4.	c #FFFFAF",
"5.	c #FFF591",
"6.	c #FFDE68",
"7.	c #8F594A",
"8.	c #3D0000",
"9.	c #820000",
"0.	c #E74736",
"a.	c #FC7558",
"b.	c #FF8361",
"c.	c #FF8160",
"d.	c #FF7E5E",
"e.	c #FF8664",
"f.	c #D93C2D",
"g.	c #730000",
"h.	c #5D0301",
"i.	c #DC9E28",
"j.	c #DD9316",
"k.	c #5E0000",
"l.	c #86351F",
"m.	c #FFDB45",
"n.	c #FFFF5B",
"o.	c #FFFF73",
"p.	c #FFFF89",
"q.	c #FFFFA9",
"r.	c #FFF690",
"s.	c #FEDF61",
"t.	c #935C4B",
"u.	c #800000",
"v.	c #F4806B",
"w.	c #FFA489",
"x.	c #FF9B82",
"y.	c #FFA58A",
"z.	c #D5493E",
"A.	c #6F0000",
"B.	c #B16617",
"C.	c #FFE42B",
"D.	c #C27507",
"E.	c #7B2826",
"F.	c #FEDB47",
"G.	c #FFFF3A",
"H.	c #FFFF55",
"I.	c #FFFF6B",
"J.	c #FFFF80",
"K.	c #FFFFA0",
"L.	c #FFF787",
"M.	c #FFE462",
"N.	c #96634D",
"O.	c #520103",
"P.	c #7C0000",
"Q.	c #F5998A",
"R.	c #FFC7B4",
"S.	c #FFC0AD",
"T.	c #FFCCB8",
"U.	c #D35C53",
"V.	c #6A0000",
"W.	c #89350A",
"X.	c #FED021",
"Y.	c #FFDD0C",
"Z.	c #F4C60D",
"`.	c #913B07",
" +	c #772820",
".+	c #D5A054",
"++	c #FFEE1C",
"@+	c #FFFF1F",
"#+	c #FFFF37",
"$+	c #FFFF4D",
"%+	c #FFFF63",
"&+	c #FFFF78",
"*+	c #FFFF9C",
"=+	c #FFF14F",
"-+	c #DBA633",
";+	c #540306",
">+	c #710000",
",+	c #E58982",
"'+	c #F9BFB5",
")+	c #F8B7AD",
"!+	c #F8B7AE",
"~+	c #F9C1B7",
"{+	c #BE4D4A",
"]+	c #650000",
"^+	c #680B01",
"/+	c #ECB11B",
"(+	c #FFD40F",
"_+	c #FFCF00",
":+	c #FFDA08",
"<+	c #FFD818",
"[+	c #FFD42F",
"}+	c #FFE514",
"|+	c #FFF700",
"1+	c #FFFF05",
"2+	c #FFFF18",
"3+	c #FFFF2F",
"4+	c #FFFF45",
"5+	c #FFFF5E",
"6+	c #FFF95D",
"7+	c #FACD16",
"8+	c #862A04",
"9+	c #730202",
"0+	c #7C0707",
"a+	c #7B0606",
"b+	c #7C0606",
"c+	c #6D0000",
"d+	c #5E0400",
"e+	c #B8650B",
"f+	c #FFD815",
"g+	c #FFC703",
"h+	c #FFCC00",
"i+	c #FFD600",
"j+	c #FFDE00",
"k+	c #FFE700",
"l+	c #FFEE00",
"m+	c #FFF600",
"n+	c #FFFD01",
"o+	c #FFFF10",
"p+	c #FFFF27",
"q+	c #FFFF40",
"r+	c #FFE81C",
"s+	c #DDA129",
"t+	c #5B0008",
"u+	c #5B0000",
"v+	c #C37609",
"w+	c #FFDC0E",
"x+	c #FFC301",
"y+	c #FFC900",
"z+	c #FFD200",
"A+	c #FFDA00",
"B+	c #FFE200",
"C+	c #FFEA00",
"D+	c #FFF300",
"E+	c #FEFC00",
"F+	c #E4C306",
"G+	c #EEDC1B",
"H+	c #FFFB27",
"I+	c #FFE829",
"J+	c #CFA142",
"K+	c #701E1C",
"L+	c #CE8806",
"M+	c #FFDC07",
"N+	c #FFBE00",
"O+	c #FFC400",
"P+	c #FFD700",
"Q+	c #FFDF00",
"R+	c #FFF100",
"S+	c #FAD800",
"T+	c #EFA700",
"U+	c #E6C212",
"V+	c #F9F926",
"W+	c #FFFA20",
"X+	c #F0CC3C",
"Y+	c #934E33",
"Z+	c #570002",
"`+	c #630500",
" @	c #D89A02",
".@	c #FFE101",
"+@	c #FFC700",
"@@	c #FFC200",
"#@	c #FFCB00",
"$@	c #FFD400",
"%@	c #FFDC00",
"&@	c #FFE400",
"*@	c #FFEF00",
"=@	c #F9BD00",
"-@	c #E6AD07",
";@	c #EFE522",
">@	c #FFFB22",
",@	c #FFE32D",
"'@	c #BD8541",
")@	c #650E12",
"!@	c #690900",
"~@	c #BF7300",
"{@	c #F9C600",
"]@	c #FFC800",
"^@	c #FFD000",
"/@	c #FFD900",
"(@	c #FFE000",
"_@	c #FFEC00",
":@	c #EDAB00",
"<@	c #E7CA17",
"[@	c #FBF726",
"}@	c #FFEE23",
"|@	c #E3B340",
"1@	c #813629",
"2@	c #560000",
"3@	c #781900",
"4@	c #C07200",
"5@	c #FAC000",
"6@	c #FFD300",
"7@	c #FAB900",
"8@	c #FFD800",
"9@	c #FFED00",
"0@	c #F7BF00",
"a@	c #E5B80A",
"b@	c #F0EA25",
"c@	c #FFF321",
"d@	c #FCD034",
"e@	c #A9693C",
"f@	c #5C030A",
"g@	c #580000",
"h@	c #7A1B00",
"i@	c #C77700",
"j@	c #C87300",
"k@	c #751800",
"l@	c #BC6700",
"m@	c #FAB600",
"n@	c #DE8D00",
"o@	c #FDB800",
"p@	c #ECAF01",
"q@	c #E8D31B",
"r@	c #FDF325",
"s@	c #FFDF27",
"t@	c #D39942",
"u@	c #72231E",
"v@	c #5F0000",
"w@	c #5A0000",
"x@	c #7B1A00",
"y@	c #620100",
"z@	c #872A00",
"A@	c #E19000",
"B@	c #FCB200",
"C@	c #FDB000",
"D@	c #FFD500",
"E@	c #F6C400",
"F@	c #E5BE0E",
"G@	c #F2EB26",
"H@	c #FFE721",
"I@	c #F3BB3B",
"J@	c #965135",
"K@	c #580003",
"L@	c #670500",
"M@	c #751900",
"N@	c #A74800",
"O@	c #FFCD00",
"P@	c #FFF500",
"Q@	c #FED700",
"R@	c #EABB03",
"S@	c #E9DA1F",
"T@	c #FFEC24",
"U@	c #FFCE2D",
"V@	c #C08042",
"W@	c #620A0A",
"X@	c #6C0D00",
"Y@	c #F69F00",
"Z@	c #FFBA00",
"`@	c #FFBC00",
" #	c #F4C200",
".#	c #E5C812",
"+#	c #F5E924",
"@#	c #FFD126",
"##	c #903F24",
"$#	c #812000",
"%#	c #943200",
"&#	c #993A00",
"*#	c #E27E00",
"=#	c #FDE100",
"-#	c #E9CA07",
";#	c #F1BD0E",
">#	c #BC6F2B",
",#	c #7F1D00",
"'#	c #FC9E00",
")#	c #FFDB00",
"!#	c #FEC700",
"~#	c #E1A624",
"{#	c #660A0A",
"]#	c #AF4900",
"^#	c #F28B00",
"/#	c #DF7400",
"(#	c #CB6800",
"_#	c #B15407",
":#	c #690C05",
"<#	c #620200",
"[#	c #710F00",
"                                                                ",
"                                                                ",
"                                            . .                 ",
"                                          + @ # $               ",
"                                        % & * = - ;             ",
"                                      > , ' ) ! ~ { ]           ",
"                                    ^ / ( _ : < [ } | 1         ",
"                                  2 3 4 5 6 7 8 * 9 0 a b c     ",
"            d e                 ^ f g h i j k l m n o p q r c   ",
"          s t u v w x         y z A B C D E j F G H I J K L M   ",
"        N O P Q R S T U V W         X Y Z `  ...+.@.< #.$.      ",
"        %.&.*.=.-.;.>.,.'.).!.      c f ~.{.].^././.(._.$.      ",
"      :.<.[.}.|.1.2.3.4.5.6.7.8.    9.0.a.b.c.d.d.d.e.f.g.      ",
"    h.i.j.k.  l.m.n.o.p.q.r.s.t.    u.v.w.x.x.x.x.x.y.z.A.      ",
"    B.C.D.    E.F.G.H.I.J.K.L.M.N.O.P.Q.R.S.S.S.S.S.T.U.V.      ",
"  W.X.Y.Z.`. +.+++@+#+$+%+&+*+=+-+;+>+,+'+)+)+)+)+!+~+{+]+      ",
"^+/+(+_+:+<+[+}+|+1+2+3+4+5+6+7+8+    9+0+a+a+a+a+a+b+c+        ",
"d+e+f+g+h+i+j+k+l+m+n+o+p+q+r+s+t+                              ",
"  u+v+w+x+y+z+A+B+C+D+E+F+G+H+I+J+K+                            ",
"    k.L+M+N+O+_+P+Q+k+R+S+T+U+V+W+X+Y+Z+                        ",
"      `+ @.@+@@@#@$@%@&@R+*@=@-@;@>@,@'@)@                      ",
"        !@~@{@P+]@+@^@/@(@_@|+A+:@<@[@}@|@1@2@                  ",
"          N 3@4@5@6@h+7@$@8@P+9@*@0@a@b@c@d@e@f@                ",
"              g@h@i@j@k@l@m@n@o@Q+*@y+p@q@r@s@t@u@              ",
"                  u+v@  w@x@y@z@A@B@C@D@E@F@G@H@I@J@K@          ",
"                                L@M@N@O@P@Q@R@S@T@U@V@W@        ",
"                                    X@Y@Z@N+`@ #.#+#@###        ",
"                                      $#%#&#*#z+=#-#;#>#N       ",
"                                            ,#'#)#_+!#~#{#      ",
"                                              ]#^#/#(#_#:#      ",
"                                              <#[#<#w@          ",
"                                                                "};
