/* XPM */
static char * import_32_xpm[] = {
"32 32 402 2",
"  	c None",
". 	c #00372A",
"+ 	c #003C26",
"@ 	c #003D27",
"# 	c #003A26",
"$ 	c #00372C",
"% 	c #256E48",
"& 	c #A8D7AF",
"* 	c #A8D8AF",
"= 	c #A6D7AE",
"- 	c #AAD8B1",
"; 	c #96CFA2",
"> 	c #0B5233",
", 	c #449259",
"' 	c #F3FFDE",
") 	c #EBFFD9",
"! 	c #EAFFD8",
"~ 	c #EEFFDB",
"{ 	c #DEFFD0",
"] 	c #166639",
"^ 	c #40944E",
"/ 	c #D8FFBE",
"( 	c #D1FFBA",
"_ 	c #D0FFB9",
": 	c #D5FFBB",
"< 	c #CAFFB5",
"[ 	c #146833",
"} 	c #409946",
"| 	c #C9FFA8",
"1 	c #C2FFA3",
"2 	c #C1FFA3",
"3 	c #C3FFA4",
"4 	c #C9FFA7",
"5 	c #C6FFA5",
"6 	c #9CEF8E",
"7 	c #0D672B",
"8 	c #409E41",
"9 	c #BBFF92",
"0 	c #B3FF8C",
"a 	c #B3FF8D",
"b 	c #B8FF90",
"c 	c #B1FE8B",
"d 	c #80E66E",
"e 	c #3CC348",
"f 	c #0EAA35",
"g 	c #016421",
"h 	c #671413",
"i 	c #601114",
"j 	c #3FA13A",
"k 	c #AEFF7C",
"l 	c #A7FF78",
"m 	c #A5FF77",
"n 	c #87F166",
"o 	c #4BD742",
"p 	c #24C22D",
"q 	c #1BB82F",
"r 	c #15B233",
"s 	c #046A1E",
"t 	c #630805",
"u 	c #E0A14A",
"v 	c #ECC26F",
"w 	c #B17D57",
"x 	c #743530",
"y 	c #4D0209",
"z 	c #005612",
"A 	c #086117",
"B 	c #075712",
"C 	c #3AA433",
"D 	c #84F75C",
"E 	c #80F25A",
"F 	c #69E74E",
"G 	c #4AD83D",
"H 	c #40D338",
"I 	c #38CF35",
"J 	c #2CC533",
"K 	c #20BC34",
"L 	c #07731D",
"M 	c #005C16",
"N 	c #005713",
"O 	c #570000",
"P 	c #BD7028",
"Q 	c #FFE657",
"R 	c #FFF679",
"S 	c #FFEB74",
"T 	c #FFD970",
"U 	c #D9AD68",
"V 	c #9A684F",
"W 	c #602125",
"X 	c #430000",
"Y 	c #005D0E",
"Z 	c #238723",
"` 	c #6DE04F",
" .	c #75EB54",
"..	c #72ED52",
"+.	c #6CE84F",
"@.	c #64E54B",
"#.	c #5DE148",
"$.	c #51DB42",
"%.	c #44D53B",
"&.	c #35CD34",
"*.	c #28C233",
"=.	c #1AAF31",
"-.	c #0DA332",
";.	c #01781F",
">.	c #00590E",
",.	c #954318",
"'.	c #FFD340",
").	c #FFE94C",
"!.	c #FFFA69",
"~.	c #FFFF8A",
"{.	c #FFFC91",
"].	c #FFF386",
"^.	c #FFE977",
"/.	c #F6D473",
"(.	c #8F594C",
"_.	c #400000",
":.	c #006008",
"<.	c #2B8F24",
"[.	c #86F45C",
"}.	c #8DFB60",
"|.	c #80F259",
"1.	c #76EE54",
"2.	c #6BE84F",
"3.	c #4EDA41",
"4.	c #3FD238",
"5.	c #31CB34",
"6.	c #23BF35",
"7.	c #0A851E",
"8.	c #005C0A",
"9.	c #741B0A",
"0.	c #F6B930",
"a.	c #C98217",
"b.	c #A55A0F",
"c.	c #E7AB2C",
"d.	c #FFF158",
"e.	c #FFFF7F",
"f.	c #FFFF98",
"g.	c #FFFFAF",
"h.	c #FFF591",
"i.	c #FFDE68",
"j.	c #90584A",
"k.	c #460000",
"l.	c #208219",
"m.	c #87ED5C",
"n.	c #98FF66",
"o.	c #83F55B",
"p.	c #67E74D",
"q.	c #57DE45",
"r.	c #49DA3F",
"s.	c #36CD35",
"t.	c #0E8416",
"u.	c #005D04",
"v.	c #5D0301",
"w.	c #DC9E28",
"x.	c #DD9316",
"y.	c #5E0000",
"z.	c #86351F",
"A.	c #FFDB45",
"B.	c #FFFF5B",
"C.	c #FFFF73",
"D.	c #FFFF89",
"E.	c #FFFFA9",
"F.	c #FFF690",
"G.	c #FEDF61",
"H.	c #935C4B",
"I.	c #157910",
"J.	c #7FE256",
"K.	c #9AFF68",
"L.	c #80F35A",
"M.	c #70EA51",
"N.	c #63E84C",
"O.	c #49D33C",
"P.	c #108110",
"Q.	c #006000",
"R.	c #B16617",
"S.	c #FFE42B",
"T.	c #C27507",
"U.	c #7B2826",
"V.	c #FEDB47",
"W.	c #FFFF3A",
"X.	c #FFFF55",
"Y.	c #FFFF6B",
"Z.	c #FFFF80",
"`.	c #FFFFA0",
" +	c #FFF787",
".+	c #FFE462",
"++	c #99634D",
"@+	c #0B7108",
"#+	c #6ED54A",
"$+	c #92FF64",
"%+	c #7DF559",
"&+	c #57D541",
"*+	c #0F7B0C",
"=+	c #89350A",
"-+	c #FED021",
";+	c #FFDD0C",
">+	c #F3C60D",
",+	c #913B07",
"'+	c #772820",
")+	c #D5A054",
"!+	c #FFEE1C",
"~+	c #FFFF1F",
"{+	c #FFFF37",
"]+	c #FFFF4D",
"^+	c #FFFF63",
"/+	c #FFFF78",
"(+	c #FFFF9C",
"_+	c #FFF14F",
":+	c #DCA633",
"<+	c #530307",
"[+	c #036902",
"}+	c #59C63D",
"|+	c #62D545",
"1+	c #0B7408",
"2+	c #680B01",
"3+	c #ECB11B",
"4+	c #FFD40F",
"5+	c #FFCF00",
"6+	c #FFDA08",
"7+	c #FFD818",
"8+	c #FFD42F",
"9+	c #FFE514",
"0+	c #FFF700",
"a+	c #FFFF05",
"b+	c #FFFF18",
"c+	c #FFFF2F",
"d+	c #FFFF45",
"e+	c #FFFF5E",
"f+	c #FFF95D",
"g+	c #FACD16",
"h+	c #862A04",
"i+	c #006A00",
"j+	c #036D02",
"k+	c #5E0400",
"l+	c #B8650B",
"m+	c #FFD815",
"n+	c #FFC703",
"o+	c #FFCC00",
"p+	c #FFD600",
"q+	c #FFDE00",
"r+	c #FFE700",
"s+	c #FFEE00",
"t+	c #FFF600",
"u+	c #FFFD01",
"v+	c #FFFF10",
"w+	c #FFFF27",
"x+	c #FFFF40",
"y+	c #FFE81C",
"z+	c #DDA129",
"A+	c #5B0008",
"B+	c #5B0000",
"C+	c #C37609",
"D+	c #FFDC0E",
"E+	c #FFC301",
"F+	c #FFC900",
"G+	c #FFD200",
"H+	c #FFDA00",
"I+	c #FFE200",
"J+	c #FFEA00",
"K+	c #FFF300",
"L+	c #FEFC00",
"M+	c #E4C306",
"N+	c #EEDC1B",
"O+	c #FFFB27",
"P+	c #FFE829",
"Q+	c #CFA142",
"R+	c #701E1C",
"S+	c #CE8806",
"T+	c #FFDC07",
"U+	c #FFBE00",
"V+	c #FFC400",
"W+	c #FFD700",
"X+	c #FFDF00",
"Y+	c #FFF100",
"Z+	c #FAD800",
"`+	c #EFA700",
" @	c #E6C212",
".@	c #F9F926",
"+@	c #FFFA20",
"@@	c #F0CC3C",
"#@	c #934E33",
"$@	c #570002",
"%@	c #630500",
"&@	c #D89A02",
"*@	c #FFE101",
"=@	c #FFC700",
"-@	c #FFC200",
";@	c #FFCB00",
">@	c #FFD400",
",@	c #FFDC00",
"'@	c #FFE400",
")@	c #FFEF00",
"!@	c #F9BD00",
"~@	c #E6AD07",
"{@	c #EFE522",
"]@	c #FFFB22",
"^@	c #FFE32D",
"/@	c #BD8541",
"(@	c #650E12",
"_@	c #690900",
":@	c #BF7300",
"<@	c #F9C600",
"[@	c #FFC800",
"}@	c #FFD000",
"|@	c #FFD900",
"1@	c #FFE000",
"2@	c #FFEC00",
"3@	c #EDAB00",
"4@	c #E7CA17",
"5@	c #FBF726",
"6@	c #FFEE23",
"7@	c #E3B340",
"8@	c #813629",
"9@	c #560000",
"0@	c #781900",
"a@	c #C07200",
"b@	c #FAC000",
"c@	c #FFD300",
"d@	c #FAB900",
"e@	c #FFD800",
"f@	c #FFED00",
"g@	c #F7BF00",
"h@	c #E5B80A",
"i@	c #F0EA25",
"j@	c #FFF321",
"k@	c #FCD034",
"l@	c #A9693C",
"m@	c #5C030A",
"n@	c #580000",
"o@	c #7A1B00",
"p@	c #C77700",
"q@	c #C87300",
"r@	c #751800",
"s@	c #BC6700",
"t@	c #FAB600",
"u@	c #DE8D00",
"v@	c #FDB800",
"w@	c #ECAF01",
"x@	c #E8D31B",
"y@	c #FDF325",
"z@	c #FFDF27",
"A@	c #D39942",
"B@	c #72231E",
"C@	c #5F0000",
"D@	c #5A0000",
"E@	c #7B1A00",
"F@	c #620100",
"G@	c #872A00",
"H@	c #E19000",
"I@	c #FCB200",
"J@	c #FDB000",
"K@	c #FFD500",
"L@	c #F6C400",
"M@	c #E5BE0E",
"N@	c #F2EB26",
"O@	c #FFE721",
"P@	c #F3BB3B",
"Q@	c #965135",
"R@	c #580003",
"S@	c #670500",
"T@	c #751900",
"U@	c #A74800",
"V@	c #FFCD00",
"W@	c #FFF500",
"X@	c #FED700",
"Y@	c #EABB03",
"Z@	c #E9DA1F",
"`@	c #FFEC24",
" #	c #FFCE2D",
".#	c #C08042",
"+#	c #620A0A",
"@#	c #6C0D00",
"##	c #F69F00",
"$#	c #FFBA00",
"%#	c #FFBC00",
"&#	c #F4C200",
"*#	c #E5C812",
"=#	c #F5E924",
"-#	c #FFD126",
";#	c #903F24",
">#	c #812000",
",#	c #943200",
"'#	c #993A00",
")#	c #E27E00",
"!#	c #FDE100",
"~#	c #E9CA07",
"{#	c #F1BD0E",
"]#	c #BC6F2B",
"^#	c #7F1D00",
"/#	c #FC9E00",
"(#	c #FFDB00",
"_#	c #FEC700",
":#	c #E1A624",
"<#	c #660A0A",
"[#	c #AF4900",
"}#	c #F28B00",
"|#	c #DF7400",
"1#	c #CB6800",
"2#	c #B15407",
"3#	c #690C05",
"4#	c #620200",
"5#	c #710F00",
"                                                                ",
"                                                                ",
"                                    . + @ @ @ @ @ @ # $         ",
"                                    % & * = = = = - ; >         ",
"                                    , ' ) ! ! ! ! ~ { ]         ",
"                                    ^ / ( _ _ _ _ : < [         ",
"                                    } | 1 2 2 3 4 5 6 7         ",
"                                    8 9 0 a b c d e f g         ",
"            h i                     j k l m n o p q r s         ",
"          t u v w x y         z A B C D E F G H I J K L z M N   ",
"        O P Q R S T U V W X   Y Z `  ...+.@.#.$.%.&.*.=.-.;.>.  ",
"        ,.'.).!.~.{.].^./.(._.  :.<.[.}.|.1.2.#.3.4.5.6.7.8.    ",
"      9.0.a.b.c.d.e.f.g.h.i.j.k.    l.m.n.o.1.p.q.r.s.t.u.      ",
"    v.w.x.y.  z.A.B.C.D.E.F.G.H.      I.J.K.L.M.N.O.P.Q.        ",
"    R.S.T.    U.V.W.X.Y.Z.`. +.+++      @+#+$+%+&+*+            ",
"  =+-+;+>+,+'+)+!+~+{+]+^+/+(+_+:+<+      [+}+|+1+              ",
"2+3+4+5+6+7+8+9+0+a+b+c+d+e+f+g+h+          i+j+                ",
"k+l+m+n+o+p+q+r+s+t+u+v+w+x+y+z+A+                              ",
"  B+C+D+E+F+G+H+I+J+K+L+M+N+O+P+Q+R+                            ",
"    y.S+T+U+V+5+W+X+r+Y+Z+`+ @.@+@@@#@$@                        ",
"      %@&@*@=@-@;@>@,@'@Y+)@!@~@{@]@^@/@(@                      ",
"        _@:@<@W+[@=@}@|@1@2@0+H+3@4@5@6@7@8@9@                  ",
"          O 0@a@b@c@o+d@>@e@W+f@)@g@h@i@j@k@l@m@                ",
"              n@o@p@q@r@s@t@u@v@X+)@F+w@x@y@z@A@B@              ",
"                  B+C@  D@E@F@G@H@I@J@K@L@M@N@O@P@Q@R@          ",
"                                S@T@U@V@W@X@Y@Z@`@ #.#+#        ",
"                                    @###$#U+%#&#*#=#-#;#        ",
"                                      >#,#'#)#G+!#~#{#]#O       ",
"                                            ^#/#(#5+_#:#<#      ",
"                                              [#}#|#1#2#3#      ",
"                                              4#5#4#D@          ",
"                                                                "};
