/* XPM */
static char * search_32_xpm[] = {
"32 32 388 2",
"  	c None",
". 	c #0E80C4",
"+ 	c #208BCB",
"@ 	c #379CD4",
"# 	c #1484C6",
"$ 	c #0D7FC3",
"% 	c #0A7CC1",
"& 	c #0A7BC1",
"* 	c #0578C0",
"= 	c #077BC1",
"- 	c #2A92CE",
"; 	c #399CD4",
"> 	c #44A4D9",
", 	c #42A3D8",
"' 	c #228CCB",
") 	c #1684C5",
"! 	c #1180C3",
"~ 	c #097BC0",
"{ 	c #3399D2",
"] 	c #087AC0",
"^ 	c #1583C6",
"/ 	c #50ADDE",
"( 	c #62BAE6",
"_ 	c #61B8E5",
": 	c #399DD4",
"< 	c #208BC9",
"[ 	c #1A87C7",
"} 	c #1684C6",
"| 	c #57B2E1",
"1 	c #54AFE0",
"2 	c #51ADDE",
"3 	c #2690CD",
"4 	c #0D7DC2",
"5 	c #1483C4",
"6 	c #42A2D8",
"7 	c #46A5DA",
"8 	c #40A2D7",
"9 	c #3A9DD5",
"0 	c #6BC0EA",
"a 	c #389CD4",
"b 	c #2790CC",
"c 	c #3A9ED5",
"d 	c #5CB5E3",
"e 	c #60B8E5",
"f 	c #5DB7E4",
"g 	c #5CB5E4",
"h 	c #5FB8E4",
"i 	c #1E8AC9",
"j 	c #2D94CF",
"k 	c #379BD3",
"l 	c #1D89C8",
"m 	c #5BB4E2",
"n 	c #3B9ED5",
"o 	c #75C7EE",
"p 	c #3398D1",
"q 	c #54B0E0",
"r 	c #6FC2EB",
"s 	c #6AC0E9",
"t 	c #69BFE9",
"u 	c #67BDE8",
"v 	c #62BBE8",
"w 	c #53A8D7",
"x 	c #6CA8CD",
"y 	c #97BFD7",
"z 	c #EAE4E1",
"A 	c #097CC1",
"B 	c #097ABF",
"C 	c #087ABF",
"D 	c #218CCA",
"E 	c #79CAF0",
"F 	c #50ACDE",
"G 	c #4EABDD",
"H 	c #7BCBF1",
"I 	c #7CCCF1",
"J 	c #66BCE8",
"K 	c #7ACAF0",
"L 	c #76C7EF",
"M 	c #74C7ED",
"N 	c #73C5ED",
"O 	c #77C5EB",
"P 	c #C7D8E0",
"Q 	c #EDE3DE",
"R 	c #E5E0DE",
"S 	c #E3DFDD",
"T 	c #E5E1DF",
"U 	c #E6E2E0",
"V 	c #0A7BC0",
"W 	c #0577BE",
"X 	c #63BAE6",
"Y 	c #93DCFB",
"Z 	c #2991CD",
"` 	c #107FC3",
" .	c #6BC0E9",
"..	c #84D2F4",
"+.	c #83D1F4",
"@.	c #81CFF3",
"#.	c #80CFF3",
"$.	c #7ECDF1",
"%.	c #8ACEEE",
"&.	c #E4E0DE",
"*.	c #E3E0DE",
"=.	c #DFDBD9",
"-.	c #DDDAD7",
";.	c #DEDAD6",
">.	c #DAD7D2",
",.	c #D6D4CF",
"'.	c #D5D3CF",
").	c #097BC1",
"!.	c #0A7ABF",
"~.	c #0477BD",
"{.	c #2F95D0",
"].	c #48A7DA",
"^.	c #8CD8F8",
"/.	c #89D6F7",
"(.	c #89D5F7",
"_.	c #88D5F6",
":.	c #88D4F5",
"<.	c #E0DFDD",
"[.	c #E0DDD9",
"}.	c #DEDCD7",
"|.	c #C9C7C5",
"1.	c #B9B7B6",
"2.	c #B4C1C4",
"3.	c #B6C5C8",
"4.	c #C3C4C5",
"5.	c #CACAC8",
"6.	c #C7C6C2",
"7.	c #C5C3C0",
"8.	c #C2C2BF",
"9.	c #097AC0",
"0.	c #75C7ED",
"a.	c #7DCDF1",
"b.	c #7FCEF2",
"c.	c #7CCDF2",
"d.	c #B4D2DD",
"e.	c #D5D2CE",
"f.	c #D3D0CC",
"g.	c #B6B5B3",
"h.	c #ABB9BA",
"i.	c #AFDCE3",
"j.	c #D5E8EB",
"k.	c #E2EBED",
"l.	c #D7E9EB",
"m.	c #AAC0CA",
"n.	c #C4C2C1",
"o.	c #B3B4B1",
"p.	c #AFB0AE",
"q.	c #AEB0AD",
"r.	c #0779BE",
"s.	c #3C9ED5",
"t.	c #55B0E1",
"u.	c #61B9E5",
"v.	c #64BBE7",
"w.	c #66BCE7",
"x.	c #65BDE9",
"y.	c #CBC8C3",
"z.	c #C5C5C1",
"A.	c #BABAB8",
"B.	c #A6ACAD",
"C.	c #B1E0E7",
"D.	c #EAECEC",
"E.	c #ECEDED",
"F.	c #ECECEC",
"G.	c #E9ECEC",
"H.	c #80B8D5",
"I.	c #97B0BE",
"J.	c #ADAFAE",
"K.	c #9DA09F",
"L.	c #9A9D9D",
"M.	c #0779BF",
"N.	c #41A2D7",
"O.	c #5CB6E3",
"P.	c #5DB6E3",
"Q.	c #5EB7E4",
"R.	c #62B9E6",
"S.	c #63BBE6",
"T.	c #78BCDD",
"U.	c #BBB9B4",
"V.	c #B5B5B3",
"W.	c #A8A7A7",
"X.	c #ABCCD0",
"Y.	c #D6E7E9",
"Z.	c #EBECEC",
"`.	c #E7ECEC",
" +	c #BFD7E2",
".+	c #4497BF",
"++	c #B6B2B0",
"@+	c #888C8C",
"#+	c #868A8B",
"$+	c #0678BE",
"%+	c #238CCA",
"&+	c #58B2E1",
"*+	c #59B3E2",
"=+	c #5DB6E4",
"-+	c #60B7E4",
";+	c #7BB4D0",
">+	c #A7A8A5",
",+	c #A2A4A3",
"'+	c #A3A1A1",
")+	c #A8D6DD",
"!+	c #E4EBEB",
"~+	c #ECEDEC",
"{+	c #E1EAEB",
"]+	c #DFE8EA",
"^+	c #379EC5",
"/+	c #B2AFAE",
"(+	c #737A7B",
"_+	c #707879",
":+	c #0E7EC2",
"<+	c #47A7DA",
"[+	c #3DA0D6",
"}+	c #54AFDF",
"|+	c #55B1E0",
"1+	c #59B4E2",
"2+	c #5AB4E3",
"3+	c #5EB6E4",
"4+	c #72AECB",
"5+	c #939695",
"6+	c #8E9192",
"7+	c #A09F9F",
"8+	c #ADD2D8",
"9+	c #B8DFE5",
"0+	c #DFE9EB",
"a+	c #DCE8EA",
"b+	c #D5E7E9",
"c+	c #E0EAEB",
"d+	c #E3E9EB",
"e+	c #48ABC8",
"f+	c #AAA5A4",
"g+	c #5C6568",
"h+	c #5B6467",
"i+	c #1C88C8",
"j+	c #4BA9DC",
"k+	c #52AFDF",
"l+	c #53AFDF",
"m+	c #57B1E1",
"n+	c #58B3E1",
"o+	c #64AED4",
"p+	c #808281",
"q+	c #7A8081",
"r+	c #919494",
"s+	c #ADBCBE",
"t+	c #AADDE4",
"u+	c #B7DFE5",
"v+	c #C7E3E7",
"w+	c #CFE3E6",
"x+	c #6EB0BE",
"y+	c #8F9191",
"z+	c #495458",
"A+	c #4B565A",
"B+	c #0E7FC3",
"C+	c #2A91CE",
"D+	c #1683C5",
"E+	c #389CD3",
"F+	c #51ADDF",
"G+	c #53B0E0",
"H+	c #56B0E0",
"I+	c #5AB8E8",
"J+	c #6A7376",
"K+	c #656E70",
"L+	c #636C6E",
"M+	c #A5A4A4",
"N+	c #AFCFD4",
"O+	c #B9E1E6",
"P+	c #C7E4E7",
"Q+	c #E2EBEC",
"R+	c #A7D4DA",
"S+	c #A6A9A9",
"T+	c #636B6E",
"U+	c #586265",
"V+	c #5C666A",
"W+	c #0578BF",
"X+	c #3D9FD6",
"Y+	c #2A92CD",
"Z+	c #55B0E0",
"`+	c #56B1E1",
" @	c #58B3E2",
".@	c #578AA5",
"+@	c #4F585C",
"@@	c #4C565A",
"#@	c #5E6669",
"$@	c #A6A4A3",
"%@	c #A9BABC",
"&@	c #B4CFD4",
"*@	c #BED4D7",
"=@	c #B8C4C6",
"-@	c #A7A7A6",
";@	c #7C8284",
">@	c #676F72",
",@	c #6B7477",
"'@	c #70787B",
")@	c #46A6DA",
"!@	c #47A6DA",
"~@	c #2C93CE",
"{@	c #0879BF",
"]@	c #1885C6",
"^@	c #41A3D8",
"/@	c #52AEDF",
"(@	c #53B0DF",
"_@	c #56B1E0",
":@	c #57B5E5",
"<@	c #536770",
"[@	c #566164",
"}@	c #5A6568",
"|@	c #616B6E",
"1@	c #888C8E",
"2@	c #98999A",
"3@	c #9B9B9B",
"4@	c #909495",
"5@	c #787F82",
"6@	c #767D81",
"7@	c #7A8285",
"8@	c #7F8789",
"9@	c #067AC0",
"0@	c #45A5D9",
"a@	c #1A86C7",
"b@	c #4CAADC",
"c@	c #56B0DE",
"d@	c #687981",
"e@	c #6F7779",
"f@	c #737A7D",
"g@	c #767E80",
"h@	c #788083",
"i@	c #7C8386",
"j@	c #81888B",
"k@	c #858C8F",
"l@	c #899092",
"m@	c #8D9396",
"n@	c #0B7DC2",
"o@	c #41A1D7",
"p@	c #228CCA",
"q@	c #51AEDF",
"r@	c #55B2E3",
"s@	c #6B9AB3",
"t@	c #868C8E",
"u@	c #8D9090",
"v@	c #8D9395",
"w@	c #909698",
"x@	c #959A9C",
"y@	c #989EA0",
"z@	c #9AA0A2",
"A@	c #C1C0BD",
"B@	c #A3A9AA",
"C@	c #652A16",
"D@	c #3FA0D6",
"E@	c #4BA9DB",
"F@	c #4FACDE",
"G@	c #50AEDE",
"H@	c #56B3E4",
"I@	c #2C85BA",
"J@	c #B8BDBF",
"K@	c #726A68",
"L@	c #B84017",
"M@	c #B44119",
"N@	c #0A7CC2",
"O@	c #0B7BC0",
"P@	c #238DCA",
"Q@	c #4AA8DB",
"R@	c #4AA9DC",
"S@	c #4DABDC",
"T@	c #53AEDF",
"U@	c #43A4D8",
"V@	c #0E7FC4",
"W@	c #421506",
"X@	c #822D10",
"Y@	c #A43B17",
"Z@	c #E95421",
"`@	c #873112",
" #	c #077AC1",
".#	c #2891CD",
"+#	c #49A8DB",
"@#	c #4CA9DC",
"##	c #1A87C8",
"$#	c #0479C0",
"%#	c #67260E",
"&#	c #6C270F",
"*#	c #6B270F",
"=#	c #C4471C",
"-#	c #BA431B",
";#	c #1081C4",
">#	c #0679C0",
",#	c #571F0C",
"'#	c #59200D",
")#	c #5C210D",
"!#	c #A53C17",
"~#	c #42180A",
"{#	c #41180A",
"]#	c #3D1609",
"                                                                ",
"                                                                ",
"                                                                ",
"                                                                ",
"                . + @ # $ % & *                                 ",
"            = - ; > , ' ) ! ~ , { ]                             ",
"          ^ / , - ( _ : < [ } | 1 2 3                           ",
"        4 5 6 7 8 9 0 a b c d e f g h i                         ",
"      & j k l m n > o p q r s t u v w x y z                     ",
"    A B C D E F G H I J K L M N O P Q R S S S T U               ",
"    ~ V W X Y Z `  ...+.@.#.$.%.&.*.&.T =.-.;.>.,.'.            ",
"  ).!.V V ~.{.V ! ].^./.(._.:.<.[.}.|.1.2.3.4.5.6.7.8.          ",
"  & V V V V B 9./ 0.E a.b.c.d.e.f.g.h.i.j.k.l.m.n.o.p.q.        ",
"  % V V V V r.s.t.u.X v.w.x.y.z.A.B.C.D.E.F.G.H.I.J.K.L.        ",
"  ~ V V V M.N.O.P.Q.u.R.S.T.U.V.W.X.Y.Z.E.F.`. +.+++@+#+        ",
"  !.V $+$+%+&+*+m O.=+-+u.;+>+,+'+)+!+Z.~+Z.{+]+^+/+(+_+        ",
"  ~ :+<+q [+}+|+&+1+2+P.3+4+5+6+7+8+9+0+a+b+c+d+e+f+g+h+        ",
"  ).i+j+, n k+l+q m+n+1+d o+p+q+r+s+t+u+v+b+c+w+x+y+z+A+        ",
"  B+C+D+E+/ , F+k+G+H+| *+I+J+K+L+M+N+O+P+b+Q+R+S+T+U+V+        ",
"  W+X+j+C+N.Y+k l+F+l+Z+`+ @.@+@@@#@$@%@&@*@=@-@;@>@,@'@        ",
"    i+)@!@~@B {@]@^@/ /@(@_@:@<@[@}@|@1@2@3@4@5@6@7@8@          ",
"    9@k 0@a@V V V ! b@2 2 k+Z+c@d@e@f@g@h@i@j@k@l@m@            ",
"      n@o@l B V V V V p@F F q@}+r@s@t@u@v@w@x@y@z@  A@B@C@      ",
"        B+D@C V V V ~ 9.E@G F@G@k+q H@I@            J@K@L@M@    ",
"          N@p@O@V V V P@Q@R@S@G T@U@V@              W@X@Y@Z@`@  ",
"             #& B !.B .#+#@#E@; ##$#                %#&#*#=#-#  ",
"                  N@).} ^ ;#>#                        ,#'#)#!#  ",
"                                                        ~#{#]#  ",
"                                                                ",
"                                                                ",
"                                                                ",
"                                                                "};
