/* XPM */
static char * update_48_xpm[] = {
"48 48 759 2",
"  	c None",
". 	c #A4BB85",
"+ 	c #A5BB86",
"@ 	c #82A257",
"# 	c #88A95C",
"$ 	c #9DBD74",
"% 	c #ACCA87",
"& 	c #B3D090",
"* 	c #B7D295",
"= 	c #B5CF95",
"- 	c #AAC489",
"; 	c #95B06F",
"> 	c #8AA662",
", 	c #7E9F52",
"' 	c #8AAE5C",
") 	c #ACCD84",
"! 	c #B6D88E",
"~ 	c #B4D88C",
"{ 	c #BADA95",
"] 	c #BFDD9D",
"^ 	c #C5E0A6",
"/ 	c #CCE4B1",
"( 	c #D2E7BB",
"_ 	c #C2D7A9",
": 	c #95B16F",
"< 	c #7B9F4B",
"[ 	c #A6C87D",
"} 	c #B0D586",
"| 	c #ABD37E",
"1 	c #ADD381",
"2 	c #B0D587",
"3 	c #B5D88F",
"4 	c #BBDB98",
"5 	c #C0DEA0",
"6 	c #C5E0A8",
"7 	c #CAE3AF",
"8 	c #CEE5B6",
"9 	c #D0E6B9",
"0 	c #D0E5BA",
"a 	c #A7C186",
"b 	c #89A561",
"c 	c #84A755",
"d 	c #B6D692",
"e 	c #B5D88E",
"f 	c #AFD186",
"g 	c #AFCE89",
"h 	c #B4D290",
"i 	c #BDDA9C",
"j 	c #C0DEA1",
"k 	c #BFDDA0",
"l 	c #C3DFA5",
"m 	c #C8E1AD",
"n 	c #CCE4B4",
"o 	c #D0E6BA",
"p 	c #CFE5B8",
"q 	c #CBE3B3",
"r 	c #B0C992",
"s 	c #86A959",
"t 	c #BFD99F",
"u 	c #A7C582",
"v 	c #8BAD6F",
"w 	c #7AA177",
"x 	c #76A07F",
"y 	c #749E79",
"z 	c #7FA473",
"A 	c #A2BD83",
"B 	c #C1D9A6",
"C 	c #CAE3B1",
"D 	c #CFE5B9",
"E 	c #D2E7BD",
"F 	c #CCE4B5",
"G 	c #C8E2B0",
"H 	c #CDE4B6",
"I 	c #A9C38A",
"J 	c #83A15A",
"K 	c #90AB6B",
"L 	c #789B4B",
"M 	c #83A556",
"N 	c #A9C685",
"O 	c #7DA16C",
"P 	c #689588",
"Q 	c #7EABB8",
"R 	c #80AFCC",
"S 	c #93BBD5",
"T 	c #A7C7DA",
"U 	c #A2C3CD",
"V 	c #9FBDAF",
"W 	c #8EAD7F",
"X 	c #B4CB99",
"Y 	c #D1E6BC",
"Z 	c #D1E6BD",
"` 	c #D4E8C0",
" .	c #D0E6BC",
"..	c #CCE4B6",
"+.	c #C8E2B1",
"@.	c #C5E0AB",
"#.	c #CAE3B4",
"$.	c #94B26F",
"%.	c #8FAB69",
"&.	c #9CBA78",
"*.	c #BDD7A3",
"=.	c #8CAC64",
"-.	c #769946",
";.	c #85A95A",
">.	c #749A71",
",.	c #719FB2",
"'.	c #7FB0D4",
").	c #8DB8D4",
"!.	c #A1C3D7",
"~.	c #C3D9E5",
"{.	c #D8E9F0",
"].	c #D5EBF4",
"^.	c #C7E3EF",
"/.	c #B2D1D7",
"(.	c #94B391",
"_.	c #B1C797",
":.	c #D6E8C4",
"<.	c #D4E8C1",
"[.	c #D0E5BB",
"}.	c #CCE3B6",
"|.	c #C8E1B0",
"1.	c #C4DFAA",
"2.	c #C1DEA6",
"3.	c #C3DCAA",
"4.	c #7D9F51",
"5.	c #7C9C4F",
"6.	c #B5D497",
"7.	c #B7D996",
"8.	c #B8D59A",
"9.	c #86A45D",
"0.	c #668D34",
"a.	c #7DA080",
"b.	c #92B8D1",
"c.	c #7DAFD4",
"d.	c #88B5D1",
"e.	c #B2CDDD",
"f.	c #C9DEE8",
"g.	c #D8E9F1",
"h.	c #DAEEF6",
"i.	c #DBF2FA",
"j.	c #D9F0F7",
"k.	c #C9E4EF",
"l.	c #B9D6E0",
"m.	c #99B796",
"n.	c #B6CC9E",
"o.	c #D7E9C5",
"p.	c #CFE5BA",
"q.	c #CBE3B5",
"r.	c #C7E1AF",
"s.	c #C3DFA9",
"t.	c #BFDCA3",
"u.	c #C0D9A7",
"v.	c #B6D896",
"w.	c #B0D58D",
"x.	c #B5D894",
"y.	c #A6C484",
"z.	c #598027",
"A.	c #6C9276",
"B.	c #83ADCE",
"C.	c #7CAFD3",
"D.	c #77AACB",
"E.	c #9CBFD4",
"F.	c #ADCBDB",
"G.	c #C2DBE6",
"H.	c #CFE6EF",
"I.	c #CEE8F2",
"J.	c #D4EDF5",
"K.	c #D5EDF5",
"L.	c #CCE6F0",
"M.	c #C1DDEA",
"N.	c #BCD6DD",
"O.	c #9FB88E",
"P.	c #C3D7AC",
"Q.	c #CAE2B3",
"R.	c #C6E1AE",
"S.	c #C2DEA8",
"T.	c #BEDCA2",
"U.	c #BBDA9D",
"V.	c #B9DA9B",
"W.	c #B2D690",
"X.	c #AFD48C",
"Y.	c #BADA9C",
"Z.	c #8DAD65",
"`.	c #49754F",
" +	c #558CB5",
".+	c #65A0CC",
"++	c #65A0C8",
"@+	c #81AFCB",
"#+	c #92B9CE",
"$+	c #A3C6D7",
"%+	c #C4DCE7",
"&+	c #C4DFEA",
"*+	c #C8E3EE",
"=+	c #D4EAF3",
"-+	c #DEEFF5",
";+	c #DAECF3",
">+	c #D1E5EE",
",+	c #CFE3EE",
"'+	c #CFDED7",
")+	c #9EB780",
"!+	c #CDE1B8",
"~+	c #CBE3B4",
"{+	c #C6E0AD",
"]+	c #C2DEA7",
"^+	c #BEDCA1",
"/+	c #B6D796",
"(+	c #B2D590",
"_+	c #B9D69B",
":+	c #56795B",
"<+	c #427698",
"[+	c #4489BF",
"}+	c #5698C6",
"|+	c #6BA3C7",
"1+	c #88B3CC",
"2+	c #97BCCF",
"3+	c #B1CFDD",
"4+	c #C0DAE6",
"5+	c #C2DDE8",
"6+	c #D0E6EF",
"7+	c #DDEDF4",
"8+	c #DBECF3",
"9+	c #D8EAF2",
"0+	c #D2E5EF",
"a+	c #BDD5D5",
"b+	c #A2BCA0",
"c+	c #98B279",
"d+	c #CADDB5",
"e+	c #CCE3B5",
"f+	c #BDDCA0",
"g+	c #B9D99A",
"h+	c #B5D795",
"i+	c #B1D58F",
"j+	c #B4D793",
"k+	c #A9C688",
"l+	c #39657D",
"m+	c #437FB4",
"n+	c #488EC3",
"o+	c #5B9AC6",
"p+	c #70A5C8",
"q+	c #8AB4CC",
"r+	c #B1CDDB",
"s+	c #E8F1F5",
"t+	c #E1EDF2",
"u+	c #C7DEE9",
"v+	c #C7E0EA",
"w+	c #D4E7F0",
"x+	c #CFE5EF",
"y+	c #C5DBD9",
"z+	c #A2BE9F",
"A+	c #98B480",
"B+	c #B7CC9E",
"C+	c #D0E4BD",
"D+	c #CEE5B9",
"E+	c #C4DFAB",
"F+	c #C0DDA5",
"G+	c #BCDB9F",
"H+	c #B8D999",
"I+	c #B4D794",
"J+	c #B1D58E",
"K+	c #BADA9B",
"L+	c #90B068",
"M+	c #43637E",
"N+	c #3D6F9C",
"O+	c #4485BA",
"P+	c #4B91C4",
"Q+	c #5E9CC6",
"R+	c #77AACA",
"S+	c #99BDD3",
"T+	c #BDD4E0",
"U+	c #E1EBF1",
"V+	c #D6E6ED",
"W+	c #C7DEE8",
"X+	c #BFD7D5",
"Y+	c #9EBB9B",
"Z+	c #97B37C",
"`+	c #B4CB9A",
" @	c #D3E5C0",
".@	c #D7EAC5",
"+@	c #C8E1AF",
"@@	c #C0DDA4",
"#@	c #BCDB9E",
"$@	c #B4D693",
"%@	c #B0D58E",
"&@	c #BAD79C",
"*@	c #82A258",
"=@	c #345B7F",
"-@	c #4278A8",
";@	c #4488BD",
">@	c #4E93C5",
",@	c #70A7CC",
"'@	c #8AB5D1",
")@	c #92B9D0",
"!@	c #A9C7D7",
"~@	c #A2C3D5",
"{@	c #B7D2DF",
"]@	c #CBDFEA",
"^@	c #C6DADD",
"/@	c #91AF85",
"(@	c #7C9D56",
"_@	c #ABC28E",
":@	c #C7DAB1",
"<@	c #D2E4BF",
"[@	c #D6E9C5",
"}@	c #D2E7BF",
"|@	c #C3DFA8",
"1@	c #B7D897",
"2@	c #B3D692",
"3@	c #B3D792",
"4@	c #ACC98B",
"5@	c #91AB6C",
"6@	c #335D85",
"7@	c #437BAD",
"8@	c #478BC0",
"9@	c #68A4CE",
"0@	c #77ABCF",
"a@	c #72A6C9",
"b@	c #86B2CD",
"c@	c #ABC8D8",
"d@	c #BAD3E0",
"e@	c #C3D9E4",
"f@	c #C5DBE5",
"g@	c #C1D8DE",
"h@	c #B8CFCC",
"i@	c #A3BEAC",
"j@	c #8FAF8E",
"k@	c #91AF82",
"l@	c #9FB986",
"m@	c #B0C897",
"n@	c #C0D6A7",
"o@	c #C9DFB1",
"p@	c #B9DA9A",
"q@	c #94B46E",
"r@	c #8094A8",
"s@	c #34618B",
"t@	c #487FB1",
"u@	c #649DCA",
"v@	c #619FCC",
"w@	c #5D9BC6",
"x@	c #6AA2C7",
"y@	c #8BB6D0",
"z@	c #A7C6D8",
"A@	c #B6CFDD",
"B@	c #AECBDA",
"C@	c #A1C3D4",
"D@	c #AFCCDB",
"E@	c #B8D2E0",
"F@	c #C0D7E4",
"G@	c #B8D3E1",
"H@	c #A9C8D9",
"I@	c #A5C4CF",
"J@	c #A0BEBD",
"K@	c #8AAE9F",
"L@	c #82A688",
"M@	c #88AA7C",
"N@	c #99B580",
"O@	c #A7C28B",
"P@	c #B7D199",
"Q@	c #BDD9A0",
"R@	c #BBDA9C",
"S@	c #B6D895",
"T@	c #BCD99F",
"U@	c #86A65D",
"V@	c #6F869E",
"W@	c #386590",
"X@	c #6292BC",
"Y@	c #5996C6",
"Z@	c #4A91C4",
"`@	c #5999C6",
" #	c #67A0C7",
".#	c #8FB9D3",
"+#	c #9EC1D7",
"@#	c #A9C7D9",
"##	c #A4C4D5",
"$#	c #A3C3D4",
"%#	c #A0C1D3",
"&#	c #A2C3D4",
"*#	c #ABC9D8",
"=#	c #AFCCDA",
"-#	c #B1CCDB",
";#	c #AFCBDA",
">#	c #ABC8DA",
",#	c #A1C3D9",
"'#	c #97BDD6",
")#	c #91B9CD",
"!#	c #93B8BF",
"~#	c #70A09C",
"{#	c #6A9981",
"]#	c #789F73",
"^#	c #8CAD74",
"/#	c #A1BF82",
"(#	c #A2C07F",
"_#	c #92AC70",
":#	c #51706B",
"<#	c #4B737E",
"[#	c #5F8EB0",
"}#	c #4386BB",
"|#	c #478FC6",
"1#	c #5396C7",
"2#	c #69A2CA",
"3#	c #9BC1D9",
"4#	c #A6C7DC",
"5#	c #ACCADC",
"6#	c #AECBDC",
"7#	c #9DBFD2",
"8#	c #90B6CB",
"9#	c #94B9CD",
"0#	c #93B8CD",
"a#	c #92B8CD",
"b#	c #A2C3D6",
"c#	c #A3C4D8",
"d#	c #9BC0D6",
"e#	c #8CB8D5",
"f#	c #98C0DC",
"g#	c #7AAED5",
"h#	c #67A2CF",
"i#	c #6B9EC1",
"j#	c #5B8AA0",
"k#	c #4D7774",
"l#	c #4B6F4F",
"m#	c #77984C",
"n#	c #8EAD70",
"o#	c #769B6B",
"p#	c #5C8D74",
"q#	c #4D898B",
"r#	c #4F8FA6",
"s#	c #7AACC6",
"t#	c #A4C6DD",
"u#	c #9FC3DD",
"v#	c #A7C8DE",
"w#	c #A6C6DB",
"x#	c #A9C8DA",
"y#	c #A8C7D9",
"z#	c #9FC1D5",
"A#	c #A3C4D7",
"B#	c #9EC0D5",
"C#	c #9BBFD4",
"D#	c #9FC2D7",
"E#	c #9CC0D7",
"F#	c #94BCD5",
"G#	c #85B3D2",
"H#	c #7CAED0",
"I#	c #80B1D4",
"J#	c #7BAFD5",
"K#	c #639FCB",
"L#	c #699CC7",
"M#	c #5A8AB6",
"N#	c #49729B",
"O#	c #3D5D7C",
"P#	c #90B069",
"Q#	c #C0DEA4",
"R#	c #B9D899",
"S#	c #B5D195",
"T#	c #A7C48A",
"U#	c #92B27B",
"V#	c #8AAC7B",
"W#	c #84A885",
"X#	c #83AA9C",
"Y#	c #93B7B9",
"Z#	c #97BCCC",
"`#	c #9EC2D8",
" $	c #A2C4DB",
".$	c #A3C5DB",
"+$	c #A2C4D9",
"@$	c #A0C3D8",
"#$	c #9DC1D7",
"$$	c #92BAD4",
"%$	c #8EB9D5",
"&$	c #88B5D4",
"*$	c #7BAED1",
"=$	c #A2C6E0",
"-$	c #CCE0EE",
";$	c #639CC8",
">$	c #5E92BF",
",$	c #5E8AB3",
"'$	c #4C7397",
")$	c #43617D",
"!$	c #A9C788",
"~$	c #AFD58C",
"{$	c #B4D792",
"]$	c #BBDB9C",
"^$	c #C2DEA6",
"/$	c #C4DDA9",
"($	c #BFD7A4",
"_$	c #B1C995",
":$	c #A0BB87",
"<$	c #8EAD80",
"[$	c #86A988",
"}$	c #87AC9E",
"|$	c #8DB3B7",
"1$	c #94BACC",
"2$	c #96BDD7",
"3$	c #95BDD8",
"4$	c #88B4D2",
"5$	c #80B0D0",
"6$	c #87B5D4",
"7$	c #86B4D5",
"8$	c #7AAED3",
"9$	c #79ADD4",
"0$	c #9DC2DE",
"a$	c #5C95C2",
"b$	c #578BB9",
"c$	c #5B85AC",
"d$	c #4F7294",
"e$	c #3F5C77",
"f$	c #7F9F53",
"g$	c #BFDDA3",
"h$	c #C4E0AA",
"i$	c #CBE4B3",
"j$	c #D1E4BC",
"k$	c #C9DCB3",
"l$	c #B7CDA0",
"m$	c #A3BD8D",
"n$	c #8BAB7C",
"o$	c #739B75",
"p$	c #7EA9AB",
"q$	c #79ADD0",
"r$	c #9DC3DD",
"s$	c #83B3D5",
"t$	c #5B9CCA",
"u$	c #4B91C5",
"v$	c #72A5CE",
"w$	c #5F94C0",
"x$	c #5788B4",
"y$	c #557DA3",
"z$	c #4E6F8E",
"A$	c #587086",
"B$	c #90AF68",
"C$	c #B8D998",
"D$	c #D0E6BB",
"E$	c #DAEBC9",
"F$	c #C2D6AA",
"G$	c #8AAA70",
"H$	c #6C9773",
"I$	c #7DABB8",
"J$	c #88B6D6",
"K$	c #89B7D7",
"L$	c #86B5D7",
"M$	c #68A3CE",
"N$	c #5396C8",
"O$	c #4E8FC2",
"P$	c #74A3CA",
"Q$	c #6996BF",
"R$	c #5984AD",
"S$	c #567A9D",
"T$	c #4B6986",
"U$	c #A5C483",
"V$	c #B5D794",
"W$	c #B8D99A",
"X$	c #C4E0AB",
"Y$	c #D4E7C0",
"Z$	c #C2D6AB",
"`$	c #93B27F",
" %	c #759F82",
".%	c #7BA9B5",
"+%	c #86B5D5",
"@%	c #83B3D7",
"#%	c #7AAED4",
"$%	c #6EA7D0",
"%%	c #66A1CD",
"&%	c #5393C4",
"*%	c #538EBE",
"=%	c #76A1C7",
"-%	c #6E96BB",
";%	c #5980A5",
">%	c #567796",
",%	c #557177",
"'%	c #B7D599",
")%	c #C5E0AC",
"!%	c #CDE4B7",
"~%	c #C3D8AC",
"{%	c #93B282",
"]%	c #91B18F",
"^%	c #93B9BF",
"/%	c #7CAFD4",
"(%	c #78ADD5",
"_%	c #70A8D1",
":%	c #6BA5D0",
"<%	c #72AAD2",
"[%	c #69A2CD",
"}%	c #5B96C5",
"|%	c #558FBE",
"1%	c #598DBB",
"2%	c #789FC2",
"3%	c #6E92B3",
"4%	c #597B9D",
"5%	c #54737C",
"6%	c #7C976A",
"7%	c #8BAB62",
"8%	c #B0D48D",
"9%	c #C6E0AC",
"0%	c #ADC591",
"a%	c #568A79",
"b%	c #72A7CF",
"c%	c #85B4D9",
"d%	c #66A1CE",
"e%	c #64A0CD",
"f%	c #6AA3CE",
"g%	c #6AA0CA",
"h%	c #5F96C3",
"i%	c #568EBD",
"j%	c #5A8EBB",
"k%	c #5C8AB5",
"l%	c #7B9DBC",
"m%	c #6B8AA9",
"n%	c #59778C",
"o%	c #557841",
"p%	c #BFDDA2",
"q%	c #C7E1AE",
"r%	c #D0E4BC",
"s%	c #85A77D",
"t%	c #4F88A3",
"u%	c #6DA0CB",
"v%	c #70A3CC",
"w%	c #6098C6",
"x%	c #669CC8",
"y%	c #74A4CB",
"z%	c #6B9DC7",
"A%	c #6698C3",
"B%	c #588DBB",
"C%	c #5B8CB8",
"D%	c #5D8AB3",
"E%	c #5D85AB",
"F%	c #7F9BB5",
"G%	c #648198",
"H%	c #54764F",
"I%	c #719243",
"J%	c #83A158",
"K%	c #B6D397",
"L%	c #BBDB9E",
"M%	c #D1E7BD",
"N%	c #709774",
"O%	c #598CAC",
"P%	c #74A0C8",
"Q%	c #83ABCD",
"R%	c #83AACD",
"S%	c #6D9AC3",
"T%	c #6A98C1",
"U%	c #6894BD",
"V%	c #5C8AB4",
"W%	c #608AB0",
"X%	c #5C83A6",
"Y%	c #6586A6",
"Z%	c #7F97A9",
"`%	c #5D7E5C",
" &	c #5C8429",
".&	c #86A75C",
"+&	c #B3D791",
"@&	c #B9D89B",
"#&	c #AAC889",
"$&	c #85A65A",
"%&	c #AFCA90",
"&&	c #C2D6AD",
"*&	c #709676",
"=&	c #6A93AA",
"-&	c #C4D4E5",
";&	c #ACC3D8",
">&	c #6791B7",
",&	c #668FB4",
"'&	c #6088AD",
")&	c #6086A9",
"!&	c #6183A4",
"~&	c #5C7C9C",
"{&	c #77919B",
"]&	c #729166",
"^&	c #789F4B",
"/&	c #5A7830",
"(&	c #A1BF7E",
"_&	c #BEDAA2",
":&	c #A5C384",
"<&	c #7A9951",
"[&	c #66843E",
"}&	c #C3DBA9",
"|&	c #C9E2B1",
"1&	c #D6EAC4",
"2&	c #C1D6AA",
"3&	c #82A174",
"4&	c #729392",
"5&	c #7898B1",
"6&	c #7797B6",
"7&	c #6588AA",
"8&	c #597C9F",
"9&	c #5E7E9C",
"0&	c #627F93",
"a&	c #6D897D",
"b&	c #84A169",
"c&	c #9FBE79",
"d&	c #6A8A40",
"e&	c #86A35D",
"f&	c #99B674",
"g&	c #92AF6D",
"h&	c #89A663",
"i&	c #CAE2B4",
"j&	c #C6E1AD",
"k&	c #C9E2B2",
"l&	c #D1E7BC",
"m&	c #C9DEB1",
"n&	c #99B480",
"o&	c #6C8E67",
"p&	c #648672",
"q&	c #6B8A80",
"r&	c #6F8C7F",
"s&	c #728F71",
"t&	c #819F68",
"u&	c #A2BF80",
"v&	c #BDD79F",
"w&	c #80A156",
"x&	c #739444",
"y&	c #99B577",
"z&	c #D3E8BF",
"A&	c #CBE3B2",
"B&	c #C7E2AD",
"C&	c #C9E2AE",
"D&	c #C0D9A2",
"E&	c #ACC78C",
"F&	c #A1BE80",
"G&	c #A1BF7F",
"H&	c #A9C884",
"I&	c #B7D793",
"J&	c #82A457",
"K&	c #95B073",
"L&	c #CEE3B8",
"M&	c #CFE6B8",
"N&	c #D1E7BB",
"O&	c #CDE4B5",
"P&	c #C8E2AE",
"Q&	c #C4DFA6",
"R&	c #BEDD9E",
"S&	c #B9DA95",
"T&	c #B1D788",
"U&	c #B4D88D",
"V&	c #AFD089",
"W&	c #749547",
"X&	c #8EAB66",
"Y&	c #C2D8AA",
"Z&	c #D5E9C1",
"`&	c #CBE3B1",
" *	c #C5E1A8",
".*	c #C1DEA0",
"+*	c #B7D991",
"@*	c #B7D990",
"#*	c #B4D58F",
"$*	c #97B96D",
"%*	c #5C7B30",
"&*	c #8DA965",
"**	c #9DB878",
"=*	c #C1D7A6",
"-*	c #CBE1B1",
";*	c #C7E1A9",
">*	c #C2DEA2",
",*	c #BDDB9B",
"'*	c #B4D18F",
")*	c #9ABA70",
"!*	c #82A353",
"~*	c #5D7739",
"{*	c #799751",
"]*	c #7D9B54",
"^*	c #79984F",
"/*	c #627E3A",
"(*	c #486323",
"                                                                                                ",
"                                                                                                ",
"                                                                                                ",
"                                                . +                                             ",
"                                        @ # $ % & * = - ; >                                     ",
"                                    , ' ) ! ~ ! { ] ^ / ( _ :                                   ",
"                                  < [ } | 1 2 3 4 5 6 7 8 9 0 a b                               ",
"                                c d e f g h i j k l m n o p q p r b                             ",
"                              s t u v w x y z A B C C D E o F G H I J           K L             ",
"                            M N O P Q R S T U V W X Y Z `  ...+.@.#.$.      %.&.*.=.            ",
"                          -.;.>.,.'.).!.~.{.].^./.(._.:.<.[.}.|.1.2.3.4.5.&.6.7.8.9.            ",
"                          0.a.b.c.d.e.f.g.h.i.j.k.l.m.n.o.p.q.r.s.t.2.u.8.v.w.x.y.              ",
"                        z.A.B.C.D.E.F.G.H.I.J.K.L.M.N.O.P.Z Q.R.S.T.U.V.W.X.X.Y.Z.              ",
"                        `. +.+++@+#+$+%+&+*+=+-+;+>+,+'+)+!+~+{+]+^+Y./+(+X.w._+,               ",
"                      :+<+[+}+|+1+2+3+4+5+6+7+8+9+0+a+b+c+d+e+@.2.f+g+h+i+X.j+k+                ",
"                      l+m+n+o+p+q+r+s+t+u+v+w+x+y+z+A+B+C+D+|.E+F+G+H+I+J+X.K+L+                ",
"                    M+N+O+P+Q+R+S+T+U+V+%+W+X+Y+Z+`+ @.@[.q.+@1.@@#@H+$@%@w.&@*@                ",
"                    =@-@;@>@,@'@)@!@~@{@]@^@/@(@_@:@<@[@}@H r.|@t.U.1@2@w.3@4@5@                ",
"                    6@7@8@9@0@a@b@c@c@d@e@f@g@h@i@j@k@l@m@n@o@|.|@G+v.(+X.p@q@                  ",
"                  r@s@t@u@v@w@x@y@z@A@B@C@D@E@F@G@H@I@J@K@L@M@N@O@P@Q@R@S@T@U@                  ",
"                  V@W@X@Y@Z@`@ #.#+#@###$#%#&#*#=#-#;#>#,#'#)#!#~#{#]#^#/#(#_#                  ",
"                  :#<#[#}#|#1#2#3#4#5#6#-#7#8#9#0#a#b#c#d#S e#f#g#h#i#j#k#l#                    ",
"                  m#n#o#p#q#r#s#t#u#v#w#x#y#z#A#B#C#D#E#F#G#H#I#J#K#L#M#N#O#                    ",
"                  P#Q#R#S#T#U#V#W#X#Y#Z#`# $.$+$@$#$$$S %$&$*$=$-$;$>$,$'$)$                    ",
"                  !$j+~${$]$^$/$($_$:$<$[$}$|$1$2$3$4$5$6$7$8$9$0$a$b$c$d$e$                    ",
"                f$_+w.w.2@1@U.g$h$i$o j$k$l$m$n$o$p$G#q$r$s$t$u$v$w$x$y$z$A$                    ",
"                B$Y.X.%@j+C$#@@@1.+@e+D$.@E$F$G$H$I$J$K$L$M$N$O$P$Q$R$S$T$                      ",
"                U$x.X.J+V$W$G+F+X$G D+Y$Z$`$ %.%+%@%8$#%$%%%&%*%=%-%;%>%,%                      ",
"              9.'%J+X.i+h+p@f+2.)%!%~%{%]%^%/%(%_%:%<%_%[%}%|%1%2%3%4%5%6%                      ",
"              7%U.X.8%W.v.Y.^+]+9%D$0%a%b%c%d%e%e%f%b%g%h%i%j%k%l%m%n%o%                        ",
"              (#S@X.X.W.1@R@p%|@q%~+r%s%t%u%v%w%x%y%z%A%B%C%D%E%F%G%H%I%                        ",
"            J%K%J+~${$^+S.L%g$s.r.~+M%d+N%O%P%Q%R%S%T%U%V%W%X%Y%Z%`% &                          ",
"            .&U.+&@&#&$&%&s.@@1.G ..D$.@&&*&=&-&;&>&,&'&)&!&~&{&]&^&/&                          ",
"            (&_&:&<&    [&}&s.@.|&H Y <.1&2&3&4&5&6&7&8&9&0&a&b&c&d&                            ",
"          e&f&g&          h&i&j&k&!%Z <.E l&m&n&o&p&q&r&s&t&u&v&w&                              ",
"          x&                y&D+q !%l&z&9 A&B&C&D&E&F&G&H&I&i J&                                ",
"                              K&L&M&9 N&O&P&Q&R&4 S&3 T&U&V&W&                                  ",
"                                X&Y&Z&( `& *.*4 +*~ @*#*$*%*                                    ",
"                                  &***=*-*7 ;*>*,*'*)*!*                                        ",
"                                        ~*{*]*^*/*(*                                            ",
"                                                                                                ",
"                                                                                                ",
"                                                                                                ",
"                                                                                                ",
"                                                                                                ",
"                                                                                                ",
"                                                                                                ",
"                                                                                                "};
