/* XPM */
static char * update_32_xpm[] = {
"32 32 384 2",
"  	c None",
". 	c #A4BD83",
"+ 	c #AEC58F",
"@ 	c #AAC18C",
"# 	c #9DB77A",
"$ 	c #96B86B",
"% 	c #A8CB7E",
"& 	c #B3D58C",
"* 	c #BAD997",
"= 	c #C1DCA1",
"- 	c #C2DAA6",
"; 	c #B1C993",
"> 	c #A6BD88",
", 	c #95B46C",
"' 	c #A8CC7D",
") 	c #B0D585",
"! 	c #B3D78A",
"~ 	c #B8DA93",
"{ 	c #BDDC9B",
"] 	c #C4E0A7",
"^ 	c #CCE4B3",
"/ 	c #D1E7BB",
"( 	c #C4DBA9",
"_ 	c #A0BA7E",
": 	c #92B268",
"< 	c #AAC987",
"[ 	c #96B97F",
"} 	c #8AB085",
"| 	c #8EB286",
"1 	c #A6C38D",
"2 	c #C0DAA3",
"3 	c #CAE3B1",
"4 	c #CFE5B9",
"5 	c #D0E6BB",
"6 	c #CCE4B4",
"7 	c #C5DDAD",
"8 	c #91AC6B",
"9 	c #8CAB62",
"0 	c #8CAF79",
"a 	c #75A199",
"b 	c #82AEBF",
"c 	c #98BDD2",
"d 	c #B0CDD8",
"e 	c #AAC8C4",
"f 	c #9FBD9A",
"g 	c #BFD6A8",
"h 	c #D4E8C0",
"i 	c #D1E6BD",
"j 	c #CBE3B5",
"k 	c #C7E1AE",
"l 	c #BCD6A1",
"m 	c #98B275",
"n 	c #A1BB80",
"o 	c #ABC98A",
"p 	c #9CB978",
"q 	c #789D63",
"r 	c #82ACB9",
"s 	c #83B2D3",
"t 	c #ABCADD",
"u 	c #CDE1EB",
"v 	c #DBEFF6",
"w 	c #D6EEF8",
"x 	c #BDDAE2",
"y 	c #A4C0A6",
"z 	c #C4D9B0",
"A 	c #D2E7BE",
"B 	c #CAE2B3",
"C 	c #C4DFAA",
"D 	c #C1DEA6",
"E 	c #B2CE93",
"F 	c #A6C683",
"G 	c #B2D590",
"H 	c #B4D594",
"I 	c #A2BB81",
"J 	c #5E854F",
"K 	c #73A2B8",
"L 	c #76ABD0",
"M 	c #8FB8D0",
"N 	c #B2CFDD",
"O 	c #CBE2EC",
"P 	c #CFE9F2",
"Q 	c #D7EDF5",
"R 	c #CEE6F0",
"S 	c #C1DAE1",
"T 	c #B2C8A5",
"U 	c #C9DEB3",
"V 	c #C3DFA9",
"W 	c #BDDCA1",
"X 	c #BADA9C",
"Y 	c #B3D791",
"Z 	c #B1D68E",
"` 	c #A9CA87",
" .	c #89A08B",
"..	c #447A92",
"+.	c #5595C7",
"@.	c #71A6C9",
"#.	c #93BACF",
"$.	c #B5D1DF",
"%.	c #C3DDE9",
"&.	c #D0E7EF",
"*.	c #DCEDF5",
"=.	c #D8EAF2",
"-.	c #C4DADD",
";.	c #AAC2A2",
">.	c #BAD0A2",
",.	c #CBE3B4",
"'.	c #C2DEA8",
").	c #BCDB9F",
"!.	c #B6D896",
"~.	c #B1D58E",
"{.	c #B3D792",
"].	c #9DBB78",
"^.	c #426B82",
"/.	c #4384B8",
"(.	c #5697C5",
"_.	c #79AAC9",
":.	c #ADCAD9",
"<.	c #E2EDF2",
"[.	c #CCE1EB",
"}.	c #CBE1EB",
"|.	c #C6DCDD",
"1.	c #B1CAB2",
"2.	c #ACC59B",
"3.	c #C3D8AD",
"4.	c #CDE3B8",
"5.	c #C7E1AF",
"6.	c #BBDB9E",
"7.	c #B5D795",
"8.	c #B0D58D",
"9.	c #B3D592",
"0.	c #9CB779",
"a.	c #3A6B98",
"b.	c #468ABF",
"c.	c #64A0C9",
"d.	c #87B3CF",
"e.	c #A7C6D7",
"f.	c #B9D2DF",
"g.	c #C8DDE8",
"h.	c #BDD4D0",
"i.	c #8FAD7D",
"j.	c #A9C28E",
"k.	c #CCDFB6",
"l.	c #D3E7BF",
"m.	c #CEE5B8",
"n.	c #C8E2AF",
"o.	c #C0DDA5",
"p.	c #B4D793",
"q.	c #ABCC8A",
"r.	c #6F88A0",
"s.	c #3D72A2",
"t.	c #5796C6",
"u.	c #6DA5CC",
"v.	c #77A9CA",
"w.	c #A0C2D5",
"x.	c #B0CCDB",
"y.	c #B9D2E0",
"z.	c #BDD5DF",
"A.	c #B8D0CF",
"B.	c #A6C2B8",
"C.	c #9AB9A1",
"D.	c #A2BD99",
"E.	c #A9C498",
"F.	c #B6CF9D",
"G.	c #BDD7A0",
"H.	c #BDDA9E",
"I.	c #B7D895",
"J.	c #B5D894",
"K.	c #A1BF7D",
"L.	c #65819D",
"M.	c #4D7FAD",
"N.	c #5997C8",
"O.	c #5698C6",
"P.	c #72A7CA",
"Q.	c #9EC1D7",
"R.	c #ABC9D9",
"S.	c #A3C3D5",
"T.	c #A4C5D6",
"U.	c #AECBDB",
"V.	c #B0CCDC",
"W.	c #ACC9D9",
"X.	c #A4C3D2",
"Y.	c #91B6C0",
"Z.	c #8EB3B0",
"`.	c #86AD9B",
" +	c #85AD8B",
".+	c #97B885",
"++	c #A5C588",
"@+	c #9BB679",
"#+	c #64846E",
"$+	c #608B8E",
"%+	c #4888A9",
"&+	c #4D91BD",
"*+	c #7CAED0",
"=+	c #A4C6DD",
"-+	c #ABC9DD",
";+	c #ADCADB",
">+	c #9EC0D3",
",+	c #98BCD0",
"'+	c #97BBD0",
")+	c #9FC1D5",
"!+	c #A0C2D8",
"~+	c #92BBD6",
"{+	c #8BB7D7",
"]+	c #7FB1D5",
"^+	c #669FC6",
"/+	c #608FA9",
"(+	c #4D7577",
"_+	c #7B9186",
":+	c #9BB975",
"<+	c #AACA8C",
"[+	c #96B986",
"}+	c #82AB89",
"|+	c #8CB19A",
"1+	c #90B4AE",
"2+	c #98BBC2",
"3+	c #9DC0D1",
"4+	c #A2C4D8",
"5+	c #A3C4DA",
"6+	c #A0C2D9",
"7+	c #98BED6",
"8+	c #93BBD5",
"9+	c #88B5D4",
"0+	c #81B2D4",
"a+	c #A5C8E1",
"b+	c #669DC9",
"c+	c #5E8DB8",
"d+	c #466B8F",
"e+	c #AACB88",
"f+	c #B2D790",
"g+	c #B7D996",
"h+	c #BEDB9F",
"i+	c #BED9A2",
"j+	c #B8D19F",
"k+	c #ACC79B",
"l+	c #9EBC99",
"m+	c #95B6A0",
"n+	c #90B4AF",
"o+	c #8DB5BF",
"p+	c #89B5D0",
"q+	c #83B3D3",
"r+	c #89B7D6",
"s+	c #6FA7D0",
"t+	c #84B3D6",
"u+	c #5F94C1",
"v+	c #5884AD",
"w+	c #486A89",
"x+	c #B3D492",
"y+	c #B4D794",
"z+	c #C1DEA5",
"A+	c #CFE6B9",
"B+	c #D5E8C1",
"C+	c #C8DCB2",
"D+	c #95B37F",
"E+	c #739E85",
"F+	c #83B2CC",
"G+	c #88B6D7",
"H+	c #79AED3",
"I+	c #5194C6",
"J+	c #649BC7",
"K+	c #6492BC",
"L+	c #557DA2",
"M+	c #55718B",
"N+	c #9FBD7C",
"O+	c #B0D58E",
"P+	c #B6D895",
"Q+	c #BCDB9E",
"R+	c #C2DEA7",
"S+	c #C8E2B0",
"T+	c #CAE0B4",
"U+	c #B6CDA2",
"V+	c #90B398",
"W+	c #7CAAB4",
"X+	c #7DAFD1",
"Y+	c #7AAED4",
"Z+	c #75ABD2",
"`+	c #649FCC",
" @	c #5491C1",
".@	c #6B9AC2",
"+@	c #698FB4",
"@@	c #547692",
"#@	c #819691",
"$@	c #A9C987",
"%@	c #B1D58F",
"&@	c #B7D897",
"*@	c #BDDCA0",
"=@	c #C3DFA8",
"-@	c #CDE4B5",
";@	c #9DBA8E",
">@	c #72A1A6",
",@	c #81B1D3",
"'@	c #69A4D0",
")@	c #68A2CE",
"!@	c #6FA6CF",
"~@	c #69A0CA",
"{@	c #5A93C1",
"]@	c #598DBA",
"^@	c #6F96BA",
"/@	c #6787A6",
"(@	c #577865",
"_@	c #9FB87E",
":@	c #B2D391",
"<@	c #B0D58C",
"[@	c #B5D895",
"}@	c #BEDCA1",
"|@	c #C0D6AC",
"1@	c #699893",
"2@	c #689BC4",
"3@	c #6B9FC9",
"4@	c #6EA0C9",
"5@	c #6E9EC7",
"6@	c #6294BF",
"7@	c #5B8BB6",
"8@	c #5D87AE",
"9@	c #7391AF",
"0@	c #5F7F75",
"a@	c #7B9A5A",
"b@	c #9BBA77",
"c@	c #B7D997",
"d@	c #B1D390",
"e@	c #9CBB78",
"f@	c #B6D299",
"g@	c #C5E0AB",
"h@	c #D3E8BF",
"i@	c #B6CDA6",
"j@	c #6C9593",
"k@	c #98B6CE",
"l@	c #8FAFCE",
"m@	c #6691B8",
"n@	c #6089B0",
"o@	c #5F84A9",
"p@	c #62829E",
"q@	c #789485",
"r@	c #678B41",
"s@	c #A1BF7E",
"t@	c #9FBC7D",
"u@	c #556C36",
"v@	c #6E884E",
"w@	c #C6E1AD",
"x@	c #CCE3B5",
"y@	c #D5E9C2",
"z@	c #B7CEA3",
"A@	c #86A48C",
"B@	c #73939C",
"C@	c #698AA0",
"D@	c #618196",
"E@	c #688687",
"F@	c #84A07F",
"G@	c #96B572",
"H@	c #435925",
"I@	c #AABF8D",
"J@	c #8AA36A",
"K@	c #CBE3B3",
"L@	c #CDE5B6",
"M@	c #D2E7BD",
"N@	c #D1E7BC",
"O@	c #CDE5B4",
"P@	c #BFD9A4",
"Q@	c #A0BD88",
"R@	c #90AE7D",
"S@	c #92B17B",
"T@	c #A4C483",
"U@	c #ADCB89",
"V@	c #566F36",
"W@	c #8DA66E",
"X@	c #C9E0B1",
"Y@	c #D3E8BD",
"Z@	c #CEE5B6",
"`@	c #C6E1AA",
" #	c #C0DE9F",
".#	c #BBDC97",
"+#	c #B7DA91",
"@#	c #B3D78B",
"##	c #9ABC71",
"$#	c #486029",
"%#	c #AAC18B",
"&#	c #B6CD98",
"*#	c #C6DEAB",
"=#	c #C6E0A7",
"-#	c #BFDD9E",
";#	c #B6D690",
">#	c #A7C77E",
",#	c #9BB973",
"'#	c #5B713C",
")#	c #5B733B",
"                                                                ",
"                                                                ",
"                              . + @                             ",
"                        # $ % & * = - ; >                       ",
"                      , ' ) ! ~ { ] ^ / ( _                     ",
"                    : < [ } | 1 2 3 4 5 6 7 #         8         ",
"                  9 0 a b c d e f g h i j k l m   n o p         ",
"                  q r s t u v w x y z A B C D E F G H I         ",
"                J K L M N O P Q R S T U B V W X Y Z `           ",
"               ...+.@.#.$.%.&.*.=.-.;.>.,.'.).!.~.{.].          ",
"              ^./.(._.:.<.[.}.|.1.2.3.4.5.D 6.7.8.9.0.          ",
"              a.b.c.d.e.f.g.h.i.j.k.l.m.n.o.X p.~.q.            ",
"            r.s.t.u.v.w.x.y.z.A.B.C.D.E.F.G.H.I.J.K.            ",
"            L.M.N.O.P.Q.R.S.T.U.V.W.X.Y.Z.`. +.+++@+            ",
"            #+$+%+&+*+=+-+;+>+,+'+)+!+~+{+]+^+/+(+_+            ",
"            :+<+[+}+|+1+2+3+4+5+6+7+8+9+0+a+b+c+d+              ",
"            e+f+g+h+i+j+k+l+m+n+o+p+q+r+s+t+u+v+w+              ",
"          _ x+8.y+X z+n.A+B+C+D+E+F+G+H+I+J+K+L+M+              ",
"          N+{.O+P+Q+R+S+T+U+V+W+X+Y+Z+`+ @.@+@@@#@              ",
"          $@Z %@&@*@=@-@;@>@,@'@)@!@~@{@]@^@/@(@                ",
"        _@:@<@[@X }@C ,.|@1@2@3@4@5@6@7@8@9@0@a@                ",
"        b@c@d@e@f@z+g@,.h@i@j@k@l@m@n@o@p@q@r@                  ",
"        s@t@u@  v@C w@x@A y@z@A@B@C@D@E@F@G@H@                  ",
"        I@        J@K@L@M@N@O@P@Q@R@S@T@U@V@                    ",
"                    W@X@Y@Z@`@ #.#+#@###$#                      ",
"                      %#&#*#=#-#;#>#,#                          ",
"                            '#)#                                ",
"                                                                ",
"                                                                ",
"                                                                ",
"                                                                ",
"                                                                "};
