/* XPM */
static char * flag_16_xpm[] = {
"16 16 91 1",
" 	c None",
".	c #A55C19",
"+	c #7194CD",
"@	c #7A9CD2",
"#	c #84A3D7",
"$	c #7699D2",
"%	c #6C8FCB",
"&	c #7387B2",
"*	c #7195D1",
"=	c #A0C2EF",
"-	c #BFE2F7",
";	c #A2C8F4",
">	c #88AFED",
",	c #99C2FA",
"'	c #7094D0",
")	c #6A8DCA",
"!	c #6B8ECA",
"~	c #81767D",
"{	c #6A88BF",
"]	c #799ED8",
"^	c #8EB7F2",
"/	c #ADD3F6",
"(	c #B1D6F7",
"_	c #8CB3EE",
":	c #8FB8F4",
"<	c #91B9F2",
"[	c #698DCC",
"}	c #7AA1E0",
"|	c #6C90CC",
"1	c #817A84",
"2	c #6585C1",
"3	c #6E8ABE",
"4	c #87AFEA",
"5	c #95BDF3",
"6	c #AED4F6",
"7	c #9FC4F2",
"8	c #82A9E9",
"9	c #99C3FB",
"0	c #8CB5EF",
"a	c #6084C6",
"b	c #7FA7E4",
"c	c #7383AA",
"d	c #6486C5",
"e	c #7093CE",
"f	c #A1C7F4",
"g	c #AFD5F7",
"h	c #8DB4EE",
"i	c #8CB5F1",
"j	c #6E93D3",
"k	c #7196D2",
"l	c #6687C4",
"m	c #6A8CC7",
"n	c #83A6DB",
"o	c #90B9F2",
"p	c #A7CCF6",
"q	c #9BC1F2",
"r	c #81A9E9",
"s	c #98C2FA",
"t	c #91BAF4",
"u	c #6F95D5",
"v	c #85ADEA",
"w	c #6B8AC2",
"x	c #6386C5",
"y	c #6D8ABF",
"z	c #8DB5EF",
"A	c #98BEEF",
"B	c #80A6E2",
"C	c #85AEEA",
"D	c #9AC3FC",
"E	c #80A8E5",
"F	c #7FA7E5",
"G	c #7AA0DD",
"H	c #6A87BC",
"I	c #6C8AC0",
"J	c #7F87A4",
"K	c #7499D5",
"L	c #6C90CB",
"M	c #6E91CD",
"N	c #6D91CE",
"O	c #88B0EB",
"P	c #8BB4EF",
"Q	c #7CA4E2",
"R	c #7BA2DF",
"S	c #6A8DC9",
"T	c #6C8BC2",
"U	c #6B8CC6",
"V	c #708ABC",
"W	c #7482A7",
"X	c #986741",
"Y	c #9D5818",
"Z	c #A45C19",
"..  +@#$%       ",
"..&*=-;>,')!%   ",
" ~{]^/(_:<[}|   ",
" 1234567890ab|  ",
"  cde^fghi9j}k  ",
"   lmnopqrstuv% ",
"   wxyz5ABCDEFG|",
"    HIJKLMNOPQRS",
"    TxUV  !%%%! ",
"     WX.        ",
"      ..        ",
"       ..       ",
"       ..       ",
"        ..      ",
"         ..     ",
"         YZ     "};
