/* XPM */
static char * SimCube_32_xpm[] = {
"32 32 596 2",
"  	c None",
". 	c #FFFFFF",
"+ 	c #FEFEFE",
"@ 	c #FBFCFE",
"# 	c #D4DAEB",
"$ 	c #A4BAC0",
"% 	c #A8BBC5",
"& 	c #D7DDED",
"* 	c #FBFBFD",
"= 	c #E2E8EE",
"- 	c #839BB7",
"; 	c #3F716C",
"> 	c #55A127",
", 	c #64BA0F",
"' 	c #63B711",
") 	c #519932",
"! 	c #477183",
"~ 	c #92A6C1",
"{ 	c #F1F4F8",
"] 	c #FDFDFE",
"^ 	c #FFFEFE",
"/ 	c #C1CCDF",
"( 	c #6887A4",
"_ 	c #599556",
": 	c #5DAB26",
"< 	c #5FB31A",
"[ 	c #5BAB24",
"} 	c #468848",
"| 	c #60B023",
"1 	c #5B955D",
"2 	c #7DB464",
"3 	c #91C962",
"4 	c #8CC462",
"5 	c #83B86B",
"6 	c #61898C",
"7 	c #8A9DC4",
"8 	c #F2F5F8",
"9 	c #E9ECF6",
"0 	c #ACB8DA",
"a 	c #7D9F9E",
"b 	c #519053",
"c 	c #468947",
"d 	c #529D32",
"e 	c #6AC311",
"f 	c #6BC50F",
"g 	c #69C50D",
"h 	c #5AA338",
"i 	c #6FAD54",
"j 	c #7AAE6F",
"k 	c #7DB469",
"l 	c #78AE6A",
"m 	c #7FB668",
"n 	c #9DD95E",
"o 	c #9CD85F",
"p 	c #A1DD5E",
"q 	c #73AA65",
"r 	c #407E52",
"s 	c #6A977F",
"t 	c #9DB0C7",
"u 	c #E0E4F3",
"v 	c #6280A5",
"w 	c #4E8D54",
"x 	c #66BF16",
"y 	c #6DCA0E",
"z 	c #6CC713",
"A 	c #6DC812",
"B 	c #70CE0B",
"C 	c #498B4B",
"D 	c #4F8E54",
"E 	c #5D8E77",
"F 	c #9DDA62",
"G 	c #9DDB60",
"H 	c #9BD861",
"I 	c #9BD860",
"J 	c #9FDD5F",
"K 	c #93CE64",
"L 	c #5D8F74",
"M 	c #6AA264",
"N 	c #478458",
"O 	c #64BC18",
"P 	c #6CC611",
"Q 	c #6CC610",
"R 	c #66C012",
"S 	c #488E3E",
"T 	c #5B8685",
"U 	c #B2C3CE",
"V 	c #E0E5ED",
"W 	c #FDFEFD",
"X 	c #426CA0",
"Y 	c #416F86",
"Z 	c #66BC21",
"` 	c #6FCB12",
" .	c #6FCC12",
"..	c #62B824",
"+.	c #568F67",
"@.	c #94D062",
"#.	c #9BD961",
"$.	c #95D263",
"%.	c #619473",
"&.	c #87C167",
"*.	c #9EDC60",
"=.	c #98D463",
"-.	c #569261",
";.	c #64B823",
">.	c #6CC715",
",.	c #68C219",
"'.	c #4F9542",
").	c #4F9741",
"!.	c #6DC813",
"~.	c #6CC912",
"{.	c #519647",
"].	c #6B847E",
"^.	c #6683AA",
"/.	c #4C76AA",
"(.	c #5D8BBE",
"_.	c #527CB6",
":.	c #40727C",
"<.	c #5B936A",
"[.	c #96D266",
"}.	c #A2E161",
"|.	c #9FDE61",
"1.	c #9FDD62",
"2.	c #A2E260",
"3.	c #95D167",
"4.	c #5C8E75",
"5.	c #4B8366",
"6.	c #64BA25",
"7.	c #71D110",
"8.	c #70CD14",
"9.	c #6FCD14",
"0.	c #70CF12",
"a.	c #6ECC14",
"b.	c #60B526",
"c.	c #397464",
"d.	c #96A770",
"e.	c #E1D672",
"f.	c #FBEA68",
"g.	c #7993BD",
"h.	c #577EAE",
"i.	c #5079AC",
"j.	c #809FCA",
"k.	c #6287A1",
"l.	c #7AB072",
"m.	c #9CDB62",
"n.	c #8EC96A",
"o.	c #75B55B",
"p.	c #58A33F",
"q.	c #6FD011",
"r.	c #74D50E",
"s.	c #57A538",
"t.	c #59A836",
"u.	c #60B32C",
"v.	c #70CF13",
"w.	c #71D111",
"x.	c #65BE22",
"y.	c #609E4D",
"z.	c #8B997F",
"A.	c #C6C372",
"B.	c #FFEF6B",
"C.	c #FAEA6B",
"D.	c #DFD66F",
"E.	c #9AAECD",
"F.	c #5E82B0",
"G.	c #4D77AB",
"H.	c #96B5D6",
"I.	c #92B1D3",
"J.	c #8CACCF",
"K.	c #5679A2",
"L.	c #4E836E",
"M.	c #66BC23",
"N.	c #71D012",
"O.	c #6FCD15",
"P.	c #70CE15",
"Q.	c #488B4F",
"R.	c #4B8362",
"S.	c #979F7E",
"T.	c #FBEB6B",
"U.	c #D1CB70",
"V.	c #FCEB6B",
"W.	c #FAEA6C",
"X.	c #CCC974",
"Y.	c #B4C3DA",
"Z.	c #6889B3",
"`.	c #5E8CBF",
" +	c #4A75A9",
".+	c #97B5D6",
"++	c #3D69A2",
"@+	c #4C779B",
"#+	c #5B985E",
"$+	c #6FCE10",
"%+	c #70CE14",
"&+	c #65BD22",
"*+	c #4D7D72",
"=+	c #C0C071",
"-+	c #B6B775",
";+	c #FDEC6B",
">+	c #C0BF73",
",+	c #FBEA6B",
"'+	c #F9E96C",
")+	c #B4B56D",
"!+	c #E9EEF7",
"~+	c #6886B0",
"{+	c #4E7BAF",
"]+	c #4471A7",
"^+	c #416DA5",
"/+	c #5783BB",
"(+	c #537CA8",
"_+	c #589461",
":+	c #57A638",
"<+	c #6D9565",
"[+	c #B9B77A",
"}+	c #F9E96B",
"|+	c #FFF16A",
"1+	c #B7B974",
"2+	c #FFEE6B",
"3+	c #B0B375",
"4+	c #FFF26A",
"5+	c #7C8D7D",
"6+	c #FCFDFD",
"7+	c #7E99BC",
"8+	c #5B89BB",
"9+	c #4470A6",
"0+	c #3C689F",
"a+	c #98B5D6",
"b+	c #90AFD1",
"c+	c #96B4D5",
"d+	c #416EA4",
"e+	c #5C8ABD",
"f+	c #5A88BD",
"g+	c #758683",
"h+	c #B6B874",
"i+	c #FFF06B",
"j+	c #A3AA76",
"k+	c #DDD56F",
"l+	c #9DA577",
"m+	c #9BA686",
"n+	c #88A0C0",
"o+	c #5B88BA",
"p+	c #5A87B9",
"q+	c #4975A9",
"r+	c #5B7EAB",
"s+	c #93B0D2",
"t+	c #91AFD1",
"u+	c #96B3D4",
"v+	c #436FA4",
"w+	c #5C89BC",
"x+	c #5A88BB",
"y+	c #94A07C",
"z+	c #FEED6B",
"A+	c #F3E46C",
"B+	c #6B817D",
"C+	c #F9E96A",
"D+	c #FAEA6A",
"E+	c #9BA790",
"F+	c #92A7C4",
"G+	c #5885B7",
"H+	c #5A86B8",
"I+	c #4C78AD",
"J+	c #85A3C7",
"K+	c #7E9EC3",
"L+	c #6284B0",
"M+	c #95B3D3",
"N+	c #446FA4",
"O+	c #5B88BB",
"P+	c #5A86B9",
"Q+	c #B9BA72",
"R+	c #EFE26C",
"S+	c #ADB174",
"T+	c #E3D96C",
"U+	c #A7AD74",
"V+	c #F5E569",
"W+	c #FBE967",
"X+	c #93A4A4",
"Y+	c #96AAC5",
"Z+	c #5683B4",
"`+	c #5885B6",
" @	c #4D79AC",
".@	c #809FC3",
"+@	c #8FADCE",
"@@	c #95B1D2",
"#@	c #7293BB",
"$@	c #3D679D",
"%@	c #5B87B9",
"&@	c #5A87B8",
"*@	c #5986B8",
"=@	c #5986B7",
"-@	c #949F7C",
";@	c #FAE96A",
">@	c #F0E26B",
",@	c #8A9778",
"'@	c #BDBC71",
")@	c #FAE968",
"!@	c #F7E668",
"~@	c #A7AC73",
"{@	c #F3E368",
"]@	c #FAE867",
"^@	c #98A9B0",
"/@	c #ACBBD0",
"(@	c #527EB0",
"_@	c #5783B4",
":@	c #4C78AC",
"<@	c #809FC2",
"[@	c #8FACCC",
"}@	c #8FACCD",
"|@	c #94B1D1",
"1@	c #446FA3",
"2@	c #3F6A9E",
"3@	c #537FB1",
"4@	c #5985B7",
"5@	c #5884B6",
"6@	c #96A27A",
"7@	c #FCEA69",
"8@	c #F2E46A",
"9@	c #D3CD6D",
"0@	c #BBBB70",
"a@	c #B8B971",
"b@	c #F2E268",
"c@	c #D0C96D",
"d@	c #CDC76D",
"e@	c #F0E067",
"f@	c #EFDF65",
"g@	c #99ABC4",
"h@	c #BDC8DA",
"i@	c #39649A",
"j@	c #557FB0",
"k@	c #527EAF",
"l@	c #7493BA",
"m@	c #8EABCC",
"n@	c #93AECE",
"o@	c #4A72A4",
"p@	c #5884B5",
"q@	c #5682B3",
"r@	c #416BA1",
"s@	c #5481B3",
"t@	c #B5B774",
"u@	c #BEBD70",
"v@	c #B8B871",
"w@	c #EBDD6A",
"x@	c #E9DC69",
"y@	c #BDBB6F",
"z@	c #F1E167",
"A@	c #BAB96F",
"B@	c #E2D568",
"C@	c #F1E065",
"D@	c #9AA170",
"E@	c #A3B5D0",
"F@	c #CAD4E1",
"G@	c #436EA2",
"H@	c #4B76A8",
"I@	c #446FA2",
"J@	c #7191B8",
"K@	c #8EABCB",
"L@	c #8EABCA",
"M@	c #92AECE",
"N@	c #4B72A3",
"O@	c #5782B2",
"P@	c #5782B3",
"Q@	c #5884B4",
"R@	c #4974A8",
"S@	c #8C9978",
"T@	c #E3D76A",
"U@	c #F4E367",
"V@	c #C6C26D",
"W@	c #D3CB6A",
"X@	c #EEDE66",
"Y@	c #EDDE66",
"Z@	c #ACAF70",
"`@	c #B3B46E",
" #	c #BEBC6C",
".#	c #D3C964",
"+#	c #B4C3DD",
"@#	c #D2DAE5",
"##	c #3D699E",
"$#	c #557FAE",
"%#	c #5883B1",
"&#	c #4B6F9F",
"*#	c #7C9ABF",
"=#	c #8DA9C9",
"-#	c #91ADCC",
";#	c #4D74A4",
">#	c #5681B1",
",#	c #537EB0",
"'#	c #AEB273",
")#	c #F2E166",
"!#	c #BFBC6D",
"~#	c #D5CC69",
"{#	c #EDDE65",
"]#	c #D1C969",
"^#	c #728478",
"/#	c #F3E162",
"(#	c #E8D963",
"_#	c #A3A771",
":#	c #CFD9E9",
"<#	c #F8F8F8",
"[#	c #DCE0E5",
"}#	c #356196",
"|#	c #537FAC",
"1#	c #6888B1",
"2#	c #8CA8C7",
"3#	c #5A7DA8",
"4#	c #8CA8C8",
"5#	c #5277A6",
"6#	c #5580AF",
"7#	c #527DAE",
"8#	c #ACAF72",
"9#	c #EBDC66",
"0#	c #EADB64",
"a#	c #9FA571",
"b#	c #EEDE63",
"c#	c #8B9674",
"d#	c #E3D564",
"e#	c #A2A670",
"f#	c #EDDC61",
"g#	c #E6D762",
"h#	c #889371",
"i#	c #DEE2EC",
"j#	c #F3F3F3",
"k#	c #E4E4E4",
"l#	c #D8D8D9",
"m#	c #3A6093",
"n#	c #517BAA",
"o#	c #557EAD",
"p#	c #6283AE",
"q#	c #8EA9C8",
"r#	c #829FC1",
"s#	c #406699",
"t#	c #5680AF",
"u#	c #517CAD",
"v#	c #BBBA6E",
"w#	c #ECDC64",
"x#	c #E9DA64",
"y#	c #EDDD63",
"z#	c #708379",
"A#	c #C3BE69",
"B#	c #E7D862",
"C#	c #E5D663",
"D#	c #A1A66F",
"E#	c #EBDA60",
"F#	c #E7D75F",
"G#	c #4F6B7F",
"H#	c #E8E9EA",
"I#	c #F7F7F7",
"J#	c #FCFCFC",
"K#	c #E8E8E8",
"L#	c #D1D1D1",
"M#	c #CFCFCF",
"N#	c #D3D2D1",
"O#	c #778CA9",
"P#	c #446E9F",
"Q#	c #6284AD",
"R#	c #8AA6C6",
"S#	c #8BA6C6",
"T#	c #577BA8",
"U#	c #456DA0",
"V#	c #4670A1",
"W#	c #537EAC",
"X#	c #507BAA",
"Y#	c #BFBC6C",
"Z#	c #EEDD62",
"`#	c #C8C269",
" $	c #ACAE6D",
".$	c #8B9672",
"+$	c #ECDB61",
"@$	c #E4D562",
"#$	c #E4D561",
"$$	c #B0B06A",
"%$	c #BDB969",
"&$	c #798CA0",
"*$	c #CACCD1",
"=$	c #E1E1E1",
"-$	c #F5F5F5",
";$	c #F9F9F9",
">$	c #E5E5E5",
",$	c #D0D0D0",
"'$	c #CACACA",
")$	c #CDCDCC",
"!$	c #ABB3BD",
"~$	c #4E709D",
"{$	c #86A2C2",
"]$	c #8BA7C5",
"^$	c #8EA9C7",
"/$	c #557AA6",
"($	c #527BA9",
"_$	c #557FAC",
":$	c #3F699C",
"<$	c #4E77A8",
"[$	c #B6B56D",
"}$	c #A3A76F",
"|$	c #C9C266",
"1$	c #E5D561",
"2$	c #919A71",
"3$	c #E8D75F",
"4$	c #E1D360",
"5$	c #E0D261",
"6$	c #697E7F",
"7$	c #8B9BB5",
"8$	c #CECECD",
"9$	c #CECECF",
"0$	c #D8D8D8",
"a$	c #F4F4F4",
"b$	c #F6F6F6",
"c$	c #D7D7D7",
"d$	c #C8C8C8",
"e$	c #C7C7C7",
"f$	c #C3C4C5",
"g$	c #7389A7",
"h$	c #7895B9",
"i$	c #8DA9C6",
"j$	c #597DA8",
"k$	c #517AA8",
"l$	c #4E77A6",
"m$	c #A7A96F",
"n$	c #E2D361",
"o$	c #E1D361",
"p$	c #8F9970",
"q$	c #E6D65E",
"r$	c #D1C762",
"s$	c #5C7592",
"t$	c #BCBFC3",
"u$	c #C8C8C7",
"v$	c #D2D2D2",
"w$	c #EDEDED",
"x$	c #D6D6D6",
"y$	c #CECECE",
"z$	c #C5C5C5",
"A$	c #C9C8C7",
"B$	c #9CA6B5",
"C$	c #5E7EA7",
"D$	c #5A7EA9",
"E$	c #517AA7",
"F$	c #527BA7",
"G$	c #4F78A6",
"H$	c #BAB769",
"I$	c #E1D260",
"J$	c #DFD15F",
"K$	c #DED060",
"L$	c #929A6E",
"M$	c #929A75",
"N$	c #8C9AAF",
"O$	c #C9C9C9",
"P$	c #E9E9E9",
"Q$	c #FBFBFB",
"R$	c #EEEEEE",
"S$	c #E2E2E2",
"T$	c #C6C6C6",
"U$	c #C6C6C5",
"V$	c #BFC0C3",
"W$	c #54729A",
"X$	c #4771A1",
"Y$	c #527BA8",
"Z$	c #4E77A4",
"`$	c #BDB967",
" %	c #DECF5F",
".%	c #DED05E",
"+%	c #CBC264",
"@%	c #5C7690",
"#%	c #B0B6C0",
"$%	c #C9C9C8",
"%%	c #D3D3D3",
"&%	c #EBEBEB",
"*%	c #F0F0F0",
"=%	c #ECECEC",
"-%	c #D9D9D9",
";%	c #97A3B3",
">%	c #41689A",
",%	c #4F77A5",
"'%	c #BDB867",
")%	c #ACAC6F",
"!%	c #6E84A5",
"~%	c #E6E6E6",
"{%	c #EFEFEF",
"]%	c #EAEAEA",
"^%	c #E0E0E0",
"/%	c #CDCDCD",
"(%	c #C9C8C8",
"_%	c #BABDC2",
":%	c #56749D",
"<%	c #4972A2",
"[%	c #BBB767",
"}%	c #6C8089",
"|%	c #AFB5C0",
"1%	c #CBCBCA",
"2%	c #CBCBCB",
"3%	c #DDDDDD",
"4%	c #FDFDFD",
"5%	c #FAFAFA",
"6%	c #E3E3E3",
"7%	c #DBDBDB",
"8%	c #CAC9C8",
"9%	c #7E90A9",
"0%	c #C5C6C8",
"a%	c #F1F1F1",
"b%	c #CCCCCC",
"c%	c #DEDEDE",
"d%	c #E7E7E7",
"e%	c #F2F2F2",
". . . . . . . . . . + . . @ # $ % & . . . + . . . . . . . . . . ",
". . . . . . + . . + * = - ; > , ' ) ! ~ { ] . . ^ . . . . . . . ",
". . . . + . . . / ( _ : < [ } | 1 2 3 4 5 6 7 8 . . + . . . . . ",
". . + . 9 0 a b c d e f g h i j k l m n o p q r s t u . . . + . ",
". . . v w x y z A B C D E F G H I J K L M N O P Q R S T U V + . ",
". . W X Y Z `  ...+.@.#.$.%.&.*.G =.-.;.>.,.'.).!.!.~.{.].^.+ . ",
". . . /.(._.:.<.[.}.|.1.|.2.3.4.5.6.7.8.9.9.0.a.b.c.d.e.f.g.. . ",
". . . h.(.(.i.j.k.l.m.}.n.o.p.q.r.s.t.u.v.w.x.y.z.A.B.C.D.E.. . ",
". . . F.(.(.G.H.I.J.K.L.M.N.O.P.P.O.v.N.Q.R.S.C.T.U.V.W.X.Y.. . ",
". . . Z.`.(. +.+I.I..+++@+#+$+%+O.w.&+*+=+-+;+C.;+>+,+'+)+!+. . ",
". . . ~+{+`.]+.+I.I..+^+`./+(+_+:+<+[+}+|+1+C.W.2+3+C.4+5+6+. . ",
". . . 7+8+9+0+a+b+b+c+d+e+e+(.f+g+4+C.W.B.h+W.W.i+j+k+l+m+. . . ",
". . . n+o+p+q+r+s+t+u+v+w+w+w+x+y+z+W.W.B.h+'+C.A+B+C+D+E+. . . ",
". . . F+G+H+I+J+K+L+M+N+o+o+O+P+y+z+}+W.B.Q+R+S+T+U+V+W+X+. . . ",
". . . Y+Z+`+ @.@+@@@#@$@%@&@*@=@-@z+}+;@>@,@'@)@!@~@{@]@^@. . . ",
". . . /@(@_@:@<@[@}@|@1@2@3@4@5@6@7@8@9@0@a@{@b@c@d@e@f@g@. . . ",
". . + h@i@j@k@l@m@m@n@o@p@q@r@s@t@u@v@w@x@y@z@e@A@B@C@D@E@. . . ",
". . . F@G@H@I@J@K@L@M@N@O@P@Q@R@S@T@U@e@V@W@X@Y@Z@`@ #.#+#. . . ",
". . . @###$#%#&#*#=#-#;#>#>#>#,#'#)#X@X@!#~#{#]#^#/#(#_#:#+ . . ",
". + <#[#}#|#$#1#2#3#4#5#$#6#6#7#8#f@9#0#a#b#c#d#e#f#g#h#i#. . . ",
"+ j#k#l#m#n#o#p#2#q#r#s#t#$#$#u#v#w#x#y#z#A#B#C#D#E#F#G#H#I#+ . ",
"J#K#L#M#N#O#P#Q#R#S#q#T#U#V#W#X#Y#Z#`# $.$+$@$#$$$%$&$*$=$-$+ . ",
";$>$,$'$'$)$!$~${$]$^$/$($_$:$<$[$}$|$1$2$3$4$5$6$7$8$9$0$a$+ . ",
"b$>$c$M#d$d$e$f$g$h$i$j$k$($($l$m$n$n$o$p$q$r$s$t$u$'$v$k#a$+ + ",
"b$w$=$x$y$e$z$z$A$B$C$D$E$F$E$G$H$I$J$K$L$M$N$e$d$O$,$k#P$-$Q$. ",
";$R$P$S$c$M#e$T$z$U$V$W$X$Y$Y$Z$`$ %.%+%@%#%$%d$d$%%k#&%*%a$Q$. ",
"Q$a$=%P$>$-%v$e$e$e$e$u$;%>%Y$,%'%.%)%!%$%O$O$O$c$~%=%*%j#-$J#. ",
"J#<#a${%]%K#^%-%/%e$e$d$(%_%:%<%[%}%|%1%'$O$2%3%]%w$R$j#-$Q$. + ",
"4%5%I#j#*%=%P$6%=$7%%%O$e$e$8%9%!%0%'$O$O$v$S$&%{%*%a%b$;$Q$+ + ",
"+ Q$5%5%b$j#*%{%P$k#=$S$0$/%'$'$1%2%b%,$c%d%R$a%*%a%-$<#5%Q$4%. ",
". J#Q$;$5%<#-$j#a%{%R$]%K#>$c%7%0$-%6%&%w$R$*%j#-$I#;$;$J#Q$J#. ",
"+ . 4%J#Q$Q$5%<#I#a$e%e%a%{%w$w$w$w$R$*%a$b$I#<#;$Q$5%Q$J#J#+ . "};
