/* XPM */
static char * speaker_16_xpm[] = {
"16 16 123 2",
"  	c None",
". 	c #CACFD5",
"+ 	c #FAB237",
"@ 	c #F5B563",
"# 	c #F4D9AD",
"$ 	c #F5F9FF",
"% 	c #FDBB40",
"& 	c #FEB956",
"* 	c #FFC276",
"= 	c #FFE8A3",
"- 	c #FBE79C",
"; 	c #CF8337",
"> 	c #FEBF4E",
", 	c #FEBD60",
"' 	c #FEC46A",
") 	c #FFD479",
"! 	c #FBE090",
"~ 	c #E9A134",
"{ 	c #D06A0D",
"] 	c #FFC349",
"^ 	c #FEC759",
"/ 	c #FEBD5A",
"( 	c #FEC161",
"_ 	c #FFC65C",
": 	c #FED47F",
"< 	c #EE9C27",
"[ 	c #D6761A",
"} 	c #D16B06",
"| 	c #FEBD3E",
"1 	c #FEC144",
"2 	c #FEC552",
"3 	c #FEC55D",
"4 	c #FEBC4D",
"5 	c #FFB842",
"6 	c #FFC466",
"7 	c #F9AA2D",
"8 	c #DF791A",
"9 	c #CF6D10",
"0 	c #DC8423",
"a 	c #D3811F",
"b 	c #E89C2A",
"c 	c #FFBB46",
"d 	c #FFC54F",
"e 	c #FEC24A",
"f 	c #FEB336",
"g 	c #FEAA32",
"h 	c #FFB24C",
"i 	c #FA9A1E",
"j 	c #EB8214",
"k 	c #D37012",
"l 	c #CF6701",
"m 	c #F2AC59",
"n 	c #B55C08",
"o 	c #B86100",
"p 	c #CD7400",
"q 	c #EB8D17",
"r 	c #FAB86A",
"s 	c #FFD77B",
"t 	c #FFA824",
"u 	c #FFA132",
"v 	c #FF971A",
"w 	c #F3840F",
"x 	c #E17811",
"y 	c #D06C0C",
"z 	c #CB6E08",
"A 	c #D17700",
"B 	c #E18C00",
"C 	c #F7A900",
"D 	c #D98500",
"E 	c #F3BC84",
"F 	c #FEDFB7",
"G 	c #FF8704",
"H 	c #FB7D00",
"I 	c #E5790C",
"J 	c #D57210",
"K 	c #D16700",
"L 	c #DE820F",
"M 	c #DD8800",
"N 	c #F0A000",
"O 	c #FFB803",
"P 	c #FBB206",
"Q 	c #C06C00",
"R 	c #F3CDA2",
"S 	c #FFAF5C",
"T 	c #F77900",
"U 	c #DD7005",
"V 	c #CF6907",
"W 	c #F3A708",
"X 	c #FDB301",
"Y 	c #FFB710",
"Z 	c #FFBB1E",
"` 	c #F9B62A",
" .	c #DB931D",
"..	c #EFAA70",
"+.	c #EC7D13",
"@.	c #D36700",
"#.	c #CF6600",
"$.	c #FB9D11",
"%.	c #FEB812",
"&.	c #FEBD27",
"*.	c #FEB927",
"=.	c #FFC03C",
"-.	c #FFCC5C",
";.	c #E9A546",
">.	c #DE7312",
",.	c #CE6300",
"'.	c #F1971F",
").	c #FABF54",
"!.	c #FFD67E",
"~.	c #FFC754",
"{.	c #FFCE63",
"].	c #FAC561",
"^.	c #D4791C",
"/.	c #D36901",
"(.	c #EF9420",
"_.	c #F5B452",
":.	c #FED88F",
"<.	c #FFCE61",
"[.	c #FDCB65",
"}.	c #DB892C",
"|.	c #EE9E33",
"1.	c #F1A63A",
"2.	c #EEA138",
"                            .   ",
"                      + @ # $   ",
"                  % & * = - ;   ",
"                > , ' ) ! ~ {   ",
"            ] ^ / ( _ : < [ }   ",
"        | 1 2 3 4 5 6 7 8 9     ",
"  0 a b c d e f g h i j k l     ",
"m n o p q r s t u v w x y       ",
"  z A B C D E F G H I J K       ",
"  L M N O P Q R S T U V         ",
"    W X Y Z `  ...+.@.#.        ",
"    $.%.&.*.=.-.;.>.,.          ",
"      '.).!.~.{.].^./.          ",
"        (._.:.<.[.}.            ",
"            |.1.2.              ",
"                                "};
