/* XPM */
static char * cfg_16_xpm[] = {
"16 16 148 2",
"  	c None",
". 	c #353682",
"+ 	c #31307E",
"@ 	c #2F2E7C",
"# 	c #3C3F86",
"$ 	c #7E97B7",
"% 	c #98BBCB",
"& 	c #43488B",
"* 	c #30307E",
"= 	c #7594BB",
"- 	c #3B3F87",
"; 	c #4A5392",
"> 	c #AFDEE1",
", 	c #B4E5E6",
"' 	c #90B5CC",
") 	c #56659D",
"! 	c #54619A",
"~ 	c #7695BB",
"{ 	c #A3DBE9",
"] 	c #A4DEEC",
"^ 	c #5B70A6",
"/ 	c #343581",
"( 	c #87B4D2",
"_ 	c #9BD4E8",
": 	c #9BD3E7",
"< 	c #9CD3E7",
"[ 	c #9ED4E5",
"} 	c #A3D8E5",
"| 	c #A1D6E5",
"1 	c #94C8E0",
"2 	c #40488E",
"3 	c #363681",
"4 	c #90B5CD",
"5 	c #A2D9E6",
"6 	c #98D2E9",
"7 	c #97D4ED",
"8 	c #95D2ED",
"9 	c #95D2EC",
"0 	c #98D1E8",
"a 	c #8BBCD9",
"b 	c #373A84",
"c 	c #2A2677",
"d 	c #5E74AA",
"e 	c #A4D9E6",
"f 	c #A7DBE5",
"g 	c #92BFD6",
"h 	c #607CB1",
"i 	c #556CA8",
"j 	c #6F96C6",
"k 	c #8BC7E9",
"l 	c #8DCAEB",
"m 	c #566FAA",
"n 	c #292374",
"o 	c #373983",
"p 	c #5A70A9",
"q 	c #6B90C2",
"r 	c #82B9E1",
"s 	c #8CCAEC",
"t 	c #7BAAD3",
"u 	c #3D4389",
"v 	c #2E2B7A",
"w 	c #6385BC",
"x 	c #87C5EC",
"y 	c #79AEDA",
"z 	c #5873AF",
"A 	c #435096",
"B 	c #333480",
"C 	c #454E90",
"D 	c #AADDE5",
"E 	c #A7DFEA",
"F 	c #91CAE7",
"G 	c #83C0E8",
"H 	c #4C61A3",
"I 	c #485799",
"J 	c #89C2E6",
"K 	c #89C5E9",
"L 	c #8CCAED",
"M 	c #82BAE2",
"N 	c #404990",
"O 	c #3D438B",
"P 	c #82AFD2",
"Q 	c #98CDE3",
"R 	c #A2D8E6",
"S 	c #93CAE3",
"T 	c #465498",
"U 	c #4B5E9F",
"V 	c #84BCE3",
"W 	c #83BCE4",
"X 	c #83BCE6",
"Y 	c #78ACDB",
"Z 	c #3D458E",
"` 	c #333684",
" .	c #414E95",
"..	c #739ECB",
"+.	c #9BD7EC",
"@.	c #7193C0",
"#.	c #353884",
"$.	c #6992C7",
"%.	c #82BCE5",
"&.	c #74A3D2",
"*.	c #546CAA",
"=.	c #434E94",
"-.	c #333380",
";.	c #76A7D7",
">.	c #86BCE1",
",.	c #6E94C3",
"'.	c #546AA6",
").	c #5B75AF",
"!.	c #78A8D4",
"~.	c #86BFE6",
"{.	c #7CAFDB",
"].	c #475599",
"^.	c #343681",
"/.	c #6D95C8",
"(.	c #729DD1",
"_.	c #78A8D6",
":.	c #7DB0DA",
"<.	c #7FB2DC",
"[.	c #78A7D6",
"}.	c #729DD0",
"|.	c #607FB9",
"1.	c #455195",
"2.	c #8BC4E5",
"3.	c #7AAAD8",
"4.	c #6E97CC",
"5.	c #6A8FC6",
"6.	c #6A90C6",
"7.	c #719CD0",
"8.	c #78A9D8",
"9.	c #719FD0",
"0.	c #373A85",
"a.	c #48569A",
"b.	c #81B5DE",
"c.	c #8AC4E8",
"d.	c #5065A5",
"e.	c #333481",
"f.	c #353783",
"g.	c #5D7DB7",
"h.	c #7BB0DD",
"i.	c #719CCF",
"j.	c #3F4890",
"k.	c #32327F",
"l.	c #47559A",
"m.	c #4D5FA1",
"n.	c #302F7D",
"o.	c #546AAA",
"p.	c #48579B",
"q.	c #302E7D",
"          .         + @         ",
"      # $ % &     * = = -       ",
"      ; > , ' ) ! ~ { ] ^       ",
"      / ( _ : < [ } | 1 2       ",
"      3 4 5 6 7 8 9 0 a b       ",
"    c d e f g h i j k l m n     ",
"o p q r s t u     v w x y z A B ",
"C D E F G H         I J K L M N ",
"O P Q R S T         U V W X Y Z ",
"  `  ...+.@.v     #.$.%.&.*.=.-.",
"       .;.>.,.'.).!.~.{.].      ",
"      ^./.(._.:.<.[.}.|.+       ",
"      1.2.3.4.5.6.7.8.9.0.      ",
"      a.b.c.d.e.f.g.h.i.j.      ",
"      k.l.m.n.    -.o.p.-.      ",
"                    q.          "};
