/* XPM */
static char * dictionary_16_xpm[] = {
"16 16 178 2",
"  	c None",
". 	c #271915",
"+ 	c #251814",
"@ 	c #39241F",
"# 	c #6B4135",
"$ 	c #7A4637",
"% 	c #7C493B",
"& 	c #805549",
"* 	c #7B584F",
"= 	c #76564E",
"- 	c #7A5850",
"; 	c #7C5248",
"> 	c #834A3C",
", 	c #904C3C",
"' 	c #7D4839",
") 	c #6C3E32",
"! 	c #894A3A",
"~ 	c #8C5040",
"{ 	c #936B62",
"] 	c #927771",
"^ 	c #90746F",
"/ 	c #92756F",
"( 	c #876660",
"_ 	c #9E847E",
": 	c #966E65",
"< 	c #9A5644",
"[ 	c #8F4B39",
"} 	c #734134",
"| 	c #854536",
"1 	c #8D6258",
"2 	c #8A706B",
"3 	c #8C6F68",
"4 	c #9B807B",
"5 	c #9F847F",
"6 	c #987B75",
"7 	c #A48A85",
"8 	c #846964",
"9 	c #94665B",
"0 	c #9C533F",
"a 	c #341E18",
"b 	c #794436",
"c 	c #894838",
"d 	c #8A665E",
"e 	c #7C5C56",
"f 	c #987C76",
"g 	c #A68E88",
"h 	c #A78D88",
"i 	c #AB938F",
"j 	c #A18782",
"k 	c #91756F",
"l 	c #8A655D",
"m 	c #A35C48",
"n 	c #482921",
"o 	c #81483B",
"p 	c #8C4837",
"q 	c #92685D",
"r 	c #7D5D57",
"s 	c #89675F",
"t 	c #A28680",
"u 	c #9F837D",
"v 	c #A58B85",
"w 	c #9F837E",
"x 	c #82615C",
"y 	c #986D62",
"z 	c #A05641",
"A 	c #583228",
"B 	c #8C4E3E",
"C 	c #8B4737",
"D 	c #965444",
"E 	c #936B61",
"F 	c #866760",
"G 	c #90726C",
"H 	c #967975",
"I 	c #8D6E69",
"J 	c #A05D4C",
"K 	c #A1543F",
"L 	c #673B2E",
"M 	c #3D2720",
"N 	c #945241",
"O 	c #8C4939",
"P 	c #914937",
"Q 	c #995140",
"R 	c #9D6355",
"S 	c #9A6C61",
"T 	c #976D64",
"U 	c #9B7167",
"V 	c #A46F61",
"W 	c #A35D4A",
"X 	c #9E5340",
"Y 	c #A75A47",
"Z 	c #7D4638",
"` 	c #523329",
" .	c #955241",
"..	c #8A4838",
"+.	c #914B3A",
"@.	c #944B38",
"#.	c #994E39",
"$.	c #9E513C",
"%.	c #9F5440",
"&.	c #A35842",
"*.	c #A45741",
"=.	c #A35743",
"-.	c #A65B47",
";.	c #AE614C",
">.	c #985745",
",.	c #694035",
"'.	c #9A5645",
").	c #934D3B",
"!.	c #974F3C",
"~.	c #99503C",
"{.	c #9C513E",
"].	c #9E5442",
"^.	c #A35844",
"/.	c #A55A46",
"(.	c #A55A47",
"_.	c #A55A48",
":.	c #AA5F4C",
"<.	c #B16651",
"[.	c #B66B55",
"}.	c #311E18",
"|.	c #5B3B32",
"1.	c #794D40",
"2.	c #844E3F",
"3.	c #8B5141",
"4.	c #8E5141",
"5.	c #905040",
"6.	c #915241",
"7.	c #985443",
"8.	c #9E5745",
"9.	c #A25A47",
"0.	c #A35A47",
"a.	c #A45D49",
"b.	c #A5604D",
"c.	c #B56D59",
"d.	c #5A382E",
"e.	c #2B1A17",
"f.	c #3D322B",
"g.	c #7D776C",
"h.	c #95877A",
"i.	c #98887C",
"j.	c #918477",
"k.	c #8E7F71",
"l.	c #907C6E",
"m.	c #90786A",
"n.	c #8F786A",
"o.	c #8D776A",
"p.	c #847264",
"q.	c #887669",
"r.	c #6E5E53",
"s.	c #241311",
"t.	c #4C362E",
"u.	c #ADA596",
"v.	c #DDD1BF",
"w.	c #E3D6C3",
"x.	c #E4D7C3",
"y.	c #E6DAC8",
"z.	c #E7DCCA",
"A.	c #E5D9C6",
"B.	c #E2D7C3",
"C.	c #E1D5C2",
"D.	c #DFD3BF",
"E.	c #E2D8C5",
"F.	c #9A958C",
"G.	c #0C0807",
"H.	c #432F29",
"I.	c #705A4E",
"J.	c #81685D",
"K.	c #857165",
"L.	c #8F7A6C",
"M.	c #958072",
"N.	c #9B877A",
"O.	c #AA9486",
"P.	c #B09B8D",
"Q.	c #A99788",
"R.	c #998679",
"S.	c #8B786B",
"T.	c #625950",
"U.	c #0F0E0D",
"                                ",
"                        . +     ",
"    @ # $ % & * = - ; > , '     ",
"    ) ! ~ { ] ^ / ( _ : < [     ",
"    } | 1 2 3 4 5 6 7 8 9 0 a   ",
"    b c d e f g h i j k l m n   ",
"    o p q r s t u v w x y z A   ",
"    B C D E F G H G I : J K L   ",
"  M N O P Q R S T U V W X Y Z   ",
"  `  ...+.@.#.$.%.&.*.=.-.;.>.  ",
"  ,.'.).!.~.{.].^./.(._.:.<.[.}.",
"  |.1.2.3.4.5.6.7.8.9.0.a.b.c.d.",
"  e.f.g.h.i.j.k.l.m.n.o.p.q.r.  ",
"  s.t.u.v.w.x.y.z.A.B.C.D.E.F.  ",
"  G.H.I.J.K.L.M.N.O.P.Q.R.S.T.U.",
"                                "};
