/* XPM */
static char * nuclear_xpm[] = {
"16 16 82 1",
" 	c None",
".	c #2B2B2B",
"+	c #2A2A2A",
"@	c #5A5A5A",
"#	c #282828",
"$	c #595959",
"%	c #454545",
"&	c #4A4945",
"*	c #494845",
"=	c #252525",
"-	c #434343",
";	c #605A42",
">	c #DBBF40",
",	c #645E42",
"'	c #D6BA40",
")	c #5A5542",
"!	c #232323",
"~	c #414141",
"{	c #4D4B41",
"]	c #DDC03F",
"^	c #F2D13F",
"/	c #D1B63F",
"(	c #434341",
"_	c #CAB13F",
":	c #D5B93F",
"<	c #474641",
"[	c #202020",
"}	c #3E3E3E",
"|	c #9B8A3F",
"1	c #91813E",
"2	c #8A7C3E",
"3	c #1C1C1C",
"4	c #3C3C3C",
"5	c #DDBF3F",
"6	c #A99331",
"7	c #252219",
"8	c #22211A",
"9	c #B39C33",
"0	c #D2B73E",
"a	c #191919",
"b	c #403E39",
"c	c #2E2A15",
"d	c #DFC13B",
"e	c #DABC3A",
"f	c #2E2916",
"g	c #EECD3F",
"h	c #393939",
"i	c #161616",
"j	c #363636",
"k	c #1D1B14",
"l	c #DDBF3A",
"m	c #201E16",
"n	c #121212",
"o	c #333333",
"p	c #2D2C28",
"q	c #262314",
"r	c #252214",
"s	c #2F2D29",
"t	c #0F0F0F",
"u	c #303030",
"v	c #928138",
"w	c #978538",
"x	c #0C0C0C",
"y	c #2E2E2E",
"z	c #3E3B2F",
"A	c #E9C93E",
"B	c #EDCD3F",
"C	c #4A4530",
"D	c #090909",
"E	c #9B8936",
"F	c #AE9838",
"G	c #060606",
"H	c #292929",
"I	c #2B2A29",
"J	c #8F7E34",
"K	c #DABD3C",
"L	c #D8BB3C",
"M	c #887833",
"N	c #2B2B29",
"O	c #040404",
"P	c #272727",
"Q	c #020202",
" .............. ",
"++@@@@@@@@@@@@++",
"#$%%&%%%%%%*%%$#",
"=--;>,----;')--=",
"!~{]^/(~~(_^:<~!",
"[}|^^^1}}2^^^1}[",
"345^^^6789^^^043",
"ab^^^^cdef^^^gha",
"ijjjjjkdlmjjjjji",
"nooooopqrsooooon",
"tuuuuuv^^wuuuuut",
"xyyyyzA^^BCyyyyx",
"D....E^^^^F....D",
"GHHHIJK^^LMNHHHG",
"OOPPPPPPPPPPPPOO",
" QQQQQQQQQQQQQQ "};
