/* XPM */
static char * ruby_48_xpm[] = {
"48 48 850 2",
"  	c None",
". 	c #A20600",
"+ 	c #A40600",
"@ 	c #A30800",
"# 	c #A30900",
"$ 	c #A30A00",
"% 	c #A30B00",
"& 	c #A30E00",
"* 	c #A31100",
"= 	c #A41200",
"- 	c #A51300",
"; 	c #A61300",
"> 	c #A71200",
", 	c #A61100",
"' 	c #A41000",
") 	c #B74937",
"! 	c #CB7666",
"~ 	c #D18178",
"{ 	c #D2766D",
"] 	c #D1675E",
"^ 	c #D1685E",
"/ 	c #D1655C",
"( 	c #D1665C",
"_ 	c #D16F65",
": 	c #D16358",
"< 	c #D1564A",
"[ 	c #D1584C",
"} 	c #D1584D",
"| 	c #D1594C",
"1 	c #D1594D",
"2 	c #CD594C",
"3 	c #C95647",
"4 	c #CA4C3D",
"5 	c #CB4D3E",
"6 	c #CB5242",
"7 	c #CB5243",
"8 	c #CE5A4C",
"9 	c #CE6152",
"0 	c #C85F4C",
"a 	c #B6412B",
"b 	c #A61B09",
"c 	c #CD7C6F",
"d 	c #F0D2CB",
"e 	c #FFEEF2",
"f 	c #FFDCE3",
"g 	c #FFC2C7",
"h 	c #FFC5CA",
"i 	c #FFCCD1",
"j 	c #FFCFD4",
"k 	c #FFA9AE",
"l 	c #FF9197",
"m 	c #FF959A",
"n 	c #FF969B",
"o 	c #FF979B",
"p 	c #FF979C",
"q 	c #FD9598",
"r 	c #F49393",
"s 	c #F2918F",
"t 	c #F18B89",
"u 	c #F18684",
"v 	c #F08483",
"w 	c #F59292",
"x 	c #F59F9E",
"y 	c #E79B92",
"z 	c #C96352",
"A 	c #A71E06",
"B 	c #A61D0B",
"C 	c #D5897B",
"D 	c #EEC5BF",
"E 	c #FED8DB",
"F 	c #FFA4A6",
"G 	c #FF9395",
"H 	c #FF9597",
"I 	c #FF9C9E",
"J 	c #FFCCCD",
"K 	c #FFD8D9",
"L 	c #FF7577",
"M 	c #FF585A",
"N 	c #FF5B5D",
"O 	c #FF5E5F",
"P 	c #FF5F60",
"Q 	c #FF5F5F",
"R 	c #FF5E60",
"S 	c #FF5758",
"T 	c #FB6362",
"U 	c #F2A09C",
"V 	c #E9827C",
"W 	c #E34E47",
"X 	c #E14740",
"Y 	c #E1433C",
"Z 	c #E5544E",
"` 	c #EE8F8B",
" .	c #E48F85",
"..	c #CE6C5A",
"+.	c #A72109",
"@.	c #B13624",
"#.	c #CD6F61",
"$.	c #EEBCB6",
"%.	c #FDC7C7",
"&.	c #FFAFB2",
"*.	c #FF8C8D",
"=.	c #FE8383",
"-.	c #FF8E8E",
";.	c #FFA9A9",
">.	c #FFB8B8",
",.	c #FFA5A5",
"'.	c #FF5959",
").	c #FF4849",
"!.	c #FF5151",
"~.	c #FF5252",
"{.	c #FE5252",
"].	c #FF4C4D",
"^.	c #FE5655",
"/.	c #F78583",
"(.	c #EB7B76",
"_.	c #E05850",
":.	c #DD3D34",
"<.	c #DD332A",
"[.	c #E03D35",
"}.	c #E7605A",
"|.	c #EA807A",
"1.	c #E3867C",
"2.	c #C75543",
"3.	c #B0321A",
"4.	c #A61B07",
"5.	c #CD6C5E",
"6.	c #EFB3AC",
"7.	c #FECACC",
"8.	c #FFAAAD",
"9.	c #FE8586",
"0.	c #FE8C8C",
"a.	c #FF8C8B",
"b.	c #FF9595",
"c.	c #FFBEBE",
"d.	c #FF9B9B",
"e.	c #FF6767",
"f.	c #FF5555",
"g.	c #FF5353",
"h.	c #FF5757",
"i.	c #FF5858",
"j.	c #FE5858",
"k.	c #FF5656",
"l.	c #FE5758",
"m.	c #FD6262",
"n.	c #F17472",
"o.	c #E4756F",
"p.	c #DE483F",
"q.	c #DE3D35",
"r.	c #DF3F37",
"s.	c #DE372F",
"t.	c #E75B56",
"u.	c #EC7F7C",
"v.	c #E27C70",
"w.	c #C6523F",
"x.	c #A71F04",
"y.	c #A61E09",
"z.	c #D57768",
"A.	c #EEABA5",
"B.	c #FEC0C3",
"C.	c #FF8F8F",
"D.	c #FE8D8D",
"E.	c #FE8E8E",
"F.	c #FF9191",
"G.	c #FFB3B3",
"H.	c #FF8484",
"I.	c #FF4F4F",
"J.	c #FF5454",
"K.	c #FF5556",
"L.	c #F86F6E",
"M.	c #EC7B77",
"N.	c #E04D46",
"O.	c #DD4038",
"P.	c #DF423A",
"Q.	c #DF4139",
"R.	c #E04139",
"S.	c #E34E48",
"T.	c #EB7571",
"U.	c #E07167",
"V.	c #CC5744",
"W.	c #A82207",
"X.	c #B1311D",
"Y.	c #CD6151",
"Z.	c #EEA39D",
"`.	c #FDB3B2",
" +	c #FFA7A9",
".+	c #FE8A8B",
"++	c #FF908F",
"@+	c #FF9A9A",
"#+	c #FF9D9D",
"$+	c #FF8888",
"%+	c #FF4E4E",
"&+	c #FE5958",
"*+	c #FF5857",
"=+	c #FF5455",
"-+	c #FD6363",
";+	c #F66C6B",
">+	c #E45751",
",+	c #DE4941",
"'+	c #DE423A",
")+	c #DF433B",
"!+	c #DE3E36",
"~+	c #DF4038",
"{+	c #E65651",
"]+	c #E76863",
"^+	c #DF695E",
"/+	c #C44531",
"(+	c #B02C12",
"_+	c #A61B05",
":+	c #CD5D4D",
"<+	c #EF9990",
"[+	c #FEB2B4",
"}+	c #FFA1A3",
"|+	c #FE8988",
"1+	c #FF9998",
"2+	c #FF5E5E",
"3+	c #FE5857",
"4+	c #FE5757",
"5+	c #FD5B5A",
"6+	c #EC5F5A",
"7+	c #E15048",
"8+	c #DC4137",
"9+	c #DE433A",
"0+	c #DE433B",
"a+	c #DE4139",
"b+	c #DD3C33",
"c+	c #E4514B",
"d+	c #E76560",
"e+	c #DC5F52",
"f+	c #C3422D",
"g+	c #A71F02",
"h+	c #AD280F",
"i+	c #D76453",
"j+	c #EF8E87",
"k+	c #FEA6A6",
"l+	c #FF9494",
"m+	c #FE8A89",
"n+	c #FE8B8A",
"o+	c #FF8D8B",
"p+	c #FF7F7D",
"q+	c #FF6A68",
"r+	c #FF5453",
"s+	c #FF5050",
"t+	c #FF5554",
"u+	c #FE5554",
"v+	c #FE5756",
"w+	c #FB605D",
"x+	c #E95049",
"y+	c #D83E33",
"z+	c #DA4137",
"A+	c #DB4238",
"B+	c #DB4037",
"C+	c #DE473F",
"D+	c #E25952",
"E+	c #D85347",
"F+	c #C6422D",
"G+	c #AB2608",
"H+	c #B22C15",
"I+	c #EC9D9B",
"J+	c #FFBCC1",
"K+	c #FFB5BA",
"L+	c #FFA6A9",
"M+	c #FEA5A8",
"N+	c #FFAAAE",
"O+	c #FFABAE",
"P+	c #FF878A",
"Q+	c #FF6367",
"R+	c #FF6569",
"S+	c #FF676B",
"T+	c #FF696D",
"U+	c #FF6A6E",
"V+	c #FF6A6D",
"W+	c #FE696D",
"X+	c #FF7074",
"Y+	c #F75B5B",
"Z+	c #EE4643",
"`+	c #F04E4C",
" @	c #F0514F",
".@	c #F04B48",
"+@	c #F04847",
"@@	c #F45353",
"#@	c #F45B5C",
"$@	c #E5524D",
"%@	c #B2270A",
"&@	c #960400",
"*@	c #B42D17",
"=@	c #F3ACB2",
"-@	c #FFCBD5",
";@	c #FFBDC4",
">@	c #FFB9BF",
",@	c #FEB6BB",
"'@	c #FFB4BA",
")@	c #FFB5BB",
"!@	c #FFB8BE",
"~@	c #FFC4CA",
"{@	c #FF969C",
"]@	c #FF666C",
"^@	c #FF6D72",
"/@	c #FF7075",
"(@	c #FF7177",
"_@	c #FF7277",
":@	c #FE7177",
"<@	c #FD7379",
"[@	c #FD676C",
"}@	c #FD585D",
"|@	c #FB5258",
"1@	c #FB5257",
"2@	c #FB5458",
"3@	c #FB5256",
"4@	c #FB5459",
"5@	c #FC585D",
"6@	c #FD5C61",
"7@	c #FF5C65",
"8@	c #F04D51",
"9@	c #B4260B",
"0@	c #971700",
"a@	c #B0290F",
"b@	c #E3594E",
"c@	c #F99291",
"d@	c #FFB7BC",
"e@	c #FFA0A2",
"f@	c #FF7273",
"g@	c #FF7776",
"h@	c #FF7374",
"i@	c #FF7F7F",
"j@	c #FFB0B0",
"k@	c #FF5956",
"l@	c #FF4540",
"m@	c #FF423D",
"n@	c #FF4742",
"o@	c #FF4743",
"p@	c #FF4643",
"q@	c #FF4541",
"r@	c #FD4641",
"s@	c #F34845",
"t@	c #EB6C6B",
"u@	c #E3797A",
"v@	c #D83637",
"w@	c #D62828",
"x@	c #D72D2D",
"y@	c #D52627",
"z@	c #DA4242",
"A@	c #E36869",
"B@	c #EC8488",
"C@	c #E05857",
"D@	c #C92419",
"E@	c #A92005",
"F@	c #8C1E07",
"G@	c #B72815",
"H@	c #DC5A4E",
"I@	c #F98D8A",
"J@	c #FF8F90",
"K@	c #FE6F6E",
"L@	c #FE6968",
"M@	c #FF6565",
"N@	c #FF6F6F",
"O@	c #FF9392",
"P@	c #FF9897",
"Q@	c #FF7D7A",
"R@	c #FF3D37",
"S@	c #FF332C",
"T@	c #FF3E38",
"U@	c #FF3F38",
"V@	c #FE3E38",
"W@	c #FF3933",
"X@	c #FC3F38",
"Y@	c #EB5D5A",
"Z@	c #E06968",
"`@	c #D95C5C",
" #	c #D02C2C",
".#	c #CE1E1E",
"+#	c #CF2323",
"@#	c #D12C2C",
"##	c #DB5758",
"$#	c #E27678",
"%#	c #DC605D",
"&#	c #C4392C",
"*#	c #A71802",
"=#	c #851802",
"-#	c #770900",
";#	c #B52B19",
">#	c #E2594D",
",#	c #F99C9C",
"'#	c #FFA2A4",
")#	c #FF8B8C",
"!#	c #FF7777",
"~#	c #FE6F6F",
"{#	c #FF7171",
"]#	c #FF7979",
"^#	c #FF9C9D",
"/#	c #FFA1A2",
"(#	c #FF4E49",
"_#	c #FF3A34",
":#	c #FF433E",
"<#	c #FF443F",
"[#	c #FF403A",
"}#	c #FA4C47",
"|#	c #E57879",
"1#	c #DA5D5E",
"2#	c #D53131",
"3#	c #D42929",
"4#	c #D32626",
"5#	c #D63030",
"6#	c #DC4D4E",
"7#	c #E46B6D",
"8#	c #E16C6B",
"9#	c #C82D20",
"0#	c #A91903",
"a#	c #801800",
"b#	c #781000",
"c#	c #AC2914",
"d#	c #E25A4F",
"e#	c #F98E8B",
"f#	c #FFABAF",
"g#	c #FE7877",
"h#	c #FF7070",
"i#	c #FF8A8B",
"j#	c #FF9798",
"k#	c #FF716F",
"l#	c #FF514C",
"m#	c #FF3E39",
"n#	c #FF413B",
"o#	c #FD504B",
"p#	c #F5605D",
"q#	c #E06363",
"r#	c #D64545",
"s#	c #D32525",
"t#	c #D42424",
"u#	c #D63131",
"v#	c #DC4C4C",
"w#	c #E77478",
"x#	c #DE5957",
"y#	c #C82E22",
"z#	c #A71F07",
"A#	c #7C1400",
"B#	c #B52C19",
"C#	c #DD5F54",
"D#	c #F9908D",
"E#	c #FF9092",
"F#	c #FE7676",
"G#	c #FF8788",
"H#	c #FF8F8D",
"I#	c #FF6561",
"J#	c #FF3B36",
"K#	c #FF413C",
"L#	c #FE443F",
"M#	c #FF423C",
"N#	c #F85C58",
"O#	c #EA6B69",
"P#	c #DA4847",
"Q#	c #D42E2F",
"R#	c #D32424",
"S#	c #D62F30",
"T#	c #DE5153",
"U#	c #E36A6D",
"V#	c #DF5C59",
"W#	c #C9392D",
"X#	c #AA1903",
"Y#	c #7C1500",
"Z#	c #B52E1B",
"`#	c #E25D51",
" $	c #F99E9E",
".$	c #FFA0A3",
"+$	c #FF8889",
"@$	c #FF7676",
"#$	c #FF9A99",
"$$	c #FF7672",
"%$	c #FF4C47",
"&$	c #F1605E",
"*$	c #DE6261",
"=$	c #D43030",
"-$	c #D32323",
";$	c #D62E2E",
">$	c #DC494A",
",$	c #E4696C",
"'$	c #E16E6E",
")$	c #CA3227",
"!$	c #AC1C07",
"~$	c #811600",
"{$	c #AC2A15",
"]$	c #E26054",
"^$	c #F9908E",
"/$	c #FFA7AC",
"($	c #FF8487",
"_$	c #FE7374",
":$	c #FF7373",
"<$	c #FF8585",
"[$	c #FF7E7C",
"}$	c #FF6662",
"|$	c #FF6762",
"1$	c #EA5957",
"2$	c #D43B3B",
"3$	c #D32828",
"4$	c #D52C2B",
"5$	c #DB4444",
"6$	c #E77074",
"7$	c #E05C5A",
"8$	c #CC352A",
"9$	c #AA1F09",
"0$	c #7E1100",
"a$	c #B5301D",
"b$	c #DD6257",
"c$	c #F98F8C",
"d$	c #FF989B",
"e$	c #FF8689",
"f$	c #FE7273",
"g$	c #FE7777",
"h$	c #FF7E7D",
"i$	c #FF7673",
"j$	c #FF4A46",
"k$	c #FF453F",
"l$	c #FD4D48",
"m$	c #F46462",
"n$	c #E14A49",
"o$	c #D22828",
"p$	c #D42727",
"q$	c #DC4244",
"r$	c #E25C5F",
"s$	c #E05958",
"t$	c #CD3B32",
"u$	c #AF1A09",
"v$	c #7F1100",
"w$	c #770800",
"x$	c #B5311D",
"y$	c #E25F53",
"z$	c #F99596",
"A$	c #FF9497",
"B$	c #FF7E7F",
"C$	c #FE7B7B",
"D$	c #FF7B78",
"E$	c #FF5752",
"F$	c #FF4641",
"G$	c #FE423D",
"H$	c #FF4D48",
"I$	c #FC5652",
"J$	c #E94F52",
"K$	c #DC363B",
"L$	c #D82329",
"M$	c #DD3239",
"N$	c #E45159",
"O$	c #E45D61",
"P$	c #CF2E29",
"Q$	c #B1170A",
"R$	c #860900",
"S$	c #AC2B16",
"T$	c #E26155",
"U$	c #F98B89",
"V$	c #FF9EA2",
"W$	c #FF7D7F",
"X$	c #FE7778",
"Y$	c #FF7877",
"Z$	c #FF6D69",
"`$	c #FF534D",
" %	c #FE433E",
".%	c #FE3F3A",
"+%	c #FF5854",
"@%	c #FB6162",
"#%	c #E42F3B",
"$%	c #E31F31",
"%%	c #EC2B41",
"&%	c #F6526A",
"*%	c #EE4555",
"=%	c #DA252D",
"-%	c #B20B0B",
";%	c #781100",
">%	c #B5321F",
",%	c #DD6358",
"'%	c #F98D8B",
")%	c #FF9194",
"!%	c #FF8588",
"~%	c #FE7575",
"{%	c #FE6C6A",
"]%	c #FF5A55",
"^%	c #FF4843",
"/%	c #FF5355",
"(%	c #F05250",
"_%	c #B54421",
":%	c #904D12",
"<%	c #80601A",
"[%	c #887431",
"}%	c #856620",
"|%	c #765204",
"1%	c #575100",
"2%	c #355F00",
"3%	c #197500",
"4%	c #2B7800",
"5%	c #B53522",
"6%	c #E26458",
"7%	c #F99392",
"8%	c #FF7B7D",
"9%	c #FF6A6A",
"0%	c #FE5E5B",
"a%	c #FF534E",
"b%	c #FF5A56",
"c%	c #FF464F",
"d%	c #DE3B35",
"e%	c #786A0B",
"f%	c #489003",
"g%	c #3AA60A",
"h%	c #3C9E08",
"i%	c #3E9E0A",
"j%	c #41A00D",
"k%	c #479F0E",
"l%	c #4D9A0F",
"m%	c #53960E",
"n%	c #56960D",
"o%	c #509006",
"p%	c #478800",
"q%	c #AC2C17",
"r%	c #E26457",
"s%	c #F98986",
"t%	c #FE615F",
"u%	c #FF433F",
"v%	c #FF443E",
"w%	c #FF4945",
"x%	c #FF5955",
"y%	c #FB3A49",
"z%	c #CB2F2A",
"A%	c #457E00",
"B%	c #70BC2D",
"C%	c #C4DE68",
"D%	c #BFD769",
"E%	c #BED66B",
"F%	c #BFD66C",
"G%	c #C0D66D",
"H%	c #C1D46C",
"I%	c #C4D46A",
"J%	c #CBD869",
"K%	c #83AE2F",
"L%	c #3D8400",
"M%	c #B53420",
"N%	c #DD6256",
"O%	c #F98886",
"P%	c #FF8D8F",
"Q%	c #FF6E6E",
"R%	c #FE4D48",
"S%	c #FE4D49",
"T%	c #FE4F4C",
"U%	c #FC4A48",
"V%	c #FA3749",
"W%	c #CB3C3A",
"X%	c #3A8300",
"Y%	c #80C847",
"Z%	c #E8EE8C",
"`%	c #C3D54B",
" &	c #BACF3B",
".&	c #BDD141",
"+&	c #BBCF3C",
"@&	c #C4D54B",
"#&	c #EAEE8E",
"$&	c #93B947",
"%&	c #398100",
"&&	c #770700",
"*&	c #E26357",
"=&	c #F98C8C",
"-&	c #FF7B7C",
";&	c #FF5957",
">&	c #FF524F",
",&	c #FE4944",
"'&	c #FE423E",
")&	c #FF4C4A",
"!&	c #FF4F51",
"~&	c #F83B40",
"{&	c #F9344B",
"]&	c #D04646",
"^&	c #418001",
"/&	c #82C64F",
"(&	c #DCEC8A",
"_&	c #9EC30D",
":&	c #8FB900",
"<&	c #95BD00",
"[&	c #94BD00",
"}&	c #90B900",
"|&	c #9FC30D",
"1&	c #DEEC8A",
"2&	c #91BA4F",
"3&	c #387F00",
"4&	c #AC2D18",
"5&	c #E2675B",
"6&	c #F9807E",
"7&	c #FF7B7F",
"8&	c #FF4E4A",
"9&	c #FE4643",
"0&	c #FE4644",
"a&	c #FF454B",
"b&	c #FF4151",
"c&	c #FE3B53",
"d&	c #FB2849",
"e&	c #CF2F2F",
"f&	c #447A00",
"g&	c #7CC33F",
"h&	c #D2E96F",
"i&	c #A0CA0E",
"j&	c #95C300",
"k&	c #99C600",
"l&	c #D3E870",
"m&	c #8AB73F",
"n&	c #781200",
"o&	c #B53925",
"p&	c #F97A78",
"q&	c #FF5C5A",
"r&	c #FF4D4A",
"s&	c #FF4745",
"t&	c #FF444B",
"u&	c #C75D36",
"v&	c #8A7422",
"w&	c #8E6929",
"x&	c #8F5921",
"y&	c #795712",
"z&	c #357700",
"A&	c #7AB831",
"B&	c #C7E755",
"C&	c #9FCF0B",
"D&	c #96C900",
"E&	c #9ACB00",
"F&	c #9FCF0C",
"G&	c #C8E655",
"H&	c #81B131",
"I&	c #327700",
"J&	c #347200",
"K&	c #458600",
"L&	c #4D8E00",
"M&	c #B53B28",
"N&	c #F96461",
"O&	c #FF4A4A",
"P&	c #FF4553",
"Q&	c #937227",
"R&	c #1EA200",
"S&	c #31A100",
"T&	c #3CA100",
"U&	c #409B00",
"V&	c #418C00",
"W&	c #80B71F",
"X&	c #B8E334",
"Y&	c #9DD307",
"Z&	c #97CF00",
"`&	c #9AD000",
" *	c #B8E234",
".*	c #82B61F",
"+*	c #468800",
"@*	c #509100",
"#*	c #539300",
"$*	c #519100",
"%*	c #4E8D00",
"&*	c #4A8800",
"**	c #781600",
"=*	c #AC2C15",
"-*	c #E35044",
";*	c #FB5954",
">*	c #FF5659",
",*	c #FF505F",
"'*	c #B86336",
")*	c #668808",
"!*	c #72BD00",
"~*	c #88D600",
"{*	c #9ADB00",
"]*	c #94D200",
"^*	c #99D404",
"/*	c #9ED807",
"(*	c #9AD500",
"_*	c #99D500",
":*	c #9FD807",
"<*	c #9AD304",
"[*	c #96D000",
"}*	c #9DD800",
"|*	c #92CD00",
"1*	c #7AB600",
"2*	c #508D00",
"3*	c #7A1300",
"4*	c #B9341F",
"5*	c #CE3A27",
"6*	c #D73929",
"7*	c #DA362C",
"8*	c #B9361C",
"9*	c #875007",
"0*	c #639B00",
"a*	c #7DC900",
"b*	c #9FDD00",
"c*	c #A7E300",
"d*	c #A1DD00",
"e*	c #98D500",
"f*	c #99D600",
"g*	c #A7E200",
"h*	c #A0DC00",
"i*	c #85C000",
"j*	c #649D00",
"k*	c #3F7100",
"l*	c #821600",
"m*	c #971900",
"n*	c #A01A00",
"o*	c #A31900",
"p*	c #A40B00",
"q*	c #890E00",
"r*	c #315900",
"s*	c #4F9B00",
"t*	c #7DBD00",
"u*	c #97D500",
"v*	c #9EDB00",
"w*	c #9BD800",
"x*	c #98D600",
"y*	c #7EBC00",
"z*	c #599400",
"A*	c #2E6000",
"B*	c #2D6100",
"C*	c #4F8D00",
"D*	c #7DBC00",
"E*	c #96D400",
"F*	c #A1DE00",
"G*	c #9BD900",
"H*	c #99D700",
"I*	c #518C00",
"J*	c #326100",
"K*	c #326300",
"L*	c #5A9800",
"M*	c #79B900",
"N*	c #96D600",
"O*	c #9EDD00",
"P*	c #9DDC00",
"Q*	c #99D800",
"R*	c #96D500",
"S*	c #7AB900",
"T*	c #589400",
"U*	c #387100",
"V*	c #599900",
"W*	c #7DBE00",
"X*	c #98D800",
"Y*	c #9FDF00",
"Z*	c #9DDE00",
"`*	c #9EDF00",
" =	c #589500",
".=	c #2D5F00",
"+=	c #396E00",
"@=	c #549400",
"#=	c #7EBF00",
"$=	c #9BDC00",
"%=	c #A9EA00",
"&=	c #7FBF00",
"*=	c #518D00",
"==	c #3A6E00",
"-=	c #5E9D00",
";=	c #6DAF00",
">=	c #76B700",
",=	c #6DAD00",
"'=	c #5D9900",
")=	c #336200",
"!=	c #3F7800",
"~=	c #417F00",
"{=	c #3F7D00",
"]=	c #3F7E00",
"^=	c #3D7800",
"/=	c #366800",
"                                                                                                ",
"                                                                                                ",
"                                                                                                ",
"                      . + @ # # $ $ % & * * * * * * * * = - ; ; ; ; > , '                       ",
"                    ) ! ~ { ] ^ / ( _ : < [ } | | | 1 1 2 3 4 5 6 7 8 9 0 a                     ",
"                  b c d e f g h i j h k l m n o o o o p q r s t u v w x y z A                   ",
"                B C D E F G H I J K L M N O P Q Q Q P R S T U V W X Y Z `  ...+.                ",
"              @.#.$.%.&.*.=.-.;.>.,.'.).!.~.~.~.~.~.{.{.].^./.(._.:.<.[.}.|.1.2.3.              ",
"            4.5.6.7.8.9.0.a.b.c.d.e.f.g.h.i.i.i.i.i.j.j.k.l.m.n.o.p.q.r.s.t.u.v.w.x.            ",
"          y.z.A.B.I C.D.E.F.d.G.H.I.J.h.i.i.i.i.i.i.j.j.i.h.K.L.M.N.O.P.Q.R.S.T.U.V.W.          ",
"        X.Y.Z.`. +-..+++++@+#+$+e.%+k.i.'.'.'.'.'.'.'.'.&+*+=+-+;+>+,+'+)+!+~+{+]+^+/+(+        ",
"      _+:+<+[+}+|+D.-.C.++1+F.2+!.f.h.i.i.i.i.i.i.i.i.i.*+3+4+i.5+6+7+8+9+0+a+b+c+d+e+f+g+      ",
"    h+i+j+k+l+a.m+n+a.a.o+p+q+r+s+r+t+f.f.f.f.f.f.f.f.f.t+u+u+J.v+w+x+y+z+A+A+B+8+C+D+E+F+G+    ",
"    H+I+J+K+L+M+8.8.N+O+O+P+Q+R+S+T+U+U+V+V+V+V+V+V+V+V+U+U+U+W+U+X+Y+Z+`+ @ @ @.@+@@@#@$@%@    ",
"  &@*@=@-@;@>@,@'@)@)@!@~@{@]@^@/@(@_@_@_@_@_@_@_@_@_@_@_@_@_@(@:@<@[@}@|@1@2@3@4@5@6@7@8@9@0@  ",
"    a@b@c@d@e@9.f@g@h@i@j@++k@l@m@n@o@o@o@o@o@o@o@o@o@o@o@o@p@q@r@s@t@u@v@w@x@y@z@A@B@C@D@E@    ",
"    F@G@H@I@F J@K@L@M@N@O@P@Q@R@S@T@U@U@U@U@U@U@U@U@U@U@U@V@V@W@X@Y@Z@`@ #.#+#@###$#%#&#*#=#    ",
"      -#;#>#,#'#)#!#~#{#]#^#/#(#_#m@:#<#<#<#<#<#<#<#<#<#<#<#:#[#}#|#1#2#3#4#5#6#7#8#9#0#a#      ",
"        b#c#d#e#f#)#g#N@h#i#j#k#l#m#:#<#<#<#<#<#<#<#<#<#l@<#n#o#p#q#r#s#t#u#v#w#x#y#z#A#        ",
"          b#B#C#D#'#E#F#~#]#G#H#I#J#K#<#l@l@l@l@l@l@l@l@L#:#M#N#O#P#Q#R#S#T#U#V#W#X#Y#          ",
"            -#Z#`# $.$+$@$~#]##$$$l@K#m@l@l@l@l@l@<#l@l@:#:#%$&$*$=$-$;$>$,$'$)$!$~$            ",
"              b#{$]$^$/$($_$:$<$[$}$<#m#<#<#l@l@l@<#l@l@K#n@|$1$2$3$4$5$6$7$8$9$0$              ",
"                b#a$b$c$d$e$f$g$h$i$j$[#:#<#l@<#<#l@<#<#k$l$m$n$o$p$q$r$s$t$u$v$                ",
"                  w$x$y$z$A$B$h@C$D$E$F$K#<#l@l@l@l@L#G$H$I$J$K$L$M$N$O$P$Q$R$                  ",
"                    b#S$T$U$V$W$X$Y$Z$`$T@:#<#l@l@<# %.%+%@%#%$%%%&%*%=%-%                      ",
"                      ;%>%,%'%)%!%~%{%]%^%:#:#l@l@:#<#%$/%(%_%:%<%[%}%|%1%2%3%4%                ",
"                        w$5%6%7%)%8%9%0%a%l@m@<#<# %n@b%c%d%e%f%g%h%i%j%k%l%m%n%o%p%            ",
"                          ;%q%r%s%o 8%t%H$F$u%<#v%L#w%x%y%z%A%B%C%D%E%F%G%H%I%J%K%L%            ",
"                            b#M%N%O%P%Q%R%S%o@m@m@w%T%U%V%W%X%Y%Z%`% &.&.&+&@&#&$&%&            ",
"                              &&5%*&=&-&;&>&,&G$'&)&!&~&{&]&^&/&(&_&:&<&[&}&|&1&2&3&            ",
"                                b#4&5&6&7&8& %9&0&a&b&c&d&e&f&g&h&i&j&k&k&j&i&l&m&3&            ",
"                                  n&o&,%p&q&r&s&t&u&v&w&x&y&z&A&B&C&D&E&E&D&F&G&H&I&J&  K&L&    ",
"                                    w$M&T$N&;&O&P&Q&R&S&T&U&V&W&X&Y&Z&`&`&Z&Y& *.*+*@*#*$*%*&*  ",
"                                      **=*-*;*>*,*'*)*!*~*{*]*^*/*(*_*(*(*_*(*:*<*[*}*|*1*2*    ",
"                                        3*4*5*6*7*8*9*0*a*b*c*d*e*f*f*f*f*f*f*e*d*g*h*i*j*k*    ",
"                                          l*m*n*o*p*q*r*s*t*u*v*w*f*x*x*x*x*f*w*v*u*y*z*A*      ",
"                                                        B*C*D*E*F*G*H*x*x*H*G*F*E*D*I*J*        ",
"                                                          K*L*M*N*O*P*Q*Q*P*O*R*S*T*J*          ",
"                                                            U*V*W*X*Y*Z*Z*`*X*W* =.=            ",
"                                                              +=@=#=$=%=%={*&=*=J*              ",
"                                                                ==-=;=>=>=,='=)=                ",
"                                                                  !=~={=]=^=/=                  ",
"                                                                                                ",
"                                                                                                ",
"                                                                                                ",
"                                                                                                ",
"                                                                                                ",
"                                                                                                "};
