/* XPM */
static char * MyKey_32_xpm[] = {
"32 32 75 1",
" 	c None",
".	c #C10000",
"+	c #CB1212",
"@	c #D42424",
"#	c #C20000",
"$	c #C40505",
"%	c #E64949",
"&	c #E54646",
"*	c #CC1414",
"=	c #F56666",
"-	c #E44343",
";	c #C80C0C",
">	c #FC7272",
",	c #EF5959",
"'	c #ED5555",
")	c #FB7272",
"!	c #C80D0D",
"~	c #C50808",
"{	c #FF7A7A",
"]	c #E13D3D",
"^	c #D01C1C",
"/	c #CF1B1B",
"(	c #D52525",
"_	c #C20101",
":	c #CE1919",
"<	c #F36161",
"[	c #C60909",
"}	c #DD3636",
"|	c #646464",
"1	c #6E6E6E",
"2	c #717171",
"3	c #E1E1E1",
"4	c #F9F9F9",
"5	c #747474",
"6	c #E6E6E6",
"7	c #FFFFFF",
"8	c #F3F3F3",
"9	c #787878",
"0	c #EBEBEB",
"a	c #7C7C7C",
"b	c #EEEEEE",
"c	c #818181",
"d	c #F2F2F2",
"e	c #C4C4C4",
"f	c #B6B6B6",
"g	c #A9A9A9",
"h	c #9C9C9C",
"i	c #7B7B7B",
"j	c #868686",
"k	c #F5F5F5",
"l	c #D7D7D7",
"m	c #8C8C8C",
"n	c #F8F8F8",
"o	c #929292",
"p	c #FBFBFB",
"q	c #989898",
"r	c #FCFCFC",
"s	c #D8D8D8",
"t	c #ABABAB",
"u	c #B9B9B9",
"v	c #C6C6C6",
"w	c #D4D4D4",
"x	c #666666",
"y	c #959595",
"z	c #FEFEFE",
"A	c #C1C1C1",
"B	c #B5B5B5",
"C	c #C2C2C2",
"D	c #AAAAAA",
"E	c #686868",
"F	c #E9E9E9",
"G	c #848484",
"H	c #ADADAD",
"I	c #B2B2B2",
"J	c #888888",
"                                ",
"                  ..+@#...      ",
"                 .$%&#......    ",
"               ..*=-#........   ",
"               .;>,#..........  ",
"              ..')!...........  ",
"              .~{].......    .. ",
"             ..^{/......      . ",
"             ..(>_......        ",
"             ..:<......         ",
"             ..['.......      . ",
"             ...}.......      . ",
"             ...!.........  ... ",
"              ................. ",
"           |1 ................  ",
"          |234 ..............   ",
"         |56778 .............   ",
"        |9077770 ..........     ",
"       |ab7777773  ......       ",
"     ||cd777befghi              ",
"    ||jk7777l|||||              ",
"   ||mn777776|                  ",
"  ||op777777k|                  ",
" ||qr777stuvwx                  ",
" |yz7777A|||||                  ",
" |B77777C|                      ",
" |D77777e|                      ",
" |o77777v|                      ",
" |EF7774G|                      ",
" ||2HAIJ|                       ",
"  ||||||                        ",
"                                "};
