/* XPM */
static char * wxterm_xpm[] = {
"32 32 65 1",
" 	c None",
".	c #020202",
"+	c #205BB9",
"@	c #708A16",
"#	c #7E9E0E",
"$	c #B4E702",
"%	c #1A1A1A",
"&	c #EEEEEE",
"*	c #A2D006",
"=	c #4485D5",
"-	c #2664C2",
";	c #62A6EA",
">	c #2A2A2A",
",	c #5193DE",
"'	c #EA9E32",
")	c #D6D6D6",
"!	c #A3A3A3",
"~	c #465A02",
"{	c #7E9A1A",
"]	c #454544",
"^	c #5E7A06",
"/	c #A9C8E7",
"(	c #ACAEB2",
"_	c #569AE2",
":	c #9A6216",
"<	c #E7E7E7",
"[	c #0E4AB2",
"}	c #F2F2F2",
"|	c #3E3E3D",
"1	c #566A16",
"2	c #A2BBDD",
"3	c #808080",
"4	c #060606",
"5	c #30302F",
"6	c #C6C6C6",
"7	c #515250",
"8	c #66AAEA",
"9	c #5E6E26",
"0	c #CA821E",
"a	c #4E620A",
"b	c #868686",
"c	c #F6F6F6",
"d	c #0A46AE",
"e	c #A7BEE1",
"f	c #3A3A39",
"g	c #DCDCDC",
"h	c #0A0A0A",
"i	c #CCCCCC",
"j	c #3372CA",
"k	c #8AAAD5",
"l	c #769ACC",
"m	c #222222",
"n	c #B6B6B6",
"o	c #121212",
"p	c #BEBFBF",
"q	c #5D5D5D",
"r	c #696969",
"s	c #93BBE2",
"t	c #E2E2E2",
"u	c #919191",
"v	c #727272",
"w	c #363634",
"x	c #FDFDFD",
"y	c #D2D2D2",
"z	c #94BA0D",
"xxxxxxxxxxxxxxxxxxxxxxxxxxxx)   ",
"xt3qrrrrvvvvvvvvvvvvvrvrqb}x)   ",
"xg55>5wf|]77qqqrq77]]]|wm5&xy   ",
"x)5@*@|f|]]77qqqq777]|fw5w&xy   ",
"xyw1$$*#7]]]777777]]]fw55f<xi   ",
"xiw%w{$$@f]]]]7]7]]]|fw5>f<xi   ",
"x6>w#$$$9w|]]]]]]]]|fw5>>><xi   ",
"xpm^$*^w5wff||]]|]fww55>omgx6   ",
"xn%~amm>555wwwwfwww55>>%.%gx6   ",
"x(%..h%m]zzzz7wwww555mo..%)xp   ",
"c!o..4how@@@@]5555>mo....oicp   ",
"}!o.4hhoo%%m>m>mm%ooh4...oicn   ",
"}uh4hoo%%mmm>mmmm%%%oo4..hp}n   ",
"&uoho%%mm>>5>55>>>mm%ooh.hp&n   ",
"<3oo%mm>555wwww55>>mm%%oh4n<(   ",
"<3h%%m>55f||||||ww55>m%oo4n<(   ",
"<vomm55ff||]]]]]]|w5>>m%%4(<!   ",
"tvom>5wpiiiiii66666pppppppppnnnn",
"tv%>5w!xxcc}}}&&<<<<<ttggyiyyiii",
"gb4hhh!x)}}}&}}}}}}&gigggp!(p!(p",
"gggggg(xtelkksssskllcngggiiiiiii",
"u'00:unxt2j,_88;,,j=&ng))p!(p!(p",
" '00: nct2-==,,,==jjtpggg))yiiii",
" '00:x6c&k[-jj==j-++)ng))yp6yiin",
" '000xic<2[+-j---+d+)p)))6!niiip",
" '000ci}<2+-jj=jj++-ypg))p(pbrbp",
"  '''g)c<2-j==,==j-jingyyiiu7q|3",
"     vgc<tse////22k(6p))yyyvr7|q",
"      <cygg)yii66pppnn))yiib]||3",
"      <}&g)yyyii666p6))yyyii3q3p",
"      &&&<&<<<<ttggg))yyiiiii66p",
"       c}}&&&<<&<<<<<ttt<ttggggg"};
